%TF.GenerationSoftware,KiCad,Pcbnew,9.0.7*%
%TF.CreationDate,2026-04-13T02:26:48+05:30*%
%TF.ProjectId,FinalBoostPCB,46696e61-6c42-46f6-9f73-745043422e6b,rev?*%
%TF.SameCoordinates,Original*%
%TF.FileFunction,Drillmap*%
%TF.FilePolarity,Positive*%
%FSLAX45Y45*%
G04 Gerber Fmt 4.5, Leading zero omitted, Abs format (unit mm)*
G04 Created by KiCad (PCBNEW 9.0.7) date 2026-04-13 02:26:48*
%MOMM*%
%LPD*%
G01*
G04 APERTURE LIST*
%ADD10C,0.050000*%
%ADD11C,0.200000*%
%ADD12C,0.100000*%
%ADD13C,0.130000*%
%ADD14C,0.150000*%
%ADD15C,0.320000*%
G04 APERTURE END LIST*
D10*
X5975000Y-4137500D02*
X23810000Y-4137500D01*
X23810000Y-13022500D01*
X5975000Y-13022500D01*
X5975000Y-4137500D01*
D11*
D12*
X13210000Y-4460000D02*
X13240000Y-4490000D01*
X13240000Y-4460000D02*
X13210000Y-4490000D01*
X13210000Y-4890000D02*
X13240000Y-4920000D01*
X13240000Y-4890000D02*
X13210000Y-4920000D01*
X13305000Y-8875000D02*
X13335000Y-8905000D01*
X13335000Y-8875000D02*
X13305000Y-8905000D01*
X13940000Y-9250000D02*
X13970000Y-9280000D01*
X13970000Y-9250000D02*
X13940000Y-9280000D01*
X15200000Y-10880000D02*
X15230000Y-10910000D01*
X15230000Y-10880000D02*
X15200000Y-10910000D01*
X15230000Y-11200000D02*
X15260000Y-11230000D01*
X15260000Y-11200000D02*
X15230000Y-11230000D01*
X15705000Y-8755000D02*
X15735000Y-8785000D01*
X15735000Y-8755000D02*
X15705000Y-8785000D01*
X15705000Y-8845000D02*
X15735000Y-8875000D01*
X15735000Y-8845000D02*
X15705000Y-8875000D01*
X20205350Y-12439863D02*
X20235350Y-12469863D01*
X20235350Y-12439863D02*
X20205350Y-12469863D01*
X20285350Y-9679863D02*
X20315350Y-9709863D01*
X20315350Y-9679863D02*
X20285350Y-9709863D01*
X20335350Y-6949863D02*
X20365350Y-6979863D01*
X20365350Y-6949863D02*
X20335350Y-6979863D01*
X20835350Y-9069863D02*
X20865350Y-9099863D01*
X20865350Y-9069863D02*
X20835350Y-9099863D01*
X20905350Y-6309863D02*
X20935350Y-6339863D01*
X20935350Y-6309863D02*
X20905350Y-6339863D01*
X21065350Y-11879863D02*
X21095350Y-11909863D01*
X21095350Y-11879863D02*
X21065350Y-11909863D01*
X21065350Y-12119863D02*
X21095350Y-12149863D01*
X21095350Y-12119863D02*
X21065350Y-12149863D01*
X21075350Y-9069863D02*
X21105350Y-9099863D01*
X21105350Y-9069863D02*
X21075350Y-9099863D01*
X21145350Y-6319863D02*
X21175350Y-6349863D01*
X21175350Y-6319863D02*
X21145350Y-6349863D01*
X21189050Y-7249863D02*
X21219050Y-7279863D01*
X21219050Y-7249863D02*
X21189050Y-7279863D01*
X21345350Y-6820983D02*
X21375350Y-6850983D01*
X21375350Y-6820983D02*
X21345350Y-6850983D01*
X21703987Y-8351996D02*
X21733987Y-8381996D01*
X21733987Y-8351996D02*
X21703987Y-8381996D01*
X21755350Y-9009863D02*
X21785350Y-9039863D01*
X21785350Y-9009863D02*
X21755350Y-9039863D01*
X21765350Y-9769863D02*
X21795350Y-9799863D01*
X21795350Y-9769863D02*
X21765350Y-9799863D01*
X21777143Y-8441890D02*
X21807143Y-8471890D01*
X21807143Y-8441890D02*
X21777143Y-8471890D01*
X22089100Y-4636490D02*
X22119100Y-4666490D01*
X22119100Y-4636490D02*
X22089100Y-4666490D01*
X22125350Y-9949863D02*
X22155350Y-9979863D01*
X22155350Y-9949863D02*
X22125350Y-9979863D01*
X22495350Y-5709863D02*
X22525350Y-5739863D01*
X22525350Y-5709863D02*
X22495350Y-5739863D01*
X23155350Y-6409863D02*
X23185350Y-6439863D01*
X23185350Y-6409863D02*
X23155350Y-6439863D01*
X23312800Y-6701490D02*
X23342800Y-6731490D01*
X23342800Y-6701490D02*
X23312800Y-6731490D01*
X23337282Y-7719672D02*
X23367282Y-7749672D01*
X23367282Y-7719672D02*
X23337282Y-7749672D01*
X19765350Y-10362863D02*
G75*
G02*
X19695350Y-10362863I-35000J0D01*
G01*
X19695350Y-10362863D02*
G75*
G02*
X19765350Y-10362863I35000J0D01*
G01*
X19765350Y-10616863D02*
G75*
G02*
X19695350Y-10616863I-35000J0D01*
G01*
X19695350Y-10616863D02*
G75*
G02*
X19765350Y-10616863I35000J0D01*
G01*
X19765350Y-10870863D02*
G75*
G02*
X19695350Y-10870863I-35000J0D01*
G01*
X19695350Y-10870863D02*
G75*
G02*
X19765350Y-10870863I35000J0D01*
G01*
X19765350Y-11124863D02*
G75*
G02*
X19695350Y-11124863I-35000J0D01*
G01*
X19695350Y-11124863D02*
G75*
G02*
X19765350Y-11124863I35000J0D01*
G01*
X19844854Y-7608363D02*
G75*
G02*
X19774854Y-7608363I-35000J0D01*
G01*
X19774854Y-7608363D02*
G75*
G02*
X19844854Y-7608363I35000J0D01*
G01*
X19844854Y-7862363D02*
G75*
G02*
X19774854Y-7862363I-35000J0D01*
G01*
X19774854Y-7862363D02*
G75*
G02*
X19844854Y-7862363I35000J0D01*
G01*
X19844854Y-8116363D02*
G75*
G02*
X19774854Y-8116363I-35000J0D01*
G01*
X19774854Y-8116363D02*
G75*
G02*
X19844854Y-8116363I35000J0D01*
G01*
X19844854Y-8370363D02*
G75*
G02*
X19774854Y-8370363I-35000J0D01*
G01*
X19774854Y-8370363D02*
G75*
G02*
X19844854Y-8370363I35000J0D01*
G01*
X19857354Y-4882863D02*
G75*
G02*
X19787354Y-4882863I-35000J0D01*
G01*
X19787354Y-4882863D02*
G75*
G02*
X19857354Y-4882863I35000J0D01*
G01*
X19857354Y-5136863D02*
G75*
G02*
X19787354Y-5136863I-35000J0D01*
G01*
X19787354Y-5136863D02*
G75*
G02*
X19857354Y-5136863I35000J0D01*
G01*
X19857354Y-5390863D02*
G75*
G02*
X19787354Y-5390863I-35000J0D01*
G01*
X19787354Y-5390863D02*
G75*
G02*
X19857354Y-5390863I35000J0D01*
G01*
X19857354Y-5644863D02*
G75*
G02*
X19787354Y-5644863I-35000J0D01*
G01*
X19787354Y-5644863D02*
G75*
G02*
X19857354Y-5644863I35000J0D01*
G01*
X7780000Y-9730000D02*
X7780000Y-9810000D01*
X7740000Y-9770000D02*
X7820000Y-9770000D01*
X8220000Y-8980000D02*
X8220000Y-9060000D01*
X8180000Y-9020000D02*
X8260000Y-9020000D01*
X11985000Y-4435000D02*
X11985000Y-4515000D01*
X11945000Y-4475000D02*
X12025000Y-4475000D01*
X12735000Y-4875000D02*
X12735000Y-4955000D01*
X12695000Y-4915000D02*
X12775000Y-4915000D01*
X13271302Y-11210052D02*
X13271302Y-11149948D01*
X13211198Y-11149948D01*
X13211198Y-11210052D01*
X13271302Y-11210052D01*
X13275052Y-8110052D02*
X13275052Y-8049948D01*
X13214948Y-8049948D01*
X13214948Y-8110052D01*
X13275052Y-8110052D01*
X13525302Y-11210052D02*
X13525302Y-11149948D01*
X13465198Y-11149948D01*
X13465198Y-11210052D01*
X13525302Y-11210052D01*
X13529052Y-8110052D02*
X13529052Y-8049948D01*
X13468948Y-8049948D01*
X13468948Y-8110052D01*
X13529052Y-8110052D01*
X13779302Y-11210052D02*
X13779302Y-11149948D01*
X13719198Y-11149948D01*
X13719198Y-11210052D01*
X13779302Y-11210052D01*
X13783052Y-8110052D02*
X13783052Y-8049948D01*
X13722948Y-8049948D01*
X13722948Y-8110052D01*
X13783052Y-8110052D01*
X14287302Y-11210052D02*
X14287302Y-11149948D01*
X14227198Y-11149948D01*
X14227198Y-11210052D01*
X14287302Y-11210052D01*
X14291052Y-8110052D02*
X14291052Y-8049948D01*
X14230948Y-8049948D01*
X14230948Y-8110052D01*
X14291052Y-8110052D01*
X14541302Y-11210052D02*
X14541302Y-11149948D01*
X14481198Y-11149948D01*
X14481198Y-11210052D01*
X14541302Y-11210052D01*
X14545052Y-8110052D02*
X14545052Y-8049948D01*
X14484948Y-8049948D01*
X14484948Y-8110052D01*
X14545052Y-8110052D01*
X8786768Y-9343491D02*
X8836768Y-9293491D01*
X8786768Y-9243491D01*
X8736768Y-9293491D01*
X8786768Y-9343491D01*
X9286768Y-9343491D02*
X9336768Y-9293491D01*
X9286768Y-9243491D01*
X9236768Y-9293491D01*
X9286768Y-9343491D01*
X11735000Y-6099634D02*
X11785000Y-6049634D01*
X11735000Y-5999634D01*
X11685000Y-6049634D01*
X11735000Y-6099634D01*
X12235000Y-6099634D02*
X12285000Y-6049634D01*
X12235000Y-5999634D01*
X12185000Y-6049634D01*
X12235000Y-6099634D01*
X14425000Y-9750000D02*
X14475000Y-9700000D01*
X14425000Y-9650000D01*
X14375000Y-9700000D01*
X14425000Y-9750000D01*
X14801250Y-9960000D02*
X14851250Y-9910000D01*
X14801250Y-9860000D01*
X14751250Y-9910000D01*
X14801250Y-9960000D01*
X22260350Y-4854863D02*
X22310350Y-4804863D01*
X22260350Y-4754863D01*
X22210350Y-4804863D01*
X22260350Y-4854863D01*
X22260350Y-5314863D02*
X22310350Y-5264863D01*
X22260350Y-5214863D01*
X22210350Y-5264863D01*
X22260350Y-5314863D01*
X22260350Y-5774863D02*
X22310350Y-5724863D01*
X22260350Y-5674863D01*
X22210350Y-5724863D01*
X22260350Y-5774863D01*
X22260350Y-6234863D02*
X22310350Y-6184863D01*
X22260350Y-6134863D01*
X22210350Y-6184863D01*
X22260350Y-6234863D01*
X22260350Y-6664863D02*
X22310350Y-6614863D01*
X22260350Y-6564863D01*
X22210350Y-6614863D01*
X22260350Y-6664863D01*
X22264100Y-7106490D02*
X22314100Y-7056490D01*
X22264100Y-7006490D01*
X22214100Y-7056490D01*
X22264100Y-7106490D01*
X22274100Y-7596490D02*
X22324100Y-7546490D01*
X22274100Y-7496490D01*
X22224100Y-7546490D01*
X22274100Y-7596490D01*
X22274100Y-8056490D02*
X22324100Y-8006490D01*
X22274100Y-7956490D01*
X22224100Y-8006490D01*
X22274100Y-8056490D01*
D13*
X6450000Y-10932000D02*
X6580000Y-11062000D01*
X6580000Y-10932000D02*
X6450000Y-11062000D01*
X6580000Y-10997000D02*
G75*
G02*
X6450000Y-10997000I-65000J0D01*
G01*
X6450000Y-10997000D02*
G75*
G02*
X6580000Y-10997000I65000J0D01*
G01*
X6450000Y-11440000D02*
X6580000Y-11570000D01*
X6580000Y-11440000D02*
X6450000Y-11570000D01*
X6580000Y-11505000D02*
G75*
G02*
X6450000Y-11505000I-65000J0D01*
G01*
X6450000Y-11505000D02*
G75*
G02*
X6580000Y-11505000I65000J0D01*
G01*
X7095000Y-8305000D02*
X7225000Y-8435000D01*
X7225000Y-8305000D02*
X7095000Y-8435000D01*
X7225000Y-8370000D02*
G75*
G02*
X7095000Y-8370000I-65000J0D01*
G01*
X7095000Y-8370000D02*
G75*
G02*
X7225000Y-8370000I65000J0D01*
G01*
X7095000Y-8825000D02*
X7225000Y-8955000D01*
X7225000Y-8825000D02*
X7095000Y-8955000D01*
X7225000Y-8890000D02*
G75*
G02*
X7095000Y-8890000I-65000J0D01*
G01*
X7095000Y-8890000D02*
G75*
G02*
X7225000Y-8890000I65000J0D01*
G01*
X7095000Y-9835000D02*
X7225000Y-9965000D01*
X7225000Y-9835000D02*
X7095000Y-9965000D01*
X7225000Y-9900000D02*
G75*
G02*
X7095000Y-9900000I-65000J0D01*
G01*
X7095000Y-9900000D02*
G75*
G02*
X7225000Y-9900000I65000J0D01*
G01*
X7095000Y-10355000D02*
X7225000Y-10485000D01*
X7225000Y-10355000D02*
X7095000Y-10485000D01*
X7225000Y-10420000D02*
G75*
G02*
X7095000Y-10420000I-65000J0D01*
G01*
X7095000Y-10420000D02*
G75*
G02*
X7225000Y-10420000I65000J0D01*
G01*
X13060000Y-5855000D02*
X13190000Y-5985000D01*
X13190000Y-5855000D02*
X13060000Y-5985000D01*
X13190000Y-5920000D02*
G75*
G02*
X13060000Y-5920000I-65000J0D01*
G01*
X13060000Y-5920000D02*
G75*
G02*
X13190000Y-5920000I65000J0D01*
G01*
X13521500Y-4658250D02*
X13651500Y-4788250D01*
X13651500Y-4658250D02*
X13521500Y-4788250D01*
X13651500Y-4723250D02*
G75*
G02*
X13521500Y-4723250I-65000J0D01*
G01*
X13521500Y-4723250D02*
G75*
G02*
X13651500Y-4723250I65000J0D01*
G01*
X13580000Y-5855000D02*
X13710000Y-5985000D01*
X13710000Y-5855000D02*
X13580000Y-5985000D01*
X13710000Y-5920000D02*
G75*
G02*
X13580000Y-5920000I-65000J0D01*
G01*
X13580000Y-5920000D02*
G75*
G02*
X13710000Y-5920000I65000J0D01*
G01*
X14029500Y-4658250D02*
X14159500Y-4788250D01*
X14159500Y-4658250D02*
X14029500Y-4788250D01*
X14159500Y-4723250D02*
G75*
G02*
X14029500Y-4723250I-65000J0D01*
G01*
X14029500Y-4723250D02*
G75*
G02*
X14159500Y-4723250I65000J0D01*
G01*
X14590000Y-5855000D02*
X14720000Y-5985000D01*
X14720000Y-5855000D02*
X14590000Y-5985000D01*
X14720000Y-5920000D02*
G75*
G02*
X14590000Y-5920000I-65000J0D01*
G01*
X14590000Y-5920000D02*
G75*
G02*
X14720000Y-5920000I65000J0D01*
G01*
X15110000Y-5855000D02*
X15240000Y-5985000D01*
X15240000Y-5855000D02*
X15110000Y-5985000D01*
X15240000Y-5920000D02*
G75*
G02*
X15110000Y-5920000I-65000J0D01*
G01*
X15110000Y-5920000D02*
G75*
G02*
X15240000Y-5920000I65000J0D01*
G01*
X16840000Y-7885000D02*
X16970000Y-8015000D01*
X16970000Y-7885000D02*
X16840000Y-8015000D01*
X16970000Y-7950000D02*
G75*
G02*
X16840000Y-7950000I-65000J0D01*
G01*
X16840000Y-7950000D02*
G75*
G02*
X16970000Y-7950000I65000J0D01*
G01*
X16840000Y-10285000D02*
X16970000Y-10415000D01*
X16970000Y-10285000D02*
X16840000Y-10415000D01*
X16970000Y-10350000D02*
G75*
G02*
X16840000Y-10350000I-65000J0D01*
G01*
X16840000Y-10350000D02*
G75*
G02*
X16970000Y-10350000I65000J0D01*
G01*
D14*
X10310000Y-7645000D02*
X10460000Y-7795000D01*
X10460000Y-7645000D02*
X10310000Y-7795000D01*
X10385000Y-7645000D02*
X10385000Y-7795000D01*
X10310000Y-7720000D02*
X10460000Y-7720000D01*
X10310000Y-8190000D02*
X10460000Y-8340000D01*
X10460000Y-8190000D02*
X10310000Y-8340000D01*
X10385000Y-8190000D02*
X10385000Y-8340000D01*
X10310000Y-8265000D02*
X10460000Y-8265000D01*
X10310000Y-8735000D02*
X10460000Y-8885000D01*
X10460000Y-8735000D02*
X10310000Y-8885000D01*
X10385000Y-8735000D02*
X10385000Y-8885000D01*
X10310000Y-8810000D02*
X10460000Y-8810000D01*
X10330000Y-9445000D02*
X10480000Y-9595000D01*
X10480000Y-9445000D02*
X10330000Y-9595000D01*
X10405000Y-9445000D02*
X10405000Y-9595000D01*
X10330000Y-9520000D02*
X10480000Y-9520000D01*
X10330000Y-9990000D02*
X10480000Y-10140000D01*
X10480000Y-9990000D02*
X10330000Y-10140000D01*
X10405000Y-9990000D02*
X10405000Y-10140000D01*
X10330000Y-10065000D02*
X10480000Y-10065000D01*
X10330000Y-10535000D02*
X10480000Y-10685000D01*
X10480000Y-10535000D02*
X10330000Y-10685000D01*
X10405000Y-10535000D02*
X10405000Y-10685000D01*
X10330000Y-10610000D02*
X10480000Y-10610000D01*
D15*
X6315000Y-4477500D02*
X6635000Y-4797500D01*
X6635000Y-4477500D02*
X6315000Y-4797500D01*
X6588138Y-4750638D02*
X6588138Y-4524362D01*
X6361862Y-4524362D01*
X6361862Y-4750638D01*
X6588138Y-4750638D01*
X6315000Y-12362500D02*
X6635000Y-12682500D01*
X6635000Y-12362500D02*
X6315000Y-12682500D01*
X6588138Y-12635638D02*
X6588138Y-12409362D01*
X6361862Y-12409362D01*
X6361862Y-12635638D01*
X6588138Y-12635638D01*
X23150000Y-4477500D02*
X23470000Y-4797500D01*
X23470000Y-4477500D02*
X23150000Y-4797500D01*
X23423138Y-4750638D02*
X23423138Y-4524362D01*
X23196862Y-4524362D01*
X23196862Y-4750638D01*
X23423138Y-4750638D01*
X23150000Y-12362500D02*
X23470000Y-12682500D01*
X23470000Y-12362500D02*
X23150000Y-12682500D01*
X23423138Y-12635638D02*
X23423138Y-12409362D01*
X23196862Y-12409362D01*
X23196862Y-12635638D01*
X23423138Y-12635638D01*
D11*
X6233277Y-13336484D02*
X6233277Y-13136484D01*
X6233277Y-13136484D02*
X6280896Y-13136484D01*
X6280896Y-13136484D02*
X6309467Y-13146008D01*
X6309467Y-13146008D02*
X6328515Y-13165055D01*
X6328515Y-13165055D02*
X6338039Y-13184103D01*
X6338039Y-13184103D02*
X6347562Y-13222198D01*
X6347562Y-13222198D02*
X6347562Y-13250769D01*
X6347562Y-13250769D02*
X6338039Y-13288865D01*
X6338039Y-13288865D02*
X6328515Y-13307912D01*
X6328515Y-13307912D02*
X6309467Y-13326960D01*
X6309467Y-13326960D02*
X6280896Y-13336484D01*
X6280896Y-13336484D02*
X6233277Y-13336484D01*
X6433277Y-13336484D02*
X6433277Y-13203150D01*
X6433277Y-13241246D02*
X6442801Y-13222198D01*
X6442801Y-13222198D02*
X6452324Y-13212674D01*
X6452324Y-13212674D02*
X6471372Y-13203150D01*
X6471372Y-13203150D02*
X6490420Y-13203150D01*
X6557086Y-13336484D02*
X6557086Y-13203150D01*
X6557086Y-13136484D02*
X6547562Y-13146008D01*
X6547562Y-13146008D02*
X6557086Y-13155531D01*
X6557086Y-13155531D02*
X6566610Y-13146008D01*
X6566610Y-13146008D02*
X6557086Y-13136484D01*
X6557086Y-13136484D02*
X6557086Y-13155531D01*
X6680896Y-13336484D02*
X6661848Y-13326960D01*
X6661848Y-13326960D02*
X6652324Y-13307912D01*
X6652324Y-13307912D02*
X6652324Y-13136484D01*
X6785658Y-13336484D02*
X6766610Y-13326960D01*
X6766610Y-13326960D02*
X6757086Y-13307912D01*
X6757086Y-13307912D02*
X6757086Y-13136484D01*
X7014229Y-13336484D02*
X7014229Y-13136484D01*
X7014229Y-13136484D02*
X7080896Y-13279341D01*
X7080896Y-13279341D02*
X7147562Y-13136484D01*
X7147562Y-13136484D02*
X7147562Y-13336484D01*
X7328515Y-13336484D02*
X7328515Y-13231722D01*
X7328515Y-13231722D02*
X7318991Y-13212674D01*
X7318991Y-13212674D02*
X7299943Y-13203150D01*
X7299943Y-13203150D02*
X7261848Y-13203150D01*
X7261848Y-13203150D02*
X7242801Y-13212674D01*
X7328515Y-13326960D02*
X7309467Y-13336484D01*
X7309467Y-13336484D02*
X7261848Y-13336484D01*
X7261848Y-13336484D02*
X7242801Y-13326960D01*
X7242801Y-13326960D02*
X7233277Y-13307912D01*
X7233277Y-13307912D02*
X7233277Y-13288865D01*
X7233277Y-13288865D02*
X7242801Y-13269817D01*
X7242801Y-13269817D02*
X7261848Y-13260293D01*
X7261848Y-13260293D02*
X7309467Y-13260293D01*
X7309467Y-13260293D02*
X7328515Y-13250769D01*
X7423753Y-13203150D02*
X7423753Y-13403150D01*
X7423753Y-13212674D02*
X7442801Y-13203150D01*
X7442801Y-13203150D02*
X7480896Y-13203150D01*
X7480896Y-13203150D02*
X7499943Y-13212674D01*
X7499943Y-13212674D02*
X7509467Y-13222198D01*
X7509467Y-13222198D02*
X7518991Y-13241246D01*
X7518991Y-13241246D02*
X7518991Y-13298388D01*
X7518991Y-13298388D02*
X7509467Y-13317436D01*
X7509467Y-13317436D02*
X7499943Y-13326960D01*
X7499943Y-13326960D02*
X7480896Y-13336484D01*
X7480896Y-13336484D02*
X7442801Y-13336484D01*
X7442801Y-13336484D02*
X7423753Y-13326960D01*
X7604705Y-13317436D02*
X7614229Y-13326960D01*
X7614229Y-13326960D02*
X7604705Y-13336484D01*
X7604705Y-13336484D02*
X7595182Y-13326960D01*
X7595182Y-13326960D02*
X7604705Y-13317436D01*
X7604705Y-13317436D02*
X7604705Y-13336484D01*
X7604705Y-13212674D02*
X7614229Y-13222198D01*
X7614229Y-13222198D02*
X7604705Y-13231722D01*
X7604705Y-13231722D02*
X7595182Y-13222198D01*
X7595182Y-13222198D02*
X7604705Y-13212674D01*
X7604705Y-13212674D02*
X7604705Y-13231722D01*
D12*
X5942500Y-13650000D02*
X5972500Y-13680000D01*
X5972500Y-13650000D02*
X5942500Y-13680000D01*
D11*
X6271372Y-13556484D02*
X6290420Y-13556484D01*
X6290420Y-13556484D02*
X6309467Y-13566008D01*
X6309467Y-13566008D02*
X6318991Y-13575531D01*
X6318991Y-13575531D02*
X6328515Y-13594579D01*
X6328515Y-13594579D02*
X6338039Y-13632674D01*
X6338039Y-13632674D02*
X6338039Y-13680293D01*
X6338039Y-13680293D02*
X6328515Y-13718388D01*
X6328515Y-13718388D02*
X6318991Y-13737436D01*
X6318991Y-13737436D02*
X6309467Y-13746960D01*
X6309467Y-13746960D02*
X6290420Y-13756484D01*
X6290420Y-13756484D02*
X6271372Y-13756484D01*
X6271372Y-13756484D02*
X6252324Y-13746960D01*
X6252324Y-13746960D02*
X6242801Y-13737436D01*
X6242801Y-13737436D02*
X6233277Y-13718388D01*
X6233277Y-13718388D02*
X6223753Y-13680293D01*
X6223753Y-13680293D02*
X6223753Y-13632674D01*
X6223753Y-13632674D02*
X6233277Y-13594579D01*
X6233277Y-13594579D02*
X6242801Y-13575531D01*
X6242801Y-13575531D02*
X6252324Y-13566008D01*
X6252324Y-13566008D02*
X6271372Y-13556484D01*
X6423753Y-13737436D02*
X6433277Y-13746960D01*
X6433277Y-13746960D02*
X6423753Y-13756484D01*
X6423753Y-13756484D02*
X6414229Y-13746960D01*
X6414229Y-13746960D02*
X6423753Y-13737436D01*
X6423753Y-13737436D02*
X6423753Y-13756484D01*
X6499943Y-13556484D02*
X6623753Y-13556484D01*
X6623753Y-13556484D02*
X6557086Y-13632674D01*
X6557086Y-13632674D02*
X6585658Y-13632674D01*
X6585658Y-13632674D02*
X6604705Y-13642198D01*
X6604705Y-13642198D02*
X6614229Y-13651722D01*
X6614229Y-13651722D02*
X6623753Y-13670769D01*
X6623753Y-13670769D02*
X6623753Y-13718388D01*
X6623753Y-13718388D02*
X6614229Y-13737436D01*
X6614229Y-13737436D02*
X6604705Y-13746960D01*
X6604705Y-13746960D02*
X6585658Y-13756484D01*
X6585658Y-13756484D02*
X6528515Y-13756484D01*
X6528515Y-13756484D02*
X6509467Y-13746960D01*
X6509467Y-13746960D02*
X6499943Y-13737436D01*
X6747562Y-13556484D02*
X6766610Y-13556484D01*
X6766610Y-13556484D02*
X6785658Y-13566008D01*
X6785658Y-13566008D02*
X6795182Y-13575531D01*
X6795182Y-13575531D02*
X6804705Y-13594579D01*
X6804705Y-13594579D02*
X6814229Y-13632674D01*
X6814229Y-13632674D02*
X6814229Y-13680293D01*
X6814229Y-13680293D02*
X6804705Y-13718388D01*
X6804705Y-13718388D02*
X6795182Y-13737436D01*
X6795182Y-13737436D02*
X6785658Y-13746960D01*
X6785658Y-13746960D02*
X6766610Y-13756484D01*
X6766610Y-13756484D02*
X6747562Y-13756484D01*
X6747562Y-13756484D02*
X6728515Y-13746960D01*
X6728515Y-13746960D02*
X6718991Y-13737436D01*
X6718991Y-13737436D02*
X6709467Y-13718388D01*
X6709467Y-13718388D02*
X6699943Y-13680293D01*
X6699943Y-13680293D02*
X6699943Y-13632674D01*
X6699943Y-13632674D02*
X6709467Y-13594579D01*
X6709467Y-13594579D02*
X6718991Y-13575531D01*
X6718991Y-13575531D02*
X6728515Y-13566008D01*
X6728515Y-13566008D02*
X6747562Y-13556484D01*
X6938039Y-13556484D02*
X6957086Y-13556484D01*
X6957086Y-13556484D02*
X6976134Y-13566008D01*
X6976134Y-13566008D02*
X6985658Y-13575531D01*
X6985658Y-13575531D02*
X6995182Y-13594579D01*
X6995182Y-13594579D02*
X7004705Y-13632674D01*
X7004705Y-13632674D02*
X7004705Y-13680293D01*
X7004705Y-13680293D02*
X6995182Y-13718388D01*
X6995182Y-13718388D02*
X6985658Y-13737436D01*
X6985658Y-13737436D02*
X6976134Y-13746960D01*
X6976134Y-13746960D02*
X6957086Y-13756484D01*
X6957086Y-13756484D02*
X6938039Y-13756484D01*
X6938039Y-13756484D02*
X6918991Y-13746960D01*
X6918991Y-13746960D02*
X6909467Y-13737436D01*
X6909467Y-13737436D02*
X6899943Y-13718388D01*
X6899943Y-13718388D02*
X6890420Y-13680293D01*
X6890420Y-13680293D02*
X6890420Y-13632674D01*
X6890420Y-13632674D02*
X6899943Y-13594579D01*
X6899943Y-13594579D02*
X6909467Y-13575531D01*
X6909467Y-13575531D02*
X6918991Y-13566008D01*
X6918991Y-13566008D02*
X6938039Y-13556484D01*
X7090420Y-13756484D02*
X7090420Y-13623150D01*
X7090420Y-13642198D02*
X7099943Y-13632674D01*
X7099943Y-13632674D02*
X7118991Y-13623150D01*
X7118991Y-13623150D02*
X7147563Y-13623150D01*
X7147563Y-13623150D02*
X7166610Y-13632674D01*
X7166610Y-13632674D02*
X7176134Y-13651722D01*
X7176134Y-13651722D02*
X7176134Y-13756484D01*
X7176134Y-13651722D02*
X7185658Y-13632674D01*
X7185658Y-13632674D02*
X7204705Y-13623150D01*
X7204705Y-13623150D02*
X7233277Y-13623150D01*
X7233277Y-13623150D02*
X7252324Y-13632674D01*
X7252324Y-13632674D02*
X7261848Y-13651722D01*
X7261848Y-13651722D02*
X7261848Y-13756484D01*
X7357086Y-13756484D02*
X7357086Y-13623150D01*
X7357086Y-13642198D02*
X7366610Y-13632674D01*
X7366610Y-13632674D02*
X7385658Y-13623150D01*
X7385658Y-13623150D02*
X7414229Y-13623150D01*
X7414229Y-13623150D02*
X7433277Y-13632674D01*
X7433277Y-13632674D02*
X7442801Y-13651722D01*
X7442801Y-13651722D02*
X7442801Y-13756484D01*
X7442801Y-13651722D02*
X7452324Y-13632674D01*
X7452324Y-13632674D02*
X7471372Y-13623150D01*
X7471372Y-13623150D02*
X7499943Y-13623150D01*
X7499943Y-13623150D02*
X7518991Y-13632674D01*
X7518991Y-13632674D02*
X7528515Y-13651722D01*
X7528515Y-13651722D02*
X7528515Y-13756484D01*
X7918991Y-13546960D02*
X7747563Y-13804103D01*
X8176134Y-13556484D02*
X8195182Y-13556484D01*
X8195182Y-13556484D02*
X8214229Y-13566008D01*
X8214229Y-13566008D02*
X8223753Y-13575531D01*
X8223753Y-13575531D02*
X8233277Y-13594579D01*
X8233277Y-13594579D02*
X8242801Y-13632674D01*
X8242801Y-13632674D02*
X8242801Y-13680293D01*
X8242801Y-13680293D02*
X8233277Y-13718388D01*
X8233277Y-13718388D02*
X8223753Y-13737436D01*
X8223753Y-13737436D02*
X8214229Y-13746960D01*
X8214229Y-13746960D02*
X8195182Y-13756484D01*
X8195182Y-13756484D02*
X8176134Y-13756484D01*
X8176134Y-13756484D02*
X8157086Y-13746960D01*
X8157086Y-13746960D02*
X8147563Y-13737436D01*
X8147563Y-13737436D02*
X8138039Y-13718388D01*
X8138039Y-13718388D02*
X8128515Y-13680293D01*
X8128515Y-13680293D02*
X8128515Y-13632674D01*
X8128515Y-13632674D02*
X8138039Y-13594579D01*
X8138039Y-13594579D02*
X8147563Y-13575531D01*
X8147563Y-13575531D02*
X8157086Y-13566008D01*
X8157086Y-13566008D02*
X8176134Y-13556484D01*
X8328515Y-13737436D02*
X8338039Y-13746960D01*
X8338039Y-13746960D02*
X8328515Y-13756484D01*
X8328515Y-13756484D02*
X8318991Y-13746960D01*
X8318991Y-13746960D02*
X8328515Y-13737436D01*
X8328515Y-13737436D02*
X8328515Y-13756484D01*
X8461848Y-13556484D02*
X8480896Y-13556484D01*
X8480896Y-13556484D02*
X8499944Y-13566008D01*
X8499944Y-13566008D02*
X8509468Y-13575531D01*
X8509468Y-13575531D02*
X8518991Y-13594579D01*
X8518991Y-13594579D02*
X8528515Y-13632674D01*
X8528515Y-13632674D02*
X8528515Y-13680293D01*
X8528515Y-13680293D02*
X8518991Y-13718388D01*
X8518991Y-13718388D02*
X8509468Y-13737436D01*
X8509468Y-13737436D02*
X8499944Y-13746960D01*
X8499944Y-13746960D02*
X8480896Y-13756484D01*
X8480896Y-13756484D02*
X8461848Y-13756484D01*
X8461848Y-13756484D02*
X8442801Y-13746960D01*
X8442801Y-13746960D02*
X8433277Y-13737436D01*
X8433277Y-13737436D02*
X8423753Y-13718388D01*
X8423753Y-13718388D02*
X8414229Y-13680293D01*
X8414229Y-13680293D02*
X8414229Y-13632674D01*
X8414229Y-13632674D02*
X8423753Y-13594579D01*
X8423753Y-13594579D02*
X8433277Y-13575531D01*
X8433277Y-13575531D02*
X8442801Y-13566008D01*
X8442801Y-13566008D02*
X8461848Y-13556484D01*
X8718991Y-13756484D02*
X8604706Y-13756484D01*
X8661848Y-13756484D02*
X8661848Y-13556484D01*
X8661848Y-13556484D02*
X8642801Y-13585055D01*
X8642801Y-13585055D02*
X8623753Y-13604103D01*
X8623753Y-13604103D02*
X8604706Y-13613627D01*
X8909468Y-13756484D02*
X8795182Y-13756484D01*
X8852325Y-13756484D02*
X8852325Y-13556484D01*
X8852325Y-13556484D02*
X8833277Y-13585055D01*
X8833277Y-13585055D02*
X8814229Y-13604103D01*
X8814229Y-13604103D02*
X8795182Y-13613627D01*
X9023753Y-13642198D02*
X9004706Y-13632674D01*
X9004706Y-13632674D02*
X8995182Y-13623150D01*
X8995182Y-13623150D02*
X8985658Y-13604103D01*
X8985658Y-13604103D02*
X8985658Y-13594579D01*
X8985658Y-13594579D02*
X8995182Y-13575531D01*
X8995182Y-13575531D02*
X9004706Y-13566008D01*
X9004706Y-13566008D02*
X9023753Y-13556484D01*
X9023753Y-13556484D02*
X9061849Y-13556484D01*
X9061849Y-13556484D02*
X9080896Y-13566008D01*
X9080896Y-13566008D02*
X9090420Y-13575531D01*
X9090420Y-13575531D02*
X9099944Y-13594579D01*
X9099944Y-13594579D02*
X9099944Y-13604103D01*
X9099944Y-13604103D02*
X9090420Y-13623150D01*
X9090420Y-13623150D02*
X9080896Y-13632674D01*
X9080896Y-13632674D02*
X9061849Y-13642198D01*
X9061849Y-13642198D02*
X9023753Y-13642198D01*
X9023753Y-13642198D02*
X9004706Y-13651722D01*
X9004706Y-13651722D02*
X8995182Y-13661246D01*
X8995182Y-13661246D02*
X8985658Y-13680293D01*
X8985658Y-13680293D02*
X8985658Y-13718388D01*
X8985658Y-13718388D02*
X8995182Y-13737436D01*
X8995182Y-13737436D02*
X9004706Y-13746960D01*
X9004706Y-13746960D02*
X9023753Y-13756484D01*
X9023753Y-13756484D02*
X9061849Y-13756484D01*
X9061849Y-13756484D02*
X9080896Y-13746960D01*
X9080896Y-13746960D02*
X9090420Y-13737436D01*
X9090420Y-13737436D02*
X9099944Y-13718388D01*
X9099944Y-13718388D02*
X9099944Y-13680293D01*
X9099944Y-13680293D02*
X9090420Y-13661246D01*
X9090420Y-13661246D02*
X9080896Y-13651722D01*
X9080896Y-13651722D02*
X9061849Y-13642198D01*
X9176134Y-13556484D02*
X9176134Y-13594579D01*
X9252325Y-13556484D02*
X9252325Y-13594579D01*
X9547563Y-13832674D02*
X9538039Y-13823150D01*
X9538039Y-13823150D02*
X9518991Y-13794579D01*
X9518991Y-13794579D02*
X9509468Y-13775531D01*
X9509468Y-13775531D02*
X9499944Y-13746960D01*
X9499944Y-13746960D02*
X9490420Y-13699341D01*
X9490420Y-13699341D02*
X9490420Y-13661246D01*
X9490420Y-13661246D02*
X9499944Y-13613627D01*
X9499944Y-13613627D02*
X9509468Y-13585055D01*
X9509468Y-13585055D02*
X9518991Y-13566008D01*
X9518991Y-13566008D02*
X9538039Y-13537436D01*
X9538039Y-13537436D02*
X9547563Y-13527912D01*
X9614230Y-13575531D02*
X9623753Y-13566008D01*
X9623753Y-13566008D02*
X9642801Y-13556484D01*
X9642801Y-13556484D02*
X9690420Y-13556484D01*
X9690420Y-13556484D02*
X9709468Y-13566008D01*
X9709468Y-13566008D02*
X9718991Y-13575531D01*
X9718991Y-13575531D02*
X9728515Y-13594579D01*
X9728515Y-13594579D02*
X9728515Y-13613627D01*
X9728515Y-13613627D02*
X9718991Y-13642198D01*
X9718991Y-13642198D02*
X9604706Y-13756484D01*
X9604706Y-13756484D02*
X9728515Y-13756484D01*
X9823753Y-13756484D02*
X9861849Y-13756484D01*
X9861849Y-13756484D02*
X9880896Y-13746960D01*
X9880896Y-13746960D02*
X9890420Y-13737436D01*
X9890420Y-13737436D02*
X9909468Y-13708865D01*
X9909468Y-13708865D02*
X9918991Y-13670769D01*
X9918991Y-13670769D02*
X9918991Y-13594579D01*
X9918991Y-13594579D02*
X9909468Y-13575531D01*
X9909468Y-13575531D02*
X9899944Y-13566008D01*
X9899944Y-13566008D02*
X9880896Y-13556484D01*
X9880896Y-13556484D02*
X9842801Y-13556484D01*
X9842801Y-13556484D02*
X9823753Y-13566008D01*
X9823753Y-13566008D02*
X9814230Y-13575531D01*
X9814230Y-13575531D02*
X9804706Y-13594579D01*
X9804706Y-13594579D02*
X9804706Y-13642198D01*
X9804706Y-13642198D02*
X9814230Y-13661246D01*
X9814230Y-13661246D02*
X9823753Y-13670769D01*
X9823753Y-13670769D02*
X9842801Y-13680293D01*
X9842801Y-13680293D02*
X9880896Y-13680293D01*
X9880896Y-13680293D02*
X9899944Y-13670769D01*
X9899944Y-13670769D02*
X9909468Y-13661246D01*
X9909468Y-13661246D02*
X9918991Y-13642198D01*
X10157087Y-13756484D02*
X10157087Y-13556484D01*
X10242801Y-13756484D02*
X10242801Y-13651722D01*
X10242801Y-13651722D02*
X10233277Y-13632674D01*
X10233277Y-13632674D02*
X10214230Y-13623150D01*
X10214230Y-13623150D02*
X10185658Y-13623150D01*
X10185658Y-13623150D02*
X10166611Y-13632674D01*
X10166611Y-13632674D02*
X10157087Y-13642198D01*
X10366611Y-13756484D02*
X10347563Y-13746960D01*
X10347563Y-13746960D02*
X10338039Y-13737436D01*
X10338039Y-13737436D02*
X10328515Y-13718388D01*
X10328515Y-13718388D02*
X10328515Y-13661246D01*
X10328515Y-13661246D02*
X10338039Y-13642198D01*
X10338039Y-13642198D02*
X10347563Y-13632674D01*
X10347563Y-13632674D02*
X10366611Y-13623150D01*
X10366611Y-13623150D02*
X10395182Y-13623150D01*
X10395182Y-13623150D02*
X10414230Y-13632674D01*
X10414230Y-13632674D02*
X10423753Y-13642198D01*
X10423753Y-13642198D02*
X10433277Y-13661246D01*
X10433277Y-13661246D02*
X10433277Y-13718388D01*
X10433277Y-13718388D02*
X10423753Y-13737436D01*
X10423753Y-13737436D02*
X10414230Y-13746960D01*
X10414230Y-13746960D02*
X10395182Y-13756484D01*
X10395182Y-13756484D02*
X10366611Y-13756484D01*
X10547563Y-13756484D02*
X10528515Y-13746960D01*
X10528515Y-13746960D02*
X10518992Y-13727912D01*
X10518992Y-13727912D02*
X10518992Y-13556484D01*
X10699944Y-13746960D02*
X10680896Y-13756484D01*
X10680896Y-13756484D02*
X10642801Y-13756484D01*
X10642801Y-13756484D02*
X10623753Y-13746960D01*
X10623753Y-13746960D02*
X10614230Y-13727912D01*
X10614230Y-13727912D02*
X10614230Y-13651722D01*
X10614230Y-13651722D02*
X10623753Y-13632674D01*
X10623753Y-13632674D02*
X10642801Y-13623150D01*
X10642801Y-13623150D02*
X10680896Y-13623150D01*
X10680896Y-13623150D02*
X10699944Y-13632674D01*
X10699944Y-13632674D02*
X10709468Y-13651722D01*
X10709468Y-13651722D02*
X10709468Y-13670769D01*
X10709468Y-13670769D02*
X10614230Y-13689817D01*
X10785658Y-13746960D02*
X10804706Y-13756484D01*
X10804706Y-13756484D02*
X10842801Y-13756484D01*
X10842801Y-13756484D02*
X10861849Y-13746960D01*
X10861849Y-13746960D02*
X10871373Y-13727912D01*
X10871373Y-13727912D02*
X10871373Y-13718388D01*
X10871373Y-13718388D02*
X10861849Y-13699341D01*
X10861849Y-13699341D02*
X10842801Y-13689817D01*
X10842801Y-13689817D02*
X10814230Y-13689817D01*
X10814230Y-13689817D02*
X10795182Y-13680293D01*
X10795182Y-13680293D02*
X10785658Y-13661246D01*
X10785658Y-13661246D02*
X10785658Y-13651722D01*
X10785658Y-13651722D02*
X10795182Y-13632674D01*
X10795182Y-13632674D02*
X10814230Y-13623150D01*
X10814230Y-13623150D02*
X10842801Y-13623150D01*
X10842801Y-13623150D02*
X10861849Y-13632674D01*
X10938039Y-13832674D02*
X10947563Y-13823150D01*
X10947563Y-13823150D02*
X10966611Y-13794579D01*
X10966611Y-13794579D02*
X10976134Y-13775531D01*
X10976134Y-13775531D02*
X10985658Y-13746960D01*
X10985658Y-13746960D02*
X10995182Y-13699341D01*
X10995182Y-13699341D02*
X10995182Y-13661246D01*
X10995182Y-13661246D02*
X10985658Y-13613627D01*
X10985658Y-13613627D02*
X10976134Y-13585055D01*
X10976134Y-13585055D02*
X10966611Y-13566008D01*
X10966611Y-13566008D02*
X10947563Y-13537436D01*
X10947563Y-13537436D02*
X10938039Y-13527912D01*
D12*
X5972500Y-13929000D02*
G75*
G02*
X5902500Y-13929000I-35000J0D01*
G01*
X5902500Y-13929000D02*
G75*
G02*
X5972500Y-13929000I35000J0D01*
G01*
D11*
X6271372Y-13820484D02*
X6290420Y-13820484D01*
X6290420Y-13820484D02*
X6309467Y-13830008D01*
X6309467Y-13830008D02*
X6318991Y-13839531D01*
X6318991Y-13839531D02*
X6328515Y-13858579D01*
X6328515Y-13858579D02*
X6338039Y-13896674D01*
X6338039Y-13896674D02*
X6338039Y-13944293D01*
X6338039Y-13944293D02*
X6328515Y-13982388D01*
X6328515Y-13982388D02*
X6318991Y-14001436D01*
X6318991Y-14001436D02*
X6309467Y-14010960D01*
X6309467Y-14010960D02*
X6290420Y-14020484D01*
X6290420Y-14020484D02*
X6271372Y-14020484D01*
X6271372Y-14020484D02*
X6252324Y-14010960D01*
X6252324Y-14010960D02*
X6242801Y-14001436D01*
X6242801Y-14001436D02*
X6233277Y-13982388D01*
X6233277Y-13982388D02*
X6223753Y-13944293D01*
X6223753Y-13944293D02*
X6223753Y-13896674D01*
X6223753Y-13896674D02*
X6233277Y-13858579D01*
X6233277Y-13858579D02*
X6242801Y-13839531D01*
X6242801Y-13839531D02*
X6252324Y-13830008D01*
X6252324Y-13830008D02*
X6271372Y-13820484D01*
X6423753Y-14001436D02*
X6433277Y-14010960D01*
X6433277Y-14010960D02*
X6423753Y-14020484D01*
X6423753Y-14020484D02*
X6414229Y-14010960D01*
X6414229Y-14010960D02*
X6423753Y-14001436D01*
X6423753Y-14001436D02*
X6423753Y-14020484D01*
X6499943Y-13820484D02*
X6633277Y-13820484D01*
X6633277Y-13820484D02*
X6547562Y-14020484D01*
X6747562Y-13820484D02*
X6766610Y-13820484D01*
X6766610Y-13820484D02*
X6785658Y-13830008D01*
X6785658Y-13830008D02*
X6795182Y-13839531D01*
X6795182Y-13839531D02*
X6804705Y-13858579D01*
X6804705Y-13858579D02*
X6814229Y-13896674D01*
X6814229Y-13896674D02*
X6814229Y-13944293D01*
X6814229Y-13944293D02*
X6804705Y-13982388D01*
X6804705Y-13982388D02*
X6795182Y-14001436D01*
X6795182Y-14001436D02*
X6785658Y-14010960D01*
X6785658Y-14010960D02*
X6766610Y-14020484D01*
X6766610Y-14020484D02*
X6747562Y-14020484D01*
X6747562Y-14020484D02*
X6728515Y-14010960D01*
X6728515Y-14010960D02*
X6718991Y-14001436D01*
X6718991Y-14001436D02*
X6709467Y-13982388D01*
X6709467Y-13982388D02*
X6699943Y-13944293D01*
X6699943Y-13944293D02*
X6699943Y-13896674D01*
X6699943Y-13896674D02*
X6709467Y-13858579D01*
X6709467Y-13858579D02*
X6718991Y-13839531D01*
X6718991Y-13839531D02*
X6728515Y-13830008D01*
X6728515Y-13830008D02*
X6747562Y-13820484D01*
X6938039Y-13820484D02*
X6957086Y-13820484D01*
X6957086Y-13820484D02*
X6976134Y-13830008D01*
X6976134Y-13830008D02*
X6985658Y-13839531D01*
X6985658Y-13839531D02*
X6995182Y-13858579D01*
X6995182Y-13858579D02*
X7004705Y-13896674D01*
X7004705Y-13896674D02*
X7004705Y-13944293D01*
X7004705Y-13944293D02*
X6995182Y-13982388D01*
X6995182Y-13982388D02*
X6985658Y-14001436D01*
X6985658Y-14001436D02*
X6976134Y-14010960D01*
X6976134Y-14010960D02*
X6957086Y-14020484D01*
X6957086Y-14020484D02*
X6938039Y-14020484D01*
X6938039Y-14020484D02*
X6918991Y-14010960D01*
X6918991Y-14010960D02*
X6909467Y-14001436D01*
X6909467Y-14001436D02*
X6899943Y-13982388D01*
X6899943Y-13982388D02*
X6890420Y-13944293D01*
X6890420Y-13944293D02*
X6890420Y-13896674D01*
X6890420Y-13896674D02*
X6899943Y-13858579D01*
X6899943Y-13858579D02*
X6909467Y-13839531D01*
X6909467Y-13839531D02*
X6918991Y-13830008D01*
X6918991Y-13830008D02*
X6938039Y-13820484D01*
X7090420Y-14020484D02*
X7090420Y-13887150D01*
X7090420Y-13906198D02*
X7099943Y-13896674D01*
X7099943Y-13896674D02*
X7118991Y-13887150D01*
X7118991Y-13887150D02*
X7147563Y-13887150D01*
X7147563Y-13887150D02*
X7166610Y-13896674D01*
X7166610Y-13896674D02*
X7176134Y-13915722D01*
X7176134Y-13915722D02*
X7176134Y-14020484D01*
X7176134Y-13915722D02*
X7185658Y-13896674D01*
X7185658Y-13896674D02*
X7204705Y-13887150D01*
X7204705Y-13887150D02*
X7233277Y-13887150D01*
X7233277Y-13887150D02*
X7252324Y-13896674D01*
X7252324Y-13896674D02*
X7261848Y-13915722D01*
X7261848Y-13915722D02*
X7261848Y-14020484D01*
X7357086Y-14020484D02*
X7357086Y-13887150D01*
X7357086Y-13906198D02*
X7366610Y-13896674D01*
X7366610Y-13896674D02*
X7385658Y-13887150D01*
X7385658Y-13887150D02*
X7414229Y-13887150D01*
X7414229Y-13887150D02*
X7433277Y-13896674D01*
X7433277Y-13896674D02*
X7442801Y-13915722D01*
X7442801Y-13915722D02*
X7442801Y-14020484D01*
X7442801Y-13915722D02*
X7452324Y-13896674D01*
X7452324Y-13896674D02*
X7471372Y-13887150D01*
X7471372Y-13887150D02*
X7499943Y-13887150D01*
X7499943Y-13887150D02*
X7518991Y-13896674D01*
X7518991Y-13896674D02*
X7528515Y-13915722D01*
X7528515Y-13915722D02*
X7528515Y-14020484D01*
X7918991Y-13810960D02*
X7747563Y-14068103D01*
X8176134Y-13820484D02*
X8195182Y-13820484D01*
X8195182Y-13820484D02*
X8214229Y-13830008D01*
X8214229Y-13830008D02*
X8223753Y-13839531D01*
X8223753Y-13839531D02*
X8233277Y-13858579D01*
X8233277Y-13858579D02*
X8242801Y-13896674D01*
X8242801Y-13896674D02*
X8242801Y-13944293D01*
X8242801Y-13944293D02*
X8233277Y-13982388D01*
X8233277Y-13982388D02*
X8223753Y-14001436D01*
X8223753Y-14001436D02*
X8214229Y-14010960D01*
X8214229Y-14010960D02*
X8195182Y-14020484D01*
X8195182Y-14020484D02*
X8176134Y-14020484D01*
X8176134Y-14020484D02*
X8157086Y-14010960D01*
X8157086Y-14010960D02*
X8147563Y-14001436D01*
X8147563Y-14001436D02*
X8138039Y-13982388D01*
X8138039Y-13982388D02*
X8128515Y-13944293D01*
X8128515Y-13944293D02*
X8128515Y-13896674D01*
X8128515Y-13896674D02*
X8138039Y-13858579D01*
X8138039Y-13858579D02*
X8147563Y-13839531D01*
X8147563Y-13839531D02*
X8157086Y-13830008D01*
X8157086Y-13830008D02*
X8176134Y-13820484D01*
X8328515Y-14001436D02*
X8338039Y-14010960D01*
X8338039Y-14010960D02*
X8328515Y-14020484D01*
X8328515Y-14020484D02*
X8318991Y-14010960D01*
X8318991Y-14010960D02*
X8328515Y-14001436D01*
X8328515Y-14001436D02*
X8328515Y-14020484D01*
X8461848Y-13820484D02*
X8480896Y-13820484D01*
X8480896Y-13820484D02*
X8499944Y-13830008D01*
X8499944Y-13830008D02*
X8509468Y-13839531D01*
X8509468Y-13839531D02*
X8518991Y-13858579D01*
X8518991Y-13858579D02*
X8528515Y-13896674D01*
X8528515Y-13896674D02*
X8528515Y-13944293D01*
X8528515Y-13944293D02*
X8518991Y-13982388D01*
X8518991Y-13982388D02*
X8509468Y-14001436D01*
X8509468Y-14001436D02*
X8499944Y-14010960D01*
X8499944Y-14010960D02*
X8480896Y-14020484D01*
X8480896Y-14020484D02*
X8461848Y-14020484D01*
X8461848Y-14020484D02*
X8442801Y-14010960D01*
X8442801Y-14010960D02*
X8433277Y-14001436D01*
X8433277Y-14001436D02*
X8423753Y-13982388D01*
X8423753Y-13982388D02*
X8414229Y-13944293D01*
X8414229Y-13944293D02*
X8414229Y-13896674D01*
X8414229Y-13896674D02*
X8423753Y-13858579D01*
X8423753Y-13858579D02*
X8433277Y-13839531D01*
X8433277Y-13839531D02*
X8442801Y-13830008D01*
X8442801Y-13830008D02*
X8461848Y-13820484D01*
X8604706Y-13839531D02*
X8614229Y-13830008D01*
X8614229Y-13830008D02*
X8633277Y-13820484D01*
X8633277Y-13820484D02*
X8680896Y-13820484D01*
X8680896Y-13820484D02*
X8699944Y-13830008D01*
X8699944Y-13830008D02*
X8709468Y-13839531D01*
X8709468Y-13839531D02*
X8718991Y-13858579D01*
X8718991Y-13858579D02*
X8718991Y-13877627D01*
X8718991Y-13877627D02*
X8709468Y-13906198D01*
X8709468Y-13906198D02*
X8595182Y-14020484D01*
X8595182Y-14020484D02*
X8718991Y-14020484D01*
X8785658Y-13820484D02*
X8918991Y-13820484D01*
X8918991Y-13820484D02*
X8833277Y-14020484D01*
X9080896Y-13820484D02*
X9042801Y-13820484D01*
X9042801Y-13820484D02*
X9023753Y-13830008D01*
X9023753Y-13830008D02*
X9014229Y-13839531D01*
X9014229Y-13839531D02*
X8995182Y-13868103D01*
X8995182Y-13868103D02*
X8985658Y-13906198D01*
X8985658Y-13906198D02*
X8985658Y-13982388D01*
X8985658Y-13982388D02*
X8995182Y-14001436D01*
X8995182Y-14001436D02*
X9004706Y-14010960D01*
X9004706Y-14010960D02*
X9023753Y-14020484D01*
X9023753Y-14020484D02*
X9061849Y-14020484D01*
X9061849Y-14020484D02*
X9080896Y-14010960D01*
X9080896Y-14010960D02*
X9090420Y-14001436D01*
X9090420Y-14001436D02*
X9099944Y-13982388D01*
X9099944Y-13982388D02*
X9099944Y-13934769D01*
X9099944Y-13934769D02*
X9090420Y-13915722D01*
X9090420Y-13915722D02*
X9080896Y-13906198D01*
X9080896Y-13906198D02*
X9061849Y-13896674D01*
X9061849Y-13896674D02*
X9023753Y-13896674D01*
X9023753Y-13896674D02*
X9004706Y-13906198D01*
X9004706Y-13906198D02*
X8995182Y-13915722D01*
X8995182Y-13915722D02*
X8985658Y-13934769D01*
X9176134Y-13820484D02*
X9176134Y-13858579D01*
X9252325Y-13820484D02*
X9252325Y-13858579D01*
X9547563Y-14096674D02*
X9538039Y-14087150D01*
X9538039Y-14087150D02*
X9518991Y-14058579D01*
X9518991Y-14058579D02*
X9509468Y-14039531D01*
X9509468Y-14039531D02*
X9499944Y-14010960D01*
X9499944Y-14010960D02*
X9490420Y-13963341D01*
X9490420Y-13963341D02*
X9490420Y-13925246D01*
X9490420Y-13925246D02*
X9499944Y-13877627D01*
X9499944Y-13877627D02*
X9509468Y-13849055D01*
X9509468Y-13849055D02*
X9518991Y-13830008D01*
X9518991Y-13830008D02*
X9538039Y-13801436D01*
X9538039Y-13801436D02*
X9547563Y-13791912D01*
X9728515Y-14020484D02*
X9614230Y-14020484D01*
X9671372Y-14020484D02*
X9671372Y-13820484D01*
X9671372Y-13820484D02*
X9652325Y-13849055D01*
X9652325Y-13849055D02*
X9633277Y-13868103D01*
X9633277Y-13868103D02*
X9614230Y-13877627D01*
X9804706Y-13839531D02*
X9814230Y-13830008D01*
X9814230Y-13830008D02*
X9833277Y-13820484D01*
X9833277Y-13820484D02*
X9880896Y-13820484D01*
X9880896Y-13820484D02*
X9899944Y-13830008D01*
X9899944Y-13830008D02*
X9909468Y-13839531D01*
X9909468Y-13839531D02*
X9918991Y-13858579D01*
X9918991Y-13858579D02*
X9918991Y-13877627D01*
X9918991Y-13877627D02*
X9909468Y-13906198D01*
X9909468Y-13906198D02*
X9795182Y-14020484D01*
X9795182Y-14020484D02*
X9918991Y-14020484D01*
X10157087Y-14020484D02*
X10157087Y-13820484D01*
X10242801Y-14020484D02*
X10242801Y-13915722D01*
X10242801Y-13915722D02*
X10233277Y-13896674D01*
X10233277Y-13896674D02*
X10214230Y-13887150D01*
X10214230Y-13887150D02*
X10185658Y-13887150D01*
X10185658Y-13887150D02*
X10166611Y-13896674D01*
X10166611Y-13896674D02*
X10157087Y-13906198D01*
X10366611Y-14020484D02*
X10347563Y-14010960D01*
X10347563Y-14010960D02*
X10338039Y-14001436D01*
X10338039Y-14001436D02*
X10328515Y-13982388D01*
X10328515Y-13982388D02*
X10328515Y-13925246D01*
X10328515Y-13925246D02*
X10338039Y-13906198D01*
X10338039Y-13906198D02*
X10347563Y-13896674D01*
X10347563Y-13896674D02*
X10366611Y-13887150D01*
X10366611Y-13887150D02*
X10395182Y-13887150D01*
X10395182Y-13887150D02*
X10414230Y-13896674D01*
X10414230Y-13896674D02*
X10423753Y-13906198D01*
X10423753Y-13906198D02*
X10433277Y-13925246D01*
X10433277Y-13925246D02*
X10433277Y-13982388D01*
X10433277Y-13982388D02*
X10423753Y-14001436D01*
X10423753Y-14001436D02*
X10414230Y-14010960D01*
X10414230Y-14010960D02*
X10395182Y-14020484D01*
X10395182Y-14020484D02*
X10366611Y-14020484D01*
X10547563Y-14020484D02*
X10528515Y-14010960D01*
X10528515Y-14010960D02*
X10518992Y-13991912D01*
X10518992Y-13991912D02*
X10518992Y-13820484D01*
X10699944Y-14010960D02*
X10680896Y-14020484D01*
X10680896Y-14020484D02*
X10642801Y-14020484D01*
X10642801Y-14020484D02*
X10623753Y-14010960D01*
X10623753Y-14010960D02*
X10614230Y-13991912D01*
X10614230Y-13991912D02*
X10614230Y-13915722D01*
X10614230Y-13915722D02*
X10623753Y-13896674D01*
X10623753Y-13896674D02*
X10642801Y-13887150D01*
X10642801Y-13887150D02*
X10680896Y-13887150D01*
X10680896Y-13887150D02*
X10699944Y-13896674D01*
X10699944Y-13896674D02*
X10709468Y-13915722D01*
X10709468Y-13915722D02*
X10709468Y-13934769D01*
X10709468Y-13934769D02*
X10614230Y-13953817D01*
X10785658Y-14010960D02*
X10804706Y-14020484D01*
X10804706Y-14020484D02*
X10842801Y-14020484D01*
X10842801Y-14020484D02*
X10861849Y-14010960D01*
X10861849Y-14010960D02*
X10871373Y-13991912D01*
X10871373Y-13991912D02*
X10871373Y-13982388D01*
X10871373Y-13982388D02*
X10861849Y-13963341D01*
X10861849Y-13963341D02*
X10842801Y-13953817D01*
X10842801Y-13953817D02*
X10814230Y-13953817D01*
X10814230Y-13953817D02*
X10795182Y-13944293D01*
X10795182Y-13944293D02*
X10785658Y-13925246D01*
X10785658Y-13925246D02*
X10785658Y-13915722D01*
X10785658Y-13915722D02*
X10795182Y-13896674D01*
X10795182Y-13896674D02*
X10814230Y-13887150D01*
X10814230Y-13887150D02*
X10842801Y-13887150D01*
X10842801Y-13887150D02*
X10861849Y-13896674D01*
X10938039Y-14096674D02*
X10947563Y-14087150D01*
X10947563Y-14087150D02*
X10966611Y-14058579D01*
X10966611Y-14058579D02*
X10976134Y-14039531D01*
X10976134Y-14039531D02*
X10985658Y-14010960D01*
X10985658Y-14010960D02*
X10995182Y-13963341D01*
X10995182Y-13963341D02*
X10995182Y-13925246D01*
X10995182Y-13925246D02*
X10985658Y-13877627D01*
X10985658Y-13877627D02*
X10976134Y-13849055D01*
X10976134Y-13849055D02*
X10966611Y-13830008D01*
X10966611Y-13830008D02*
X10947563Y-13801436D01*
X10947563Y-13801436D02*
X10938039Y-13791912D01*
D12*
X5932500Y-14153000D02*
X5932500Y-14233000D01*
X5892500Y-14193000D02*
X5972500Y-14193000D01*
D11*
X6271372Y-14084484D02*
X6290420Y-14084484D01*
X6290420Y-14084484D02*
X6309467Y-14094008D01*
X6309467Y-14094008D02*
X6318991Y-14103531D01*
X6318991Y-14103531D02*
X6328515Y-14122579D01*
X6328515Y-14122579D02*
X6338039Y-14160674D01*
X6338039Y-14160674D02*
X6338039Y-14208293D01*
X6338039Y-14208293D02*
X6328515Y-14246388D01*
X6328515Y-14246388D02*
X6318991Y-14265436D01*
X6318991Y-14265436D02*
X6309467Y-14274960D01*
X6309467Y-14274960D02*
X6290420Y-14284484D01*
X6290420Y-14284484D02*
X6271372Y-14284484D01*
X6271372Y-14284484D02*
X6252324Y-14274960D01*
X6252324Y-14274960D02*
X6242801Y-14265436D01*
X6242801Y-14265436D02*
X6233277Y-14246388D01*
X6233277Y-14246388D02*
X6223753Y-14208293D01*
X6223753Y-14208293D02*
X6223753Y-14160674D01*
X6223753Y-14160674D02*
X6233277Y-14122579D01*
X6233277Y-14122579D02*
X6242801Y-14103531D01*
X6242801Y-14103531D02*
X6252324Y-14094008D01*
X6252324Y-14094008D02*
X6271372Y-14084484D01*
X6423753Y-14265436D02*
X6433277Y-14274960D01*
X6433277Y-14274960D02*
X6423753Y-14284484D01*
X6423753Y-14284484D02*
X6414229Y-14274960D01*
X6414229Y-14274960D02*
X6423753Y-14265436D01*
X6423753Y-14265436D02*
X6423753Y-14284484D01*
X6547562Y-14170198D02*
X6528515Y-14160674D01*
X6528515Y-14160674D02*
X6518991Y-14151150D01*
X6518991Y-14151150D02*
X6509467Y-14132103D01*
X6509467Y-14132103D02*
X6509467Y-14122579D01*
X6509467Y-14122579D02*
X6518991Y-14103531D01*
X6518991Y-14103531D02*
X6528515Y-14094008D01*
X6528515Y-14094008D02*
X6547562Y-14084484D01*
X6547562Y-14084484D02*
X6585658Y-14084484D01*
X6585658Y-14084484D02*
X6604705Y-14094008D01*
X6604705Y-14094008D02*
X6614229Y-14103531D01*
X6614229Y-14103531D02*
X6623753Y-14122579D01*
X6623753Y-14122579D02*
X6623753Y-14132103D01*
X6623753Y-14132103D02*
X6614229Y-14151150D01*
X6614229Y-14151150D02*
X6604705Y-14160674D01*
X6604705Y-14160674D02*
X6585658Y-14170198D01*
X6585658Y-14170198D02*
X6547562Y-14170198D01*
X6547562Y-14170198D02*
X6528515Y-14179722D01*
X6528515Y-14179722D02*
X6518991Y-14189246D01*
X6518991Y-14189246D02*
X6509467Y-14208293D01*
X6509467Y-14208293D02*
X6509467Y-14246388D01*
X6509467Y-14246388D02*
X6518991Y-14265436D01*
X6518991Y-14265436D02*
X6528515Y-14274960D01*
X6528515Y-14274960D02*
X6547562Y-14284484D01*
X6547562Y-14284484D02*
X6585658Y-14284484D01*
X6585658Y-14284484D02*
X6604705Y-14274960D01*
X6604705Y-14274960D02*
X6614229Y-14265436D01*
X6614229Y-14265436D02*
X6623753Y-14246388D01*
X6623753Y-14246388D02*
X6623753Y-14208293D01*
X6623753Y-14208293D02*
X6614229Y-14189246D01*
X6614229Y-14189246D02*
X6604705Y-14179722D01*
X6604705Y-14179722D02*
X6585658Y-14170198D01*
X6747562Y-14084484D02*
X6766610Y-14084484D01*
X6766610Y-14084484D02*
X6785658Y-14094008D01*
X6785658Y-14094008D02*
X6795182Y-14103531D01*
X6795182Y-14103531D02*
X6804705Y-14122579D01*
X6804705Y-14122579D02*
X6814229Y-14160674D01*
X6814229Y-14160674D02*
X6814229Y-14208293D01*
X6814229Y-14208293D02*
X6804705Y-14246388D01*
X6804705Y-14246388D02*
X6795182Y-14265436D01*
X6795182Y-14265436D02*
X6785658Y-14274960D01*
X6785658Y-14274960D02*
X6766610Y-14284484D01*
X6766610Y-14284484D02*
X6747562Y-14284484D01*
X6747562Y-14284484D02*
X6728515Y-14274960D01*
X6728515Y-14274960D02*
X6718991Y-14265436D01*
X6718991Y-14265436D02*
X6709467Y-14246388D01*
X6709467Y-14246388D02*
X6699943Y-14208293D01*
X6699943Y-14208293D02*
X6699943Y-14160674D01*
X6699943Y-14160674D02*
X6709467Y-14122579D01*
X6709467Y-14122579D02*
X6718991Y-14103531D01*
X6718991Y-14103531D02*
X6728515Y-14094008D01*
X6728515Y-14094008D02*
X6747562Y-14084484D01*
X6938039Y-14084484D02*
X6957086Y-14084484D01*
X6957086Y-14084484D02*
X6976134Y-14094008D01*
X6976134Y-14094008D02*
X6985658Y-14103531D01*
X6985658Y-14103531D02*
X6995182Y-14122579D01*
X6995182Y-14122579D02*
X7004705Y-14160674D01*
X7004705Y-14160674D02*
X7004705Y-14208293D01*
X7004705Y-14208293D02*
X6995182Y-14246388D01*
X6995182Y-14246388D02*
X6985658Y-14265436D01*
X6985658Y-14265436D02*
X6976134Y-14274960D01*
X6976134Y-14274960D02*
X6957086Y-14284484D01*
X6957086Y-14284484D02*
X6938039Y-14284484D01*
X6938039Y-14284484D02*
X6918991Y-14274960D01*
X6918991Y-14274960D02*
X6909467Y-14265436D01*
X6909467Y-14265436D02*
X6899943Y-14246388D01*
X6899943Y-14246388D02*
X6890420Y-14208293D01*
X6890420Y-14208293D02*
X6890420Y-14160674D01*
X6890420Y-14160674D02*
X6899943Y-14122579D01*
X6899943Y-14122579D02*
X6909467Y-14103531D01*
X6909467Y-14103531D02*
X6918991Y-14094008D01*
X6918991Y-14094008D02*
X6938039Y-14084484D01*
X7090420Y-14284484D02*
X7090420Y-14151150D01*
X7090420Y-14170198D02*
X7099943Y-14160674D01*
X7099943Y-14160674D02*
X7118991Y-14151150D01*
X7118991Y-14151150D02*
X7147563Y-14151150D01*
X7147563Y-14151150D02*
X7166610Y-14160674D01*
X7166610Y-14160674D02*
X7176134Y-14179722D01*
X7176134Y-14179722D02*
X7176134Y-14284484D01*
X7176134Y-14179722D02*
X7185658Y-14160674D01*
X7185658Y-14160674D02*
X7204705Y-14151150D01*
X7204705Y-14151150D02*
X7233277Y-14151150D01*
X7233277Y-14151150D02*
X7252324Y-14160674D01*
X7252324Y-14160674D02*
X7261848Y-14179722D01*
X7261848Y-14179722D02*
X7261848Y-14284484D01*
X7357086Y-14284484D02*
X7357086Y-14151150D01*
X7357086Y-14170198D02*
X7366610Y-14160674D01*
X7366610Y-14160674D02*
X7385658Y-14151150D01*
X7385658Y-14151150D02*
X7414229Y-14151150D01*
X7414229Y-14151150D02*
X7433277Y-14160674D01*
X7433277Y-14160674D02*
X7442801Y-14179722D01*
X7442801Y-14179722D02*
X7442801Y-14284484D01*
X7442801Y-14179722D02*
X7452324Y-14160674D01*
X7452324Y-14160674D02*
X7471372Y-14151150D01*
X7471372Y-14151150D02*
X7499943Y-14151150D01*
X7499943Y-14151150D02*
X7518991Y-14160674D01*
X7518991Y-14160674D02*
X7528515Y-14179722D01*
X7528515Y-14179722D02*
X7528515Y-14284484D01*
X7918991Y-14074960D02*
X7747563Y-14332103D01*
X8176134Y-14084484D02*
X8195182Y-14084484D01*
X8195182Y-14084484D02*
X8214229Y-14094008D01*
X8214229Y-14094008D02*
X8223753Y-14103531D01*
X8223753Y-14103531D02*
X8233277Y-14122579D01*
X8233277Y-14122579D02*
X8242801Y-14160674D01*
X8242801Y-14160674D02*
X8242801Y-14208293D01*
X8242801Y-14208293D02*
X8233277Y-14246388D01*
X8233277Y-14246388D02*
X8223753Y-14265436D01*
X8223753Y-14265436D02*
X8214229Y-14274960D01*
X8214229Y-14274960D02*
X8195182Y-14284484D01*
X8195182Y-14284484D02*
X8176134Y-14284484D01*
X8176134Y-14284484D02*
X8157086Y-14274960D01*
X8157086Y-14274960D02*
X8147563Y-14265436D01*
X8147563Y-14265436D02*
X8138039Y-14246388D01*
X8138039Y-14246388D02*
X8128515Y-14208293D01*
X8128515Y-14208293D02*
X8128515Y-14160674D01*
X8128515Y-14160674D02*
X8138039Y-14122579D01*
X8138039Y-14122579D02*
X8147563Y-14103531D01*
X8147563Y-14103531D02*
X8157086Y-14094008D01*
X8157086Y-14094008D02*
X8176134Y-14084484D01*
X8328515Y-14265436D02*
X8338039Y-14274960D01*
X8338039Y-14274960D02*
X8328515Y-14284484D01*
X8328515Y-14284484D02*
X8318991Y-14274960D01*
X8318991Y-14274960D02*
X8328515Y-14265436D01*
X8328515Y-14265436D02*
X8328515Y-14284484D01*
X8461848Y-14084484D02*
X8480896Y-14084484D01*
X8480896Y-14084484D02*
X8499944Y-14094008D01*
X8499944Y-14094008D02*
X8509468Y-14103531D01*
X8509468Y-14103531D02*
X8518991Y-14122579D01*
X8518991Y-14122579D02*
X8528515Y-14160674D01*
X8528515Y-14160674D02*
X8528515Y-14208293D01*
X8528515Y-14208293D02*
X8518991Y-14246388D01*
X8518991Y-14246388D02*
X8509468Y-14265436D01*
X8509468Y-14265436D02*
X8499944Y-14274960D01*
X8499944Y-14274960D02*
X8480896Y-14284484D01*
X8480896Y-14284484D02*
X8461848Y-14284484D01*
X8461848Y-14284484D02*
X8442801Y-14274960D01*
X8442801Y-14274960D02*
X8433277Y-14265436D01*
X8433277Y-14265436D02*
X8423753Y-14246388D01*
X8423753Y-14246388D02*
X8414229Y-14208293D01*
X8414229Y-14208293D02*
X8414229Y-14160674D01*
X8414229Y-14160674D02*
X8423753Y-14122579D01*
X8423753Y-14122579D02*
X8433277Y-14103531D01*
X8433277Y-14103531D02*
X8442801Y-14094008D01*
X8442801Y-14094008D02*
X8461848Y-14084484D01*
X8595182Y-14084484D02*
X8718991Y-14084484D01*
X8718991Y-14084484D02*
X8652325Y-14160674D01*
X8652325Y-14160674D02*
X8680896Y-14160674D01*
X8680896Y-14160674D02*
X8699944Y-14170198D01*
X8699944Y-14170198D02*
X8709468Y-14179722D01*
X8709468Y-14179722D02*
X8718991Y-14198769D01*
X8718991Y-14198769D02*
X8718991Y-14246388D01*
X8718991Y-14246388D02*
X8709468Y-14265436D01*
X8709468Y-14265436D02*
X8699944Y-14274960D01*
X8699944Y-14274960D02*
X8680896Y-14284484D01*
X8680896Y-14284484D02*
X8623753Y-14284484D01*
X8623753Y-14284484D02*
X8604706Y-14274960D01*
X8604706Y-14274960D02*
X8595182Y-14265436D01*
X8909468Y-14284484D02*
X8795182Y-14284484D01*
X8852325Y-14284484D02*
X8852325Y-14084484D01*
X8852325Y-14084484D02*
X8833277Y-14113055D01*
X8833277Y-14113055D02*
X8814229Y-14132103D01*
X8814229Y-14132103D02*
X8795182Y-14141627D01*
X9090420Y-14084484D02*
X8995182Y-14084484D01*
X8995182Y-14084484D02*
X8985658Y-14179722D01*
X8985658Y-14179722D02*
X8995182Y-14170198D01*
X8995182Y-14170198D02*
X9014229Y-14160674D01*
X9014229Y-14160674D02*
X9061849Y-14160674D01*
X9061849Y-14160674D02*
X9080896Y-14170198D01*
X9080896Y-14170198D02*
X9090420Y-14179722D01*
X9090420Y-14179722D02*
X9099944Y-14198769D01*
X9099944Y-14198769D02*
X9099944Y-14246388D01*
X9099944Y-14246388D02*
X9090420Y-14265436D01*
X9090420Y-14265436D02*
X9080896Y-14274960D01*
X9080896Y-14274960D02*
X9061849Y-14284484D01*
X9061849Y-14284484D02*
X9014229Y-14284484D01*
X9014229Y-14284484D02*
X8995182Y-14274960D01*
X8995182Y-14274960D02*
X8985658Y-14265436D01*
X9176134Y-14084484D02*
X9176134Y-14122579D01*
X9252325Y-14084484D02*
X9252325Y-14122579D01*
X9547563Y-14360674D02*
X9538039Y-14351150D01*
X9538039Y-14351150D02*
X9518991Y-14322579D01*
X9518991Y-14322579D02*
X9509468Y-14303531D01*
X9509468Y-14303531D02*
X9499944Y-14274960D01*
X9499944Y-14274960D02*
X9490420Y-14227341D01*
X9490420Y-14227341D02*
X9490420Y-14189246D01*
X9490420Y-14189246D02*
X9499944Y-14141627D01*
X9499944Y-14141627D02*
X9509468Y-14113055D01*
X9509468Y-14113055D02*
X9518991Y-14094008D01*
X9518991Y-14094008D02*
X9538039Y-14065436D01*
X9538039Y-14065436D02*
X9547563Y-14055912D01*
X9709468Y-14151150D02*
X9709468Y-14284484D01*
X9661849Y-14074960D02*
X9614230Y-14217817D01*
X9614230Y-14217817D02*
X9738039Y-14217817D01*
X9966611Y-14284484D02*
X9966611Y-14084484D01*
X10052325Y-14284484D02*
X10052325Y-14179722D01*
X10052325Y-14179722D02*
X10042801Y-14160674D01*
X10042801Y-14160674D02*
X10023753Y-14151150D01*
X10023753Y-14151150D02*
X9995182Y-14151150D01*
X9995182Y-14151150D02*
X9976134Y-14160674D01*
X9976134Y-14160674D02*
X9966611Y-14170198D01*
X10176134Y-14284484D02*
X10157087Y-14274960D01*
X10157087Y-14274960D02*
X10147563Y-14265436D01*
X10147563Y-14265436D02*
X10138039Y-14246388D01*
X10138039Y-14246388D02*
X10138039Y-14189246D01*
X10138039Y-14189246D02*
X10147563Y-14170198D01*
X10147563Y-14170198D02*
X10157087Y-14160674D01*
X10157087Y-14160674D02*
X10176134Y-14151150D01*
X10176134Y-14151150D02*
X10204706Y-14151150D01*
X10204706Y-14151150D02*
X10223753Y-14160674D01*
X10223753Y-14160674D02*
X10233277Y-14170198D01*
X10233277Y-14170198D02*
X10242801Y-14189246D01*
X10242801Y-14189246D02*
X10242801Y-14246388D01*
X10242801Y-14246388D02*
X10233277Y-14265436D01*
X10233277Y-14265436D02*
X10223753Y-14274960D01*
X10223753Y-14274960D02*
X10204706Y-14284484D01*
X10204706Y-14284484D02*
X10176134Y-14284484D01*
X10357087Y-14284484D02*
X10338039Y-14274960D01*
X10338039Y-14274960D02*
X10328515Y-14255912D01*
X10328515Y-14255912D02*
X10328515Y-14084484D01*
X10509468Y-14274960D02*
X10490420Y-14284484D01*
X10490420Y-14284484D02*
X10452325Y-14284484D01*
X10452325Y-14284484D02*
X10433277Y-14274960D01*
X10433277Y-14274960D02*
X10423753Y-14255912D01*
X10423753Y-14255912D02*
X10423753Y-14179722D01*
X10423753Y-14179722D02*
X10433277Y-14160674D01*
X10433277Y-14160674D02*
X10452325Y-14151150D01*
X10452325Y-14151150D02*
X10490420Y-14151150D01*
X10490420Y-14151150D02*
X10509468Y-14160674D01*
X10509468Y-14160674D02*
X10518992Y-14179722D01*
X10518992Y-14179722D02*
X10518992Y-14198769D01*
X10518992Y-14198769D02*
X10423753Y-14217817D01*
X10595182Y-14274960D02*
X10614230Y-14284484D01*
X10614230Y-14284484D02*
X10652325Y-14284484D01*
X10652325Y-14284484D02*
X10671373Y-14274960D01*
X10671373Y-14274960D02*
X10680896Y-14255912D01*
X10680896Y-14255912D02*
X10680896Y-14246388D01*
X10680896Y-14246388D02*
X10671373Y-14227341D01*
X10671373Y-14227341D02*
X10652325Y-14217817D01*
X10652325Y-14217817D02*
X10623753Y-14217817D01*
X10623753Y-14217817D02*
X10604706Y-14208293D01*
X10604706Y-14208293D02*
X10595182Y-14189246D01*
X10595182Y-14189246D02*
X10595182Y-14179722D01*
X10595182Y-14179722D02*
X10604706Y-14160674D01*
X10604706Y-14160674D02*
X10623753Y-14151150D01*
X10623753Y-14151150D02*
X10652325Y-14151150D01*
X10652325Y-14151150D02*
X10671373Y-14160674D01*
X10747563Y-14360674D02*
X10757087Y-14351150D01*
X10757087Y-14351150D02*
X10776134Y-14322579D01*
X10776134Y-14322579D02*
X10785658Y-14303531D01*
X10785658Y-14303531D02*
X10795182Y-14274960D01*
X10795182Y-14274960D02*
X10804706Y-14227341D01*
X10804706Y-14227341D02*
X10804706Y-14189246D01*
X10804706Y-14189246D02*
X10795182Y-14141627D01*
X10795182Y-14141627D02*
X10785658Y-14113055D01*
X10785658Y-14113055D02*
X10776134Y-14094008D01*
X10776134Y-14094008D02*
X10757087Y-14065436D01*
X10757087Y-14065436D02*
X10747563Y-14055912D01*
D12*
X5960052Y-14487052D02*
X5960052Y-14426948D01*
X5899948Y-14426948D01*
X5899948Y-14487052D01*
X5960052Y-14487052D01*
D11*
X6271372Y-14348484D02*
X6290420Y-14348484D01*
X6290420Y-14348484D02*
X6309467Y-14358008D01*
X6309467Y-14358008D02*
X6318991Y-14367531D01*
X6318991Y-14367531D02*
X6328515Y-14386579D01*
X6328515Y-14386579D02*
X6338039Y-14424674D01*
X6338039Y-14424674D02*
X6338039Y-14472293D01*
X6338039Y-14472293D02*
X6328515Y-14510388D01*
X6328515Y-14510388D02*
X6318991Y-14529436D01*
X6318991Y-14529436D02*
X6309467Y-14538960D01*
X6309467Y-14538960D02*
X6290420Y-14548484D01*
X6290420Y-14548484D02*
X6271372Y-14548484D01*
X6271372Y-14548484D02*
X6252324Y-14538960D01*
X6252324Y-14538960D02*
X6242801Y-14529436D01*
X6242801Y-14529436D02*
X6233277Y-14510388D01*
X6233277Y-14510388D02*
X6223753Y-14472293D01*
X6223753Y-14472293D02*
X6223753Y-14424674D01*
X6223753Y-14424674D02*
X6233277Y-14386579D01*
X6233277Y-14386579D02*
X6242801Y-14367531D01*
X6242801Y-14367531D02*
X6252324Y-14358008D01*
X6252324Y-14358008D02*
X6271372Y-14348484D01*
X6423753Y-14529436D02*
X6433277Y-14538960D01*
X6433277Y-14538960D02*
X6423753Y-14548484D01*
X6423753Y-14548484D02*
X6414229Y-14538960D01*
X6414229Y-14538960D02*
X6423753Y-14529436D01*
X6423753Y-14529436D02*
X6423753Y-14548484D01*
X6547562Y-14434198D02*
X6528515Y-14424674D01*
X6528515Y-14424674D02*
X6518991Y-14415150D01*
X6518991Y-14415150D02*
X6509467Y-14396103D01*
X6509467Y-14396103D02*
X6509467Y-14386579D01*
X6509467Y-14386579D02*
X6518991Y-14367531D01*
X6518991Y-14367531D02*
X6528515Y-14358008D01*
X6528515Y-14358008D02*
X6547562Y-14348484D01*
X6547562Y-14348484D02*
X6585658Y-14348484D01*
X6585658Y-14348484D02*
X6604705Y-14358008D01*
X6604705Y-14358008D02*
X6614229Y-14367531D01*
X6614229Y-14367531D02*
X6623753Y-14386579D01*
X6623753Y-14386579D02*
X6623753Y-14396103D01*
X6623753Y-14396103D02*
X6614229Y-14415150D01*
X6614229Y-14415150D02*
X6604705Y-14424674D01*
X6604705Y-14424674D02*
X6585658Y-14434198D01*
X6585658Y-14434198D02*
X6547562Y-14434198D01*
X6547562Y-14434198D02*
X6528515Y-14443722D01*
X6528515Y-14443722D02*
X6518991Y-14453246D01*
X6518991Y-14453246D02*
X6509467Y-14472293D01*
X6509467Y-14472293D02*
X6509467Y-14510388D01*
X6509467Y-14510388D02*
X6518991Y-14529436D01*
X6518991Y-14529436D02*
X6528515Y-14538960D01*
X6528515Y-14538960D02*
X6547562Y-14548484D01*
X6547562Y-14548484D02*
X6585658Y-14548484D01*
X6585658Y-14548484D02*
X6604705Y-14538960D01*
X6604705Y-14538960D02*
X6614229Y-14529436D01*
X6614229Y-14529436D02*
X6623753Y-14510388D01*
X6623753Y-14510388D02*
X6623753Y-14472293D01*
X6623753Y-14472293D02*
X6614229Y-14453246D01*
X6614229Y-14453246D02*
X6604705Y-14443722D01*
X6604705Y-14443722D02*
X6585658Y-14434198D01*
X6804705Y-14348484D02*
X6709467Y-14348484D01*
X6709467Y-14348484D02*
X6699943Y-14443722D01*
X6699943Y-14443722D02*
X6709467Y-14434198D01*
X6709467Y-14434198D02*
X6728515Y-14424674D01*
X6728515Y-14424674D02*
X6776134Y-14424674D01*
X6776134Y-14424674D02*
X6795182Y-14434198D01*
X6795182Y-14434198D02*
X6804705Y-14443722D01*
X6804705Y-14443722D02*
X6814229Y-14462769D01*
X6814229Y-14462769D02*
X6814229Y-14510388D01*
X6814229Y-14510388D02*
X6804705Y-14529436D01*
X6804705Y-14529436D02*
X6795182Y-14538960D01*
X6795182Y-14538960D02*
X6776134Y-14548484D01*
X6776134Y-14548484D02*
X6728515Y-14548484D01*
X6728515Y-14548484D02*
X6709467Y-14538960D01*
X6709467Y-14538960D02*
X6699943Y-14529436D01*
X6938039Y-14348484D02*
X6957086Y-14348484D01*
X6957086Y-14348484D02*
X6976134Y-14358008D01*
X6976134Y-14358008D02*
X6985658Y-14367531D01*
X6985658Y-14367531D02*
X6995182Y-14386579D01*
X6995182Y-14386579D02*
X7004705Y-14424674D01*
X7004705Y-14424674D02*
X7004705Y-14472293D01*
X7004705Y-14472293D02*
X6995182Y-14510388D01*
X6995182Y-14510388D02*
X6985658Y-14529436D01*
X6985658Y-14529436D02*
X6976134Y-14538960D01*
X6976134Y-14538960D02*
X6957086Y-14548484D01*
X6957086Y-14548484D02*
X6938039Y-14548484D01*
X6938039Y-14548484D02*
X6918991Y-14538960D01*
X6918991Y-14538960D02*
X6909467Y-14529436D01*
X6909467Y-14529436D02*
X6899943Y-14510388D01*
X6899943Y-14510388D02*
X6890420Y-14472293D01*
X6890420Y-14472293D02*
X6890420Y-14424674D01*
X6890420Y-14424674D02*
X6899943Y-14386579D01*
X6899943Y-14386579D02*
X6909467Y-14367531D01*
X6909467Y-14367531D02*
X6918991Y-14358008D01*
X6918991Y-14358008D02*
X6938039Y-14348484D01*
X7090420Y-14548484D02*
X7090420Y-14415150D01*
X7090420Y-14434198D02*
X7099943Y-14424674D01*
X7099943Y-14424674D02*
X7118991Y-14415150D01*
X7118991Y-14415150D02*
X7147563Y-14415150D01*
X7147563Y-14415150D02*
X7166610Y-14424674D01*
X7166610Y-14424674D02*
X7176134Y-14443722D01*
X7176134Y-14443722D02*
X7176134Y-14548484D01*
X7176134Y-14443722D02*
X7185658Y-14424674D01*
X7185658Y-14424674D02*
X7204705Y-14415150D01*
X7204705Y-14415150D02*
X7233277Y-14415150D01*
X7233277Y-14415150D02*
X7252324Y-14424674D01*
X7252324Y-14424674D02*
X7261848Y-14443722D01*
X7261848Y-14443722D02*
X7261848Y-14548484D01*
X7357086Y-14548484D02*
X7357086Y-14415150D01*
X7357086Y-14434198D02*
X7366610Y-14424674D01*
X7366610Y-14424674D02*
X7385658Y-14415150D01*
X7385658Y-14415150D02*
X7414229Y-14415150D01*
X7414229Y-14415150D02*
X7433277Y-14424674D01*
X7433277Y-14424674D02*
X7442801Y-14443722D01*
X7442801Y-14443722D02*
X7442801Y-14548484D01*
X7442801Y-14443722D02*
X7452324Y-14424674D01*
X7452324Y-14424674D02*
X7471372Y-14415150D01*
X7471372Y-14415150D02*
X7499943Y-14415150D01*
X7499943Y-14415150D02*
X7518991Y-14424674D01*
X7518991Y-14424674D02*
X7528515Y-14443722D01*
X7528515Y-14443722D02*
X7528515Y-14548484D01*
X7918991Y-14338960D02*
X7747563Y-14596103D01*
X8176134Y-14348484D02*
X8195182Y-14348484D01*
X8195182Y-14348484D02*
X8214229Y-14358008D01*
X8214229Y-14358008D02*
X8223753Y-14367531D01*
X8223753Y-14367531D02*
X8233277Y-14386579D01*
X8233277Y-14386579D02*
X8242801Y-14424674D01*
X8242801Y-14424674D02*
X8242801Y-14472293D01*
X8242801Y-14472293D02*
X8233277Y-14510388D01*
X8233277Y-14510388D02*
X8223753Y-14529436D01*
X8223753Y-14529436D02*
X8214229Y-14538960D01*
X8214229Y-14538960D02*
X8195182Y-14548484D01*
X8195182Y-14548484D02*
X8176134Y-14548484D01*
X8176134Y-14548484D02*
X8157086Y-14538960D01*
X8157086Y-14538960D02*
X8147563Y-14529436D01*
X8147563Y-14529436D02*
X8138039Y-14510388D01*
X8138039Y-14510388D02*
X8128515Y-14472293D01*
X8128515Y-14472293D02*
X8128515Y-14424674D01*
X8128515Y-14424674D02*
X8138039Y-14386579D01*
X8138039Y-14386579D02*
X8147563Y-14367531D01*
X8147563Y-14367531D02*
X8157086Y-14358008D01*
X8157086Y-14358008D02*
X8176134Y-14348484D01*
X8328515Y-14529436D02*
X8338039Y-14538960D01*
X8338039Y-14538960D02*
X8328515Y-14548484D01*
X8328515Y-14548484D02*
X8318991Y-14538960D01*
X8318991Y-14538960D02*
X8328515Y-14529436D01*
X8328515Y-14529436D02*
X8328515Y-14548484D01*
X8461848Y-14348484D02*
X8480896Y-14348484D01*
X8480896Y-14348484D02*
X8499944Y-14358008D01*
X8499944Y-14358008D02*
X8509468Y-14367531D01*
X8509468Y-14367531D02*
X8518991Y-14386579D01*
X8518991Y-14386579D02*
X8528515Y-14424674D01*
X8528515Y-14424674D02*
X8528515Y-14472293D01*
X8528515Y-14472293D02*
X8518991Y-14510388D01*
X8518991Y-14510388D02*
X8509468Y-14529436D01*
X8509468Y-14529436D02*
X8499944Y-14538960D01*
X8499944Y-14538960D02*
X8480896Y-14548484D01*
X8480896Y-14548484D02*
X8461848Y-14548484D01*
X8461848Y-14548484D02*
X8442801Y-14538960D01*
X8442801Y-14538960D02*
X8433277Y-14529436D01*
X8433277Y-14529436D02*
X8423753Y-14510388D01*
X8423753Y-14510388D02*
X8414229Y-14472293D01*
X8414229Y-14472293D02*
X8414229Y-14424674D01*
X8414229Y-14424674D02*
X8423753Y-14386579D01*
X8423753Y-14386579D02*
X8433277Y-14367531D01*
X8433277Y-14367531D02*
X8442801Y-14358008D01*
X8442801Y-14358008D02*
X8461848Y-14348484D01*
X8595182Y-14348484D02*
X8718991Y-14348484D01*
X8718991Y-14348484D02*
X8652325Y-14424674D01*
X8652325Y-14424674D02*
X8680896Y-14424674D01*
X8680896Y-14424674D02*
X8699944Y-14434198D01*
X8699944Y-14434198D02*
X8709468Y-14443722D01*
X8709468Y-14443722D02*
X8718991Y-14462769D01*
X8718991Y-14462769D02*
X8718991Y-14510388D01*
X8718991Y-14510388D02*
X8709468Y-14529436D01*
X8709468Y-14529436D02*
X8699944Y-14538960D01*
X8699944Y-14538960D02*
X8680896Y-14548484D01*
X8680896Y-14548484D02*
X8623753Y-14548484D01*
X8623753Y-14548484D02*
X8604706Y-14538960D01*
X8604706Y-14538960D02*
X8595182Y-14529436D01*
X8785658Y-14348484D02*
X8909468Y-14348484D01*
X8909468Y-14348484D02*
X8842801Y-14424674D01*
X8842801Y-14424674D02*
X8871372Y-14424674D01*
X8871372Y-14424674D02*
X8890420Y-14434198D01*
X8890420Y-14434198D02*
X8899944Y-14443722D01*
X8899944Y-14443722D02*
X8909468Y-14462769D01*
X8909468Y-14462769D02*
X8909468Y-14510388D01*
X8909468Y-14510388D02*
X8899944Y-14529436D01*
X8899944Y-14529436D02*
X8890420Y-14538960D01*
X8890420Y-14538960D02*
X8871372Y-14548484D01*
X8871372Y-14548484D02*
X8814229Y-14548484D01*
X8814229Y-14548484D02*
X8795182Y-14538960D01*
X8795182Y-14538960D02*
X8785658Y-14529436D01*
X9090420Y-14348484D02*
X8995182Y-14348484D01*
X8995182Y-14348484D02*
X8985658Y-14443722D01*
X8985658Y-14443722D02*
X8995182Y-14434198D01*
X8995182Y-14434198D02*
X9014229Y-14424674D01*
X9014229Y-14424674D02*
X9061849Y-14424674D01*
X9061849Y-14424674D02*
X9080896Y-14434198D01*
X9080896Y-14434198D02*
X9090420Y-14443722D01*
X9090420Y-14443722D02*
X9099944Y-14462769D01*
X9099944Y-14462769D02*
X9099944Y-14510388D01*
X9099944Y-14510388D02*
X9090420Y-14529436D01*
X9090420Y-14529436D02*
X9080896Y-14538960D01*
X9080896Y-14538960D02*
X9061849Y-14548484D01*
X9061849Y-14548484D02*
X9014229Y-14548484D01*
X9014229Y-14548484D02*
X8995182Y-14538960D01*
X8995182Y-14538960D02*
X8985658Y-14529436D01*
X9176134Y-14348484D02*
X9176134Y-14386579D01*
X9252325Y-14348484D02*
X9252325Y-14386579D01*
X9547563Y-14624674D02*
X9538039Y-14615150D01*
X9538039Y-14615150D02*
X9518991Y-14586579D01*
X9518991Y-14586579D02*
X9509468Y-14567531D01*
X9509468Y-14567531D02*
X9499944Y-14538960D01*
X9499944Y-14538960D02*
X9490420Y-14491341D01*
X9490420Y-14491341D02*
X9490420Y-14453246D01*
X9490420Y-14453246D02*
X9499944Y-14405627D01*
X9499944Y-14405627D02*
X9509468Y-14377055D01*
X9509468Y-14377055D02*
X9518991Y-14358008D01*
X9518991Y-14358008D02*
X9538039Y-14329436D01*
X9538039Y-14329436D02*
X9547563Y-14319912D01*
X9728515Y-14548484D02*
X9614230Y-14548484D01*
X9671372Y-14548484D02*
X9671372Y-14348484D01*
X9671372Y-14348484D02*
X9652325Y-14377055D01*
X9652325Y-14377055D02*
X9633277Y-14396103D01*
X9633277Y-14396103D02*
X9614230Y-14405627D01*
X9852325Y-14348484D02*
X9871372Y-14348484D01*
X9871372Y-14348484D02*
X9890420Y-14358008D01*
X9890420Y-14358008D02*
X9899944Y-14367531D01*
X9899944Y-14367531D02*
X9909468Y-14386579D01*
X9909468Y-14386579D02*
X9918991Y-14424674D01*
X9918991Y-14424674D02*
X9918991Y-14472293D01*
X9918991Y-14472293D02*
X9909468Y-14510388D01*
X9909468Y-14510388D02*
X9899944Y-14529436D01*
X9899944Y-14529436D02*
X9890420Y-14538960D01*
X9890420Y-14538960D02*
X9871372Y-14548484D01*
X9871372Y-14548484D02*
X9852325Y-14548484D01*
X9852325Y-14548484D02*
X9833277Y-14538960D01*
X9833277Y-14538960D02*
X9823753Y-14529436D01*
X9823753Y-14529436D02*
X9814230Y-14510388D01*
X9814230Y-14510388D02*
X9804706Y-14472293D01*
X9804706Y-14472293D02*
X9804706Y-14424674D01*
X9804706Y-14424674D02*
X9814230Y-14386579D01*
X9814230Y-14386579D02*
X9823753Y-14367531D01*
X9823753Y-14367531D02*
X9833277Y-14358008D01*
X9833277Y-14358008D02*
X9852325Y-14348484D01*
X10157087Y-14548484D02*
X10157087Y-14348484D01*
X10242801Y-14548484D02*
X10242801Y-14443722D01*
X10242801Y-14443722D02*
X10233277Y-14424674D01*
X10233277Y-14424674D02*
X10214230Y-14415150D01*
X10214230Y-14415150D02*
X10185658Y-14415150D01*
X10185658Y-14415150D02*
X10166611Y-14424674D01*
X10166611Y-14424674D02*
X10157087Y-14434198D01*
X10366611Y-14548484D02*
X10347563Y-14538960D01*
X10347563Y-14538960D02*
X10338039Y-14529436D01*
X10338039Y-14529436D02*
X10328515Y-14510388D01*
X10328515Y-14510388D02*
X10328515Y-14453246D01*
X10328515Y-14453246D02*
X10338039Y-14434198D01*
X10338039Y-14434198D02*
X10347563Y-14424674D01*
X10347563Y-14424674D02*
X10366611Y-14415150D01*
X10366611Y-14415150D02*
X10395182Y-14415150D01*
X10395182Y-14415150D02*
X10414230Y-14424674D01*
X10414230Y-14424674D02*
X10423753Y-14434198D01*
X10423753Y-14434198D02*
X10433277Y-14453246D01*
X10433277Y-14453246D02*
X10433277Y-14510388D01*
X10433277Y-14510388D02*
X10423753Y-14529436D01*
X10423753Y-14529436D02*
X10414230Y-14538960D01*
X10414230Y-14538960D02*
X10395182Y-14548484D01*
X10395182Y-14548484D02*
X10366611Y-14548484D01*
X10547563Y-14548484D02*
X10528515Y-14538960D01*
X10528515Y-14538960D02*
X10518992Y-14519912D01*
X10518992Y-14519912D02*
X10518992Y-14348484D01*
X10699944Y-14538960D02*
X10680896Y-14548484D01*
X10680896Y-14548484D02*
X10642801Y-14548484D01*
X10642801Y-14548484D02*
X10623753Y-14538960D01*
X10623753Y-14538960D02*
X10614230Y-14519912D01*
X10614230Y-14519912D02*
X10614230Y-14443722D01*
X10614230Y-14443722D02*
X10623753Y-14424674D01*
X10623753Y-14424674D02*
X10642801Y-14415150D01*
X10642801Y-14415150D02*
X10680896Y-14415150D01*
X10680896Y-14415150D02*
X10699944Y-14424674D01*
X10699944Y-14424674D02*
X10709468Y-14443722D01*
X10709468Y-14443722D02*
X10709468Y-14462769D01*
X10709468Y-14462769D02*
X10614230Y-14481817D01*
X10785658Y-14538960D02*
X10804706Y-14548484D01*
X10804706Y-14548484D02*
X10842801Y-14548484D01*
X10842801Y-14548484D02*
X10861849Y-14538960D01*
X10861849Y-14538960D02*
X10871373Y-14519912D01*
X10871373Y-14519912D02*
X10871373Y-14510388D01*
X10871373Y-14510388D02*
X10861849Y-14491341D01*
X10861849Y-14491341D02*
X10842801Y-14481817D01*
X10842801Y-14481817D02*
X10814230Y-14481817D01*
X10814230Y-14481817D02*
X10795182Y-14472293D01*
X10795182Y-14472293D02*
X10785658Y-14453246D01*
X10785658Y-14453246D02*
X10785658Y-14443722D01*
X10785658Y-14443722D02*
X10795182Y-14424674D01*
X10795182Y-14424674D02*
X10814230Y-14415150D01*
X10814230Y-14415150D02*
X10842801Y-14415150D01*
X10842801Y-14415150D02*
X10861849Y-14424674D01*
X10938039Y-14624674D02*
X10947563Y-14615150D01*
X10947563Y-14615150D02*
X10966611Y-14586579D01*
X10966611Y-14586579D02*
X10976134Y-14567531D01*
X10976134Y-14567531D02*
X10985658Y-14538960D01*
X10985658Y-14538960D02*
X10995182Y-14491341D01*
X10995182Y-14491341D02*
X10995182Y-14453246D01*
X10995182Y-14453246D02*
X10985658Y-14405627D01*
X10985658Y-14405627D02*
X10976134Y-14377055D01*
X10976134Y-14377055D02*
X10966611Y-14358008D01*
X10966611Y-14358008D02*
X10947563Y-14329436D01*
X10947563Y-14329436D02*
X10938039Y-14319912D01*
D12*
X5922500Y-14771000D02*
X5972500Y-14721000D01*
X5922500Y-14671000D01*
X5872500Y-14721000D01*
X5922500Y-14771000D01*
D11*
X6338039Y-14812484D02*
X6223753Y-14812484D01*
X6280896Y-14812484D02*
X6280896Y-14612484D01*
X6280896Y-14612484D02*
X6261848Y-14641055D01*
X6261848Y-14641055D02*
X6242801Y-14660103D01*
X6242801Y-14660103D02*
X6223753Y-14669627D01*
X6423753Y-14793436D02*
X6433277Y-14802960D01*
X6433277Y-14802960D02*
X6423753Y-14812484D01*
X6423753Y-14812484D02*
X6414229Y-14802960D01*
X6414229Y-14802960D02*
X6423753Y-14793436D01*
X6423753Y-14793436D02*
X6423753Y-14812484D01*
X6557086Y-14612484D02*
X6576134Y-14612484D01*
X6576134Y-14612484D02*
X6595182Y-14622008D01*
X6595182Y-14622008D02*
X6604705Y-14631531D01*
X6604705Y-14631531D02*
X6614229Y-14650579D01*
X6614229Y-14650579D02*
X6623753Y-14688674D01*
X6623753Y-14688674D02*
X6623753Y-14736293D01*
X6623753Y-14736293D02*
X6614229Y-14774388D01*
X6614229Y-14774388D02*
X6604705Y-14793436D01*
X6604705Y-14793436D02*
X6595182Y-14802960D01*
X6595182Y-14802960D02*
X6576134Y-14812484D01*
X6576134Y-14812484D02*
X6557086Y-14812484D01*
X6557086Y-14812484D02*
X6538039Y-14802960D01*
X6538039Y-14802960D02*
X6528515Y-14793436D01*
X6528515Y-14793436D02*
X6518991Y-14774388D01*
X6518991Y-14774388D02*
X6509467Y-14736293D01*
X6509467Y-14736293D02*
X6509467Y-14688674D01*
X6509467Y-14688674D02*
X6518991Y-14650579D01*
X6518991Y-14650579D02*
X6528515Y-14631531D01*
X6528515Y-14631531D02*
X6538039Y-14622008D01*
X6538039Y-14622008D02*
X6557086Y-14612484D01*
X6747562Y-14612484D02*
X6766610Y-14612484D01*
X6766610Y-14612484D02*
X6785658Y-14622008D01*
X6785658Y-14622008D02*
X6795182Y-14631531D01*
X6795182Y-14631531D02*
X6804705Y-14650579D01*
X6804705Y-14650579D02*
X6814229Y-14688674D01*
X6814229Y-14688674D02*
X6814229Y-14736293D01*
X6814229Y-14736293D02*
X6804705Y-14774388D01*
X6804705Y-14774388D02*
X6795182Y-14793436D01*
X6795182Y-14793436D02*
X6785658Y-14802960D01*
X6785658Y-14802960D02*
X6766610Y-14812484D01*
X6766610Y-14812484D02*
X6747562Y-14812484D01*
X6747562Y-14812484D02*
X6728515Y-14802960D01*
X6728515Y-14802960D02*
X6718991Y-14793436D01*
X6718991Y-14793436D02*
X6709467Y-14774388D01*
X6709467Y-14774388D02*
X6699943Y-14736293D01*
X6699943Y-14736293D02*
X6699943Y-14688674D01*
X6699943Y-14688674D02*
X6709467Y-14650579D01*
X6709467Y-14650579D02*
X6718991Y-14631531D01*
X6718991Y-14631531D02*
X6728515Y-14622008D01*
X6728515Y-14622008D02*
X6747562Y-14612484D01*
X6938039Y-14612484D02*
X6957086Y-14612484D01*
X6957086Y-14612484D02*
X6976134Y-14622008D01*
X6976134Y-14622008D02*
X6985658Y-14631531D01*
X6985658Y-14631531D02*
X6995182Y-14650579D01*
X6995182Y-14650579D02*
X7004705Y-14688674D01*
X7004705Y-14688674D02*
X7004705Y-14736293D01*
X7004705Y-14736293D02*
X6995182Y-14774388D01*
X6995182Y-14774388D02*
X6985658Y-14793436D01*
X6985658Y-14793436D02*
X6976134Y-14802960D01*
X6976134Y-14802960D02*
X6957086Y-14812484D01*
X6957086Y-14812484D02*
X6938039Y-14812484D01*
X6938039Y-14812484D02*
X6918991Y-14802960D01*
X6918991Y-14802960D02*
X6909467Y-14793436D01*
X6909467Y-14793436D02*
X6899943Y-14774388D01*
X6899943Y-14774388D02*
X6890420Y-14736293D01*
X6890420Y-14736293D02*
X6890420Y-14688674D01*
X6890420Y-14688674D02*
X6899943Y-14650579D01*
X6899943Y-14650579D02*
X6909467Y-14631531D01*
X6909467Y-14631531D02*
X6918991Y-14622008D01*
X6918991Y-14622008D02*
X6938039Y-14612484D01*
X7090420Y-14812484D02*
X7090420Y-14679150D01*
X7090420Y-14698198D02*
X7099943Y-14688674D01*
X7099943Y-14688674D02*
X7118991Y-14679150D01*
X7118991Y-14679150D02*
X7147563Y-14679150D01*
X7147563Y-14679150D02*
X7166610Y-14688674D01*
X7166610Y-14688674D02*
X7176134Y-14707722D01*
X7176134Y-14707722D02*
X7176134Y-14812484D01*
X7176134Y-14707722D02*
X7185658Y-14688674D01*
X7185658Y-14688674D02*
X7204705Y-14679150D01*
X7204705Y-14679150D02*
X7233277Y-14679150D01*
X7233277Y-14679150D02*
X7252324Y-14688674D01*
X7252324Y-14688674D02*
X7261848Y-14707722D01*
X7261848Y-14707722D02*
X7261848Y-14812484D01*
X7357086Y-14812484D02*
X7357086Y-14679150D01*
X7357086Y-14698198D02*
X7366610Y-14688674D01*
X7366610Y-14688674D02*
X7385658Y-14679150D01*
X7385658Y-14679150D02*
X7414229Y-14679150D01*
X7414229Y-14679150D02*
X7433277Y-14688674D01*
X7433277Y-14688674D02*
X7442801Y-14707722D01*
X7442801Y-14707722D02*
X7442801Y-14812484D01*
X7442801Y-14707722D02*
X7452324Y-14688674D01*
X7452324Y-14688674D02*
X7471372Y-14679150D01*
X7471372Y-14679150D02*
X7499943Y-14679150D01*
X7499943Y-14679150D02*
X7518991Y-14688674D01*
X7518991Y-14688674D02*
X7528515Y-14707722D01*
X7528515Y-14707722D02*
X7528515Y-14812484D01*
X7918991Y-14602960D02*
X7747563Y-14860103D01*
X8176134Y-14612484D02*
X8195182Y-14612484D01*
X8195182Y-14612484D02*
X8214229Y-14622008D01*
X8214229Y-14622008D02*
X8223753Y-14631531D01*
X8223753Y-14631531D02*
X8233277Y-14650579D01*
X8233277Y-14650579D02*
X8242801Y-14688674D01*
X8242801Y-14688674D02*
X8242801Y-14736293D01*
X8242801Y-14736293D02*
X8233277Y-14774388D01*
X8233277Y-14774388D02*
X8223753Y-14793436D01*
X8223753Y-14793436D02*
X8214229Y-14802960D01*
X8214229Y-14802960D02*
X8195182Y-14812484D01*
X8195182Y-14812484D02*
X8176134Y-14812484D01*
X8176134Y-14812484D02*
X8157086Y-14802960D01*
X8157086Y-14802960D02*
X8147563Y-14793436D01*
X8147563Y-14793436D02*
X8138039Y-14774388D01*
X8138039Y-14774388D02*
X8128515Y-14736293D01*
X8128515Y-14736293D02*
X8128515Y-14688674D01*
X8128515Y-14688674D02*
X8138039Y-14650579D01*
X8138039Y-14650579D02*
X8147563Y-14631531D01*
X8147563Y-14631531D02*
X8157086Y-14622008D01*
X8157086Y-14622008D02*
X8176134Y-14612484D01*
X8328515Y-14793436D02*
X8338039Y-14802960D01*
X8338039Y-14802960D02*
X8328515Y-14812484D01*
X8328515Y-14812484D02*
X8318991Y-14802960D01*
X8318991Y-14802960D02*
X8328515Y-14793436D01*
X8328515Y-14793436D02*
X8328515Y-14812484D01*
X8461848Y-14612484D02*
X8480896Y-14612484D01*
X8480896Y-14612484D02*
X8499944Y-14622008D01*
X8499944Y-14622008D02*
X8509468Y-14631531D01*
X8509468Y-14631531D02*
X8518991Y-14650579D01*
X8518991Y-14650579D02*
X8528515Y-14688674D01*
X8528515Y-14688674D02*
X8528515Y-14736293D01*
X8528515Y-14736293D02*
X8518991Y-14774388D01*
X8518991Y-14774388D02*
X8509468Y-14793436D01*
X8509468Y-14793436D02*
X8499944Y-14802960D01*
X8499944Y-14802960D02*
X8480896Y-14812484D01*
X8480896Y-14812484D02*
X8461848Y-14812484D01*
X8461848Y-14812484D02*
X8442801Y-14802960D01*
X8442801Y-14802960D02*
X8433277Y-14793436D01*
X8433277Y-14793436D02*
X8423753Y-14774388D01*
X8423753Y-14774388D02*
X8414229Y-14736293D01*
X8414229Y-14736293D02*
X8414229Y-14688674D01*
X8414229Y-14688674D02*
X8423753Y-14650579D01*
X8423753Y-14650579D02*
X8433277Y-14631531D01*
X8433277Y-14631531D02*
X8442801Y-14622008D01*
X8442801Y-14622008D02*
X8461848Y-14612484D01*
X8595182Y-14612484D02*
X8718991Y-14612484D01*
X8718991Y-14612484D02*
X8652325Y-14688674D01*
X8652325Y-14688674D02*
X8680896Y-14688674D01*
X8680896Y-14688674D02*
X8699944Y-14698198D01*
X8699944Y-14698198D02*
X8709468Y-14707722D01*
X8709468Y-14707722D02*
X8718991Y-14726769D01*
X8718991Y-14726769D02*
X8718991Y-14774388D01*
X8718991Y-14774388D02*
X8709468Y-14793436D01*
X8709468Y-14793436D02*
X8699944Y-14802960D01*
X8699944Y-14802960D02*
X8680896Y-14812484D01*
X8680896Y-14812484D02*
X8623753Y-14812484D01*
X8623753Y-14812484D02*
X8604706Y-14802960D01*
X8604706Y-14802960D02*
X8595182Y-14793436D01*
X8814229Y-14812484D02*
X8852325Y-14812484D01*
X8852325Y-14812484D02*
X8871372Y-14802960D01*
X8871372Y-14802960D02*
X8880896Y-14793436D01*
X8880896Y-14793436D02*
X8899944Y-14764865D01*
X8899944Y-14764865D02*
X8909468Y-14726769D01*
X8909468Y-14726769D02*
X8909468Y-14650579D01*
X8909468Y-14650579D02*
X8899944Y-14631531D01*
X8899944Y-14631531D02*
X8890420Y-14622008D01*
X8890420Y-14622008D02*
X8871372Y-14612484D01*
X8871372Y-14612484D02*
X8833277Y-14612484D01*
X8833277Y-14612484D02*
X8814229Y-14622008D01*
X8814229Y-14622008D02*
X8804706Y-14631531D01*
X8804706Y-14631531D02*
X8795182Y-14650579D01*
X8795182Y-14650579D02*
X8795182Y-14698198D01*
X8795182Y-14698198D02*
X8804706Y-14717246D01*
X8804706Y-14717246D02*
X8814229Y-14726769D01*
X8814229Y-14726769D02*
X8833277Y-14736293D01*
X8833277Y-14736293D02*
X8871372Y-14736293D01*
X8871372Y-14736293D02*
X8890420Y-14726769D01*
X8890420Y-14726769D02*
X8899944Y-14717246D01*
X8899944Y-14717246D02*
X8909468Y-14698198D01*
X9080896Y-14679150D02*
X9080896Y-14812484D01*
X9033277Y-14602960D02*
X8985658Y-14745817D01*
X8985658Y-14745817D02*
X9109468Y-14745817D01*
X9176134Y-14612484D02*
X9176134Y-14650579D01*
X9252325Y-14612484D02*
X9252325Y-14650579D01*
X9547563Y-14888674D02*
X9538039Y-14879150D01*
X9538039Y-14879150D02*
X9518991Y-14850579D01*
X9518991Y-14850579D02*
X9509468Y-14831531D01*
X9509468Y-14831531D02*
X9499944Y-14802960D01*
X9499944Y-14802960D02*
X9490420Y-14755341D01*
X9490420Y-14755341D02*
X9490420Y-14717246D01*
X9490420Y-14717246D02*
X9499944Y-14669627D01*
X9499944Y-14669627D02*
X9509468Y-14641055D01*
X9509468Y-14641055D02*
X9518991Y-14622008D01*
X9518991Y-14622008D02*
X9538039Y-14593436D01*
X9538039Y-14593436D02*
X9547563Y-14583912D01*
X9728515Y-14812484D02*
X9614230Y-14812484D01*
X9671372Y-14812484D02*
X9671372Y-14612484D01*
X9671372Y-14612484D02*
X9652325Y-14641055D01*
X9652325Y-14641055D02*
X9633277Y-14660103D01*
X9633277Y-14660103D02*
X9614230Y-14669627D01*
X9899944Y-14679150D02*
X9899944Y-14812484D01*
X9852325Y-14602960D02*
X9804706Y-14745817D01*
X9804706Y-14745817D02*
X9928515Y-14745817D01*
X10157087Y-14812484D02*
X10157087Y-14612484D01*
X10242801Y-14812484D02*
X10242801Y-14707722D01*
X10242801Y-14707722D02*
X10233277Y-14688674D01*
X10233277Y-14688674D02*
X10214230Y-14679150D01*
X10214230Y-14679150D02*
X10185658Y-14679150D01*
X10185658Y-14679150D02*
X10166611Y-14688674D01*
X10166611Y-14688674D02*
X10157087Y-14698198D01*
X10366611Y-14812484D02*
X10347563Y-14802960D01*
X10347563Y-14802960D02*
X10338039Y-14793436D01*
X10338039Y-14793436D02*
X10328515Y-14774388D01*
X10328515Y-14774388D02*
X10328515Y-14717246D01*
X10328515Y-14717246D02*
X10338039Y-14698198D01*
X10338039Y-14698198D02*
X10347563Y-14688674D01*
X10347563Y-14688674D02*
X10366611Y-14679150D01*
X10366611Y-14679150D02*
X10395182Y-14679150D01*
X10395182Y-14679150D02*
X10414230Y-14688674D01*
X10414230Y-14688674D02*
X10423753Y-14698198D01*
X10423753Y-14698198D02*
X10433277Y-14717246D01*
X10433277Y-14717246D02*
X10433277Y-14774388D01*
X10433277Y-14774388D02*
X10423753Y-14793436D01*
X10423753Y-14793436D02*
X10414230Y-14802960D01*
X10414230Y-14802960D02*
X10395182Y-14812484D01*
X10395182Y-14812484D02*
X10366611Y-14812484D01*
X10547563Y-14812484D02*
X10528515Y-14802960D01*
X10528515Y-14802960D02*
X10518992Y-14783912D01*
X10518992Y-14783912D02*
X10518992Y-14612484D01*
X10699944Y-14802960D02*
X10680896Y-14812484D01*
X10680896Y-14812484D02*
X10642801Y-14812484D01*
X10642801Y-14812484D02*
X10623753Y-14802960D01*
X10623753Y-14802960D02*
X10614230Y-14783912D01*
X10614230Y-14783912D02*
X10614230Y-14707722D01*
X10614230Y-14707722D02*
X10623753Y-14688674D01*
X10623753Y-14688674D02*
X10642801Y-14679150D01*
X10642801Y-14679150D02*
X10680896Y-14679150D01*
X10680896Y-14679150D02*
X10699944Y-14688674D01*
X10699944Y-14688674D02*
X10709468Y-14707722D01*
X10709468Y-14707722D02*
X10709468Y-14726769D01*
X10709468Y-14726769D02*
X10614230Y-14745817D01*
X10785658Y-14802960D02*
X10804706Y-14812484D01*
X10804706Y-14812484D02*
X10842801Y-14812484D01*
X10842801Y-14812484D02*
X10861849Y-14802960D01*
X10861849Y-14802960D02*
X10871373Y-14783912D01*
X10871373Y-14783912D02*
X10871373Y-14774388D01*
X10871373Y-14774388D02*
X10861849Y-14755341D01*
X10861849Y-14755341D02*
X10842801Y-14745817D01*
X10842801Y-14745817D02*
X10814230Y-14745817D01*
X10814230Y-14745817D02*
X10795182Y-14736293D01*
X10795182Y-14736293D02*
X10785658Y-14717246D01*
X10785658Y-14717246D02*
X10785658Y-14707722D01*
X10785658Y-14707722D02*
X10795182Y-14688674D01*
X10795182Y-14688674D02*
X10814230Y-14679150D01*
X10814230Y-14679150D02*
X10842801Y-14679150D01*
X10842801Y-14679150D02*
X10861849Y-14688674D01*
X10938039Y-14888674D02*
X10947563Y-14879150D01*
X10947563Y-14879150D02*
X10966611Y-14850579D01*
X10966611Y-14850579D02*
X10976134Y-14831531D01*
X10976134Y-14831531D02*
X10985658Y-14802960D01*
X10985658Y-14802960D02*
X10995182Y-14755341D01*
X10995182Y-14755341D02*
X10995182Y-14717246D01*
X10995182Y-14717246D02*
X10985658Y-14669627D01*
X10985658Y-14669627D02*
X10976134Y-14641055D01*
X10976134Y-14641055D02*
X10966611Y-14622008D01*
X10966611Y-14622008D02*
X10947563Y-14593436D01*
X10947563Y-14593436D02*
X10938039Y-14583912D01*
D13*
X5842500Y-14920000D02*
X5972500Y-15050000D01*
X5972500Y-14920000D02*
X5842500Y-15050000D01*
X5972500Y-14985000D02*
G75*
G02*
X5842500Y-14985000I-65000J0D01*
G01*
X5842500Y-14985000D02*
G75*
G02*
X5972500Y-14985000I65000J0D01*
G01*
D11*
X6338039Y-15076484D02*
X6223753Y-15076484D01*
X6280896Y-15076484D02*
X6280896Y-14876484D01*
X6280896Y-14876484D02*
X6261848Y-14905055D01*
X6261848Y-14905055D02*
X6242801Y-14924103D01*
X6242801Y-14924103D02*
X6223753Y-14933627D01*
X6423753Y-15057436D02*
X6433277Y-15066960D01*
X6433277Y-15066960D02*
X6423753Y-15076484D01*
X6423753Y-15076484D02*
X6414229Y-15066960D01*
X6414229Y-15066960D02*
X6423753Y-15057436D01*
X6423753Y-15057436D02*
X6423753Y-15076484D01*
X6499943Y-14876484D02*
X6623753Y-14876484D01*
X6623753Y-14876484D02*
X6557086Y-14952674D01*
X6557086Y-14952674D02*
X6585658Y-14952674D01*
X6585658Y-14952674D02*
X6604705Y-14962198D01*
X6604705Y-14962198D02*
X6614229Y-14971722D01*
X6614229Y-14971722D02*
X6623753Y-14990769D01*
X6623753Y-14990769D02*
X6623753Y-15038388D01*
X6623753Y-15038388D02*
X6614229Y-15057436D01*
X6614229Y-15057436D02*
X6604705Y-15066960D01*
X6604705Y-15066960D02*
X6585658Y-15076484D01*
X6585658Y-15076484D02*
X6528515Y-15076484D01*
X6528515Y-15076484D02*
X6509467Y-15066960D01*
X6509467Y-15066960D02*
X6499943Y-15057436D01*
X6747562Y-14876484D02*
X6766610Y-14876484D01*
X6766610Y-14876484D02*
X6785658Y-14886008D01*
X6785658Y-14886008D02*
X6795182Y-14895531D01*
X6795182Y-14895531D02*
X6804705Y-14914579D01*
X6804705Y-14914579D02*
X6814229Y-14952674D01*
X6814229Y-14952674D02*
X6814229Y-15000293D01*
X6814229Y-15000293D02*
X6804705Y-15038388D01*
X6804705Y-15038388D02*
X6795182Y-15057436D01*
X6795182Y-15057436D02*
X6785658Y-15066960D01*
X6785658Y-15066960D02*
X6766610Y-15076484D01*
X6766610Y-15076484D02*
X6747562Y-15076484D01*
X6747562Y-15076484D02*
X6728515Y-15066960D01*
X6728515Y-15066960D02*
X6718991Y-15057436D01*
X6718991Y-15057436D02*
X6709467Y-15038388D01*
X6709467Y-15038388D02*
X6699943Y-15000293D01*
X6699943Y-15000293D02*
X6699943Y-14952674D01*
X6699943Y-14952674D02*
X6709467Y-14914579D01*
X6709467Y-14914579D02*
X6718991Y-14895531D01*
X6718991Y-14895531D02*
X6728515Y-14886008D01*
X6728515Y-14886008D02*
X6747562Y-14876484D01*
X6938039Y-14876484D02*
X6957086Y-14876484D01*
X6957086Y-14876484D02*
X6976134Y-14886008D01*
X6976134Y-14886008D02*
X6985658Y-14895531D01*
X6985658Y-14895531D02*
X6995182Y-14914579D01*
X6995182Y-14914579D02*
X7004705Y-14952674D01*
X7004705Y-14952674D02*
X7004705Y-15000293D01*
X7004705Y-15000293D02*
X6995182Y-15038388D01*
X6995182Y-15038388D02*
X6985658Y-15057436D01*
X6985658Y-15057436D02*
X6976134Y-15066960D01*
X6976134Y-15066960D02*
X6957086Y-15076484D01*
X6957086Y-15076484D02*
X6938039Y-15076484D01*
X6938039Y-15076484D02*
X6918991Y-15066960D01*
X6918991Y-15066960D02*
X6909467Y-15057436D01*
X6909467Y-15057436D02*
X6899943Y-15038388D01*
X6899943Y-15038388D02*
X6890420Y-15000293D01*
X6890420Y-15000293D02*
X6890420Y-14952674D01*
X6890420Y-14952674D02*
X6899943Y-14914579D01*
X6899943Y-14914579D02*
X6909467Y-14895531D01*
X6909467Y-14895531D02*
X6918991Y-14886008D01*
X6918991Y-14886008D02*
X6938039Y-14876484D01*
X7090420Y-15076484D02*
X7090420Y-14943150D01*
X7090420Y-14962198D02*
X7099943Y-14952674D01*
X7099943Y-14952674D02*
X7118991Y-14943150D01*
X7118991Y-14943150D02*
X7147563Y-14943150D01*
X7147563Y-14943150D02*
X7166610Y-14952674D01*
X7166610Y-14952674D02*
X7176134Y-14971722D01*
X7176134Y-14971722D02*
X7176134Y-15076484D01*
X7176134Y-14971722D02*
X7185658Y-14952674D01*
X7185658Y-14952674D02*
X7204705Y-14943150D01*
X7204705Y-14943150D02*
X7233277Y-14943150D01*
X7233277Y-14943150D02*
X7252324Y-14952674D01*
X7252324Y-14952674D02*
X7261848Y-14971722D01*
X7261848Y-14971722D02*
X7261848Y-15076484D01*
X7357086Y-15076484D02*
X7357086Y-14943150D01*
X7357086Y-14962198D02*
X7366610Y-14952674D01*
X7366610Y-14952674D02*
X7385658Y-14943150D01*
X7385658Y-14943150D02*
X7414229Y-14943150D01*
X7414229Y-14943150D02*
X7433277Y-14952674D01*
X7433277Y-14952674D02*
X7442801Y-14971722D01*
X7442801Y-14971722D02*
X7442801Y-15076484D01*
X7442801Y-14971722D02*
X7452324Y-14952674D01*
X7452324Y-14952674D02*
X7471372Y-14943150D01*
X7471372Y-14943150D02*
X7499943Y-14943150D01*
X7499943Y-14943150D02*
X7518991Y-14952674D01*
X7518991Y-14952674D02*
X7528515Y-14971722D01*
X7528515Y-14971722D02*
X7528515Y-15076484D01*
X7918991Y-14866960D02*
X7747563Y-15124103D01*
X8176134Y-14876484D02*
X8195182Y-14876484D01*
X8195182Y-14876484D02*
X8214229Y-14886008D01*
X8214229Y-14886008D02*
X8223753Y-14895531D01*
X8223753Y-14895531D02*
X8233277Y-14914579D01*
X8233277Y-14914579D02*
X8242801Y-14952674D01*
X8242801Y-14952674D02*
X8242801Y-15000293D01*
X8242801Y-15000293D02*
X8233277Y-15038388D01*
X8233277Y-15038388D02*
X8223753Y-15057436D01*
X8223753Y-15057436D02*
X8214229Y-15066960D01*
X8214229Y-15066960D02*
X8195182Y-15076484D01*
X8195182Y-15076484D02*
X8176134Y-15076484D01*
X8176134Y-15076484D02*
X8157086Y-15066960D01*
X8157086Y-15066960D02*
X8147563Y-15057436D01*
X8147563Y-15057436D02*
X8138039Y-15038388D01*
X8138039Y-15038388D02*
X8128515Y-15000293D01*
X8128515Y-15000293D02*
X8128515Y-14952674D01*
X8128515Y-14952674D02*
X8138039Y-14914579D01*
X8138039Y-14914579D02*
X8147563Y-14895531D01*
X8147563Y-14895531D02*
X8157086Y-14886008D01*
X8157086Y-14886008D02*
X8176134Y-14876484D01*
X8328515Y-15057436D02*
X8338039Y-15066960D01*
X8338039Y-15066960D02*
X8328515Y-15076484D01*
X8328515Y-15076484D02*
X8318991Y-15066960D01*
X8318991Y-15066960D02*
X8328515Y-15057436D01*
X8328515Y-15057436D02*
X8328515Y-15076484D01*
X8461848Y-14876484D02*
X8480896Y-14876484D01*
X8480896Y-14876484D02*
X8499944Y-14886008D01*
X8499944Y-14886008D02*
X8509468Y-14895531D01*
X8509468Y-14895531D02*
X8518991Y-14914579D01*
X8518991Y-14914579D02*
X8528515Y-14952674D01*
X8528515Y-14952674D02*
X8528515Y-15000293D01*
X8528515Y-15000293D02*
X8518991Y-15038388D01*
X8518991Y-15038388D02*
X8509468Y-15057436D01*
X8509468Y-15057436D02*
X8499944Y-15066960D01*
X8499944Y-15066960D02*
X8480896Y-15076484D01*
X8480896Y-15076484D02*
X8461848Y-15076484D01*
X8461848Y-15076484D02*
X8442801Y-15066960D01*
X8442801Y-15066960D02*
X8433277Y-15057436D01*
X8433277Y-15057436D02*
X8423753Y-15038388D01*
X8423753Y-15038388D02*
X8414229Y-15000293D01*
X8414229Y-15000293D02*
X8414229Y-14952674D01*
X8414229Y-14952674D02*
X8423753Y-14914579D01*
X8423753Y-14914579D02*
X8433277Y-14895531D01*
X8433277Y-14895531D02*
X8442801Y-14886008D01*
X8442801Y-14886008D02*
X8461848Y-14876484D01*
X8709468Y-14876484D02*
X8614229Y-14876484D01*
X8614229Y-14876484D02*
X8604706Y-14971722D01*
X8604706Y-14971722D02*
X8614229Y-14962198D01*
X8614229Y-14962198D02*
X8633277Y-14952674D01*
X8633277Y-14952674D02*
X8680896Y-14952674D01*
X8680896Y-14952674D02*
X8699944Y-14962198D01*
X8699944Y-14962198D02*
X8709468Y-14971722D01*
X8709468Y-14971722D02*
X8718991Y-14990769D01*
X8718991Y-14990769D02*
X8718991Y-15038388D01*
X8718991Y-15038388D02*
X8709468Y-15057436D01*
X8709468Y-15057436D02*
X8699944Y-15066960D01*
X8699944Y-15066960D02*
X8680896Y-15076484D01*
X8680896Y-15076484D02*
X8633277Y-15076484D01*
X8633277Y-15076484D02*
X8614229Y-15066960D01*
X8614229Y-15066960D02*
X8604706Y-15057436D01*
X8909468Y-15076484D02*
X8795182Y-15076484D01*
X8852325Y-15076484D02*
X8852325Y-14876484D01*
X8852325Y-14876484D02*
X8833277Y-14905055D01*
X8833277Y-14905055D02*
X8814229Y-14924103D01*
X8814229Y-14924103D02*
X8795182Y-14933627D01*
X8985658Y-14895531D02*
X8995182Y-14886008D01*
X8995182Y-14886008D02*
X9014229Y-14876484D01*
X9014229Y-14876484D02*
X9061849Y-14876484D01*
X9061849Y-14876484D02*
X9080896Y-14886008D01*
X9080896Y-14886008D02*
X9090420Y-14895531D01*
X9090420Y-14895531D02*
X9099944Y-14914579D01*
X9099944Y-14914579D02*
X9099944Y-14933627D01*
X9099944Y-14933627D02*
X9090420Y-14962198D01*
X9090420Y-14962198D02*
X8976134Y-15076484D01*
X8976134Y-15076484D02*
X9099944Y-15076484D01*
X9176134Y-14876484D02*
X9176134Y-14914579D01*
X9252325Y-14876484D02*
X9252325Y-14914579D01*
X9547563Y-15152674D02*
X9538039Y-15143150D01*
X9538039Y-15143150D02*
X9518991Y-15114579D01*
X9518991Y-15114579D02*
X9509468Y-15095531D01*
X9509468Y-15095531D02*
X9499944Y-15066960D01*
X9499944Y-15066960D02*
X9490420Y-15019341D01*
X9490420Y-15019341D02*
X9490420Y-14981246D01*
X9490420Y-14981246D02*
X9499944Y-14933627D01*
X9499944Y-14933627D02*
X9509468Y-14905055D01*
X9509468Y-14905055D02*
X9518991Y-14886008D01*
X9518991Y-14886008D02*
X9538039Y-14857436D01*
X9538039Y-14857436D02*
X9547563Y-14847912D01*
X9728515Y-15076484D02*
X9614230Y-15076484D01*
X9671372Y-15076484D02*
X9671372Y-14876484D01*
X9671372Y-14876484D02*
X9652325Y-14905055D01*
X9652325Y-14905055D02*
X9633277Y-14924103D01*
X9633277Y-14924103D02*
X9614230Y-14933627D01*
X9899944Y-14943150D02*
X9899944Y-15076484D01*
X9852325Y-14866960D02*
X9804706Y-15009817D01*
X9804706Y-15009817D02*
X9928515Y-15009817D01*
X10157087Y-15076484D02*
X10157087Y-14876484D01*
X10242801Y-15076484D02*
X10242801Y-14971722D01*
X10242801Y-14971722D02*
X10233277Y-14952674D01*
X10233277Y-14952674D02*
X10214230Y-14943150D01*
X10214230Y-14943150D02*
X10185658Y-14943150D01*
X10185658Y-14943150D02*
X10166611Y-14952674D01*
X10166611Y-14952674D02*
X10157087Y-14962198D01*
X10366611Y-15076484D02*
X10347563Y-15066960D01*
X10347563Y-15066960D02*
X10338039Y-15057436D01*
X10338039Y-15057436D02*
X10328515Y-15038388D01*
X10328515Y-15038388D02*
X10328515Y-14981246D01*
X10328515Y-14981246D02*
X10338039Y-14962198D01*
X10338039Y-14962198D02*
X10347563Y-14952674D01*
X10347563Y-14952674D02*
X10366611Y-14943150D01*
X10366611Y-14943150D02*
X10395182Y-14943150D01*
X10395182Y-14943150D02*
X10414230Y-14952674D01*
X10414230Y-14952674D02*
X10423753Y-14962198D01*
X10423753Y-14962198D02*
X10433277Y-14981246D01*
X10433277Y-14981246D02*
X10433277Y-15038388D01*
X10433277Y-15038388D02*
X10423753Y-15057436D01*
X10423753Y-15057436D02*
X10414230Y-15066960D01*
X10414230Y-15066960D02*
X10395182Y-15076484D01*
X10395182Y-15076484D02*
X10366611Y-15076484D01*
X10547563Y-15076484D02*
X10528515Y-15066960D01*
X10528515Y-15066960D02*
X10518992Y-15047912D01*
X10518992Y-15047912D02*
X10518992Y-14876484D01*
X10699944Y-15066960D02*
X10680896Y-15076484D01*
X10680896Y-15076484D02*
X10642801Y-15076484D01*
X10642801Y-15076484D02*
X10623753Y-15066960D01*
X10623753Y-15066960D02*
X10614230Y-15047912D01*
X10614230Y-15047912D02*
X10614230Y-14971722D01*
X10614230Y-14971722D02*
X10623753Y-14952674D01*
X10623753Y-14952674D02*
X10642801Y-14943150D01*
X10642801Y-14943150D02*
X10680896Y-14943150D01*
X10680896Y-14943150D02*
X10699944Y-14952674D01*
X10699944Y-14952674D02*
X10709468Y-14971722D01*
X10709468Y-14971722D02*
X10709468Y-14990769D01*
X10709468Y-14990769D02*
X10614230Y-15009817D01*
X10785658Y-15066960D02*
X10804706Y-15076484D01*
X10804706Y-15076484D02*
X10842801Y-15076484D01*
X10842801Y-15076484D02*
X10861849Y-15066960D01*
X10861849Y-15066960D02*
X10871373Y-15047912D01*
X10871373Y-15047912D02*
X10871373Y-15038388D01*
X10871373Y-15038388D02*
X10861849Y-15019341D01*
X10861849Y-15019341D02*
X10842801Y-15009817D01*
X10842801Y-15009817D02*
X10814230Y-15009817D01*
X10814230Y-15009817D02*
X10795182Y-15000293D01*
X10795182Y-15000293D02*
X10785658Y-14981246D01*
X10785658Y-14981246D02*
X10785658Y-14971722D01*
X10785658Y-14971722D02*
X10795182Y-14952674D01*
X10795182Y-14952674D02*
X10814230Y-14943150D01*
X10814230Y-14943150D02*
X10842801Y-14943150D01*
X10842801Y-14943150D02*
X10861849Y-14952674D01*
X10938039Y-15152674D02*
X10947563Y-15143150D01*
X10947563Y-15143150D02*
X10966611Y-15114579D01*
X10966611Y-15114579D02*
X10976134Y-15095531D01*
X10976134Y-15095531D02*
X10985658Y-15066960D01*
X10985658Y-15066960D02*
X10995182Y-15019341D01*
X10995182Y-15019341D02*
X10995182Y-14981246D01*
X10995182Y-14981246D02*
X10985658Y-14933627D01*
X10985658Y-14933627D02*
X10976134Y-14905055D01*
X10976134Y-14905055D02*
X10966611Y-14886008D01*
X10966611Y-14886008D02*
X10947563Y-14857436D01*
X10947563Y-14857436D02*
X10938039Y-14847912D01*
D14*
X5822500Y-15174000D02*
X5972500Y-15324000D01*
X5972500Y-15174000D02*
X5822500Y-15324000D01*
X5897500Y-15174000D02*
X5897500Y-15324000D01*
X5822500Y-15249000D02*
X5972500Y-15249000D01*
D11*
X6338039Y-15340484D02*
X6223753Y-15340484D01*
X6280896Y-15340484D02*
X6280896Y-15140484D01*
X6280896Y-15140484D02*
X6261848Y-15169055D01*
X6261848Y-15169055D02*
X6242801Y-15188103D01*
X6242801Y-15188103D02*
X6223753Y-15197627D01*
X6423753Y-15321436D02*
X6433277Y-15330960D01*
X6433277Y-15330960D02*
X6423753Y-15340484D01*
X6423753Y-15340484D02*
X6414229Y-15330960D01*
X6414229Y-15330960D02*
X6423753Y-15321436D01*
X6423753Y-15321436D02*
X6423753Y-15340484D01*
X6614229Y-15140484D02*
X6518991Y-15140484D01*
X6518991Y-15140484D02*
X6509467Y-15235722D01*
X6509467Y-15235722D02*
X6518991Y-15226198D01*
X6518991Y-15226198D02*
X6538039Y-15216674D01*
X6538039Y-15216674D02*
X6585658Y-15216674D01*
X6585658Y-15216674D02*
X6604705Y-15226198D01*
X6604705Y-15226198D02*
X6614229Y-15235722D01*
X6614229Y-15235722D02*
X6623753Y-15254769D01*
X6623753Y-15254769D02*
X6623753Y-15302388D01*
X6623753Y-15302388D02*
X6614229Y-15321436D01*
X6614229Y-15321436D02*
X6604705Y-15330960D01*
X6604705Y-15330960D02*
X6585658Y-15340484D01*
X6585658Y-15340484D02*
X6538039Y-15340484D01*
X6538039Y-15340484D02*
X6518991Y-15330960D01*
X6518991Y-15330960D02*
X6509467Y-15321436D01*
X6747562Y-15140484D02*
X6766610Y-15140484D01*
X6766610Y-15140484D02*
X6785658Y-15150008D01*
X6785658Y-15150008D02*
X6795182Y-15159531D01*
X6795182Y-15159531D02*
X6804705Y-15178579D01*
X6804705Y-15178579D02*
X6814229Y-15216674D01*
X6814229Y-15216674D02*
X6814229Y-15264293D01*
X6814229Y-15264293D02*
X6804705Y-15302388D01*
X6804705Y-15302388D02*
X6795182Y-15321436D01*
X6795182Y-15321436D02*
X6785658Y-15330960D01*
X6785658Y-15330960D02*
X6766610Y-15340484D01*
X6766610Y-15340484D02*
X6747562Y-15340484D01*
X6747562Y-15340484D02*
X6728515Y-15330960D01*
X6728515Y-15330960D02*
X6718991Y-15321436D01*
X6718991Y-15321436D02*
X6709467Y-15302388D01*
X6709467Y-15302388D02*
X6699943Y-15264293D01*
X6699943Y-15264293D02*
X6699943Y-15216674D01*
X6699943Y-15216674D02*
X6709467Y-15178579D01*
X6709467Y-15178579D02*
X6718991Y-15159531D01*
X6718991Y-15159531D02*
X6728515Y-15150008D01*
X6728515Y-15150008D02*
X6747562Y-15140484D01*
X6938039Y-15140484D02*
X6957086Y-15140484D01*
X6957086Y-15140484D02*
X6976134Y-15150008D01*
X6976134Y-15150008D02*
X6985658Y-15159531D01*
X6985658Y-15159531D02*
X6995182Y-15178579D01*
X6995182Y-15178579D02*
X7004705Y-15216674D01*
X7004705Y-15216674D02*
X7004705Y-15264293D01*
X7004705Y-15264293D02*
X6995182Y-15302388D01*
X6995182Y-15302388D02*
X6985658Y-15321436D01*
X6985658Y-15321436D02*
X6976134Y-15330960D01*
X6976134Y-15330960D02*
X6957086Y-15340484D01*
X6957086Y-15340484D02*
X6938039Y-15340484D01*
X6938039Y-15340484D02*
X6918991Y-15330960D01*
X6918991Y-15330960D02*
X6909467Y-15321436D01*
X6909467Y-15321436D02*
X6899943Y-15302388D01*
X6899943Y-15302388D02*
X6890420Y-15264293D01*
X6890420Y-15264293D02*
X6890420Y-15216674D01*
X6890420Y-15216674D02*
X6899943Y-15178579D01*
X6899943Y-15178579D02*
X6909467Y-15159531D01*
X6909467Y-15159531D02*
X6918991Y-15150008D01*
X6918991Y-15150008D02*
X6938039Y-15140484D01*
X7090420Y-15340484D02*
X7090420Y-15207150D01*
X7090420Y-15226198D02*
X7099943Y-15216674D01*
X7099943Y-15216674D02*
X7118991Y-15207150D01*
X7118991Y-15207150D02*
X7147563Y-15207150D01*
X7147563Y-15207150D02*
X7166610Y-15216674D01*
X7166610Y-15216674D02*
X7176134Y-15235722D01*
X7176134Y-15235722D02*
X7176134Y-15340484D01*
X7176134Y-15235722D02*
X7185658Y-15216674D01*
X7185658Y-15216674D02*
X7204705Y-15207150D01*
X7204705Y-15207150D02*
X7233277Y-15207150D01*
X7233277Y-15207150D02*
X7252324Y-15216674D01*
X7252324Y-15216674D02*
X7261848Y-15235722D01*
X7261848Y-15235722D02*
X7261848Y-15340484D01*
X7357086Y-15340484D02*
X7357086Y-15207150D01*
X7357086Y-15226198D02*
X7366610Y-15216674D01*
X7366610Y-15216674D02*
X7385658Y-15207150D01*
X7385658Y-15207150D02*
X7414229Y-15207150D01*
X7414229Y-15207150D02*
X7433277Y-15216674D01*
X7433277Y-15216674D02*
X7442801Y-15235722D01*
X7442801Y-15235722D02*
X7442801Y-15340484D01*
X7442801Y-15235722D02*
X7452324Y-15216674D01*
X7452324Y-15216674D02*
X7471372Y-15207150D01*
X7471372Y-15207150D02*
X7499943Y-15207150D01*
X7499943Y-15207150D02*
X7518991Y-15216674D01*
X7518991Y-15216674D02*
X7528515Y-15235722D01*
X7528515Y-15235722D02*
X7528515Y-15340484D01*
X7918991Y-15130960D02*
X7747563Y-15388103D01*
X8176134Y-15140484D02*
X8195182Y-15140484D01*
X8195182Y-15140484D02*
X8214229Y-15150008D01*
X8214229Y-15150008D02*
X8223753Y-15159531D01*
X8223753Y-15159531D02*
X8233277Y-15178579D01*
X8233277Y-15178579D02*
X8242801Y-15216674D01*
X8242801Y-15216674D02*
X8242801Y-15264293D01*
X8242801Y-15264293D02*
X8233277Y-15302388D01*
X8233277Y-15302388D02*
X8223753Y-15321436D01*
X8223753Y-15321436D02*
X8214229Y-15330960D01*
X8214229Y-15330960D02*
X8195182Y-15340484D01*
X8195182Y-15340484D02*
X8176134Y-15340484D01*
X8176134Y-15340484D02*
X8157086Y-15330960D01*
X8157086Y-15330960D02*
X8147563Y-15321436D01*
X8147563Y-15321436D02*
X8138039Y-15302388D01*
X8138039Y-15302388D02*
X8128515Y-15264293D01*
X8128515Y-15264293D02*
X8128515Y-15216674D01*
X8128515Y-15216674D02*
X8138039Y-15178579D01*
X8138039Y-15178579D02*
X8147563Y-15159531D01*
X8147563Y-15159531D02*
X8157086Y-15150008D01*
X8157086Y-15150008D02*
X8176134Y-15140484D01*
X8328515Y-15321436D02*
X8338039Y-15330960D01*
X8338039Y-15330960D02*
X8328515Y-15340484D01*
X8328515Y-15340484D02*
X8318991Y-15330960D01*
X8318991Y-15330960D02*
X8328515Y-15321436D01*
X8328515Y-15321436D02*
X8328515Y-15340484D01*
X8461848Y-15140484D02*
X8480896Y-15140484D01*
X8480896Y-15140484D02*
X8499944Y-15150008D01*
X8499944Y-15150008D02*
X8509468Y-15159531D01*
X8509468Y-15159531D02*
X8518991Y-15178579D01*
X8518991Y-15178579D02*
X8528515Y-15216674D01*
X8528515Y-15216674D02*
X8528515Y-15264293D01*
X8528515Y-15264293D02*
X8518991Y-15302388D01*
X8518991Y-15302388D02*
X8509468Y-15321436D01*
X8509468Y-15321436D02*
X8499944Y-15330960D01*
X8499944Y-15330960D02*
X8480896Y-15340484D01*
X8480896Y-15340484D02*
X8461848Y-15340484D01*
X8461848Y-15340484D02*
X8442801Y-15330960D01*
X8442801Y-15330960D02*
X8433277Y-15321436D01*
X8433277Y-15321436D02*
X8423753Y-15302388D01*
X8423753Y-15302388D02*
X8414229Y-15264293D01*
X8414229Y-15264293D02*
X8414229Y-15216674D01*
X8414229Y-15216674D02*
X8423753Y-15178579D01*
X8423753Y-15178579D02*
X8433277Y-15159531D01*
X8433277Y-15159531D02*
X8442801Y-15150008D01*
X8442801Y-15150008D02*
X8461848Y-15140484D01*
X8709468Y-15140484D02*
X8614229Y-15140484D01*
X8614229Y-15140484D02*
X8604706Y-15235722D01*
X8604706Y-15235722D02*
X8614229Y-15226198D01*
X8614229Y-15226198D02*
X8633277Y-15216674D01*
X8633277Y-15216674D02*
X8680896Y-15216674D01*
X8680896Y-15216674D02*
X8699944Y-15226198D01*
X8699944Y-15226198D02*
X8709468Y-15235722D01*
X8709468Y-15235722D02*
X8718991Y-15254769D01*
X8718991Y-15254769D02*
X8718991Y-15302388D01*
X8718991Y-15302388D02*
X8709468Y-15321436D01*
X8709468Y-15321436D02*
X8699944Y-15330960D01*
X8699944Y-15330960D02*
X8680896Y-15340484D01*
X8680896Y-15340484D02*
X8633277Y-15340484D01*
X8633277Y-15340484D02*
X8614229Y-15330960D01*
X8614229Y-15330960D02*
X8604706Y-15321436D01*
X8814229Y-15340484D02*
X8852325Y-15340484D01*
X8852325Y-15340484D02*
X8871372Y-15330960D01*
X8871372Y-15330960D02*
X8880896Y-15321436D01*
X8880896Y-15321436D02*
X8899944Y-15292865D01*
X8899944Y-15292865D02*
X8909468Y-15254769D01*
X8909468Y-15254769D02*
X8909468Y-15178579D01*
X8909468Y-15178579D02*
X8899944Y-15159531D01*
X8899944Y-15159531D02*
X8890420Y-15150008D01*
X8890420Y-15150008D02*
X8871372Y-15140484D01*
X8871372Y-15140484D02*
X8833277Y-15140484D01*
X8833277Y-15140484D02*
X8814229Y-15150008D01*
X8814229Y-15150008D02*
X8804706Y-15159531D01*
X8804706Y-15159531D02*
X8795182Y-15178579D01*
X8795182Y-15178579D02*
X8795182Y-15226198D01*
X8795182Y-15226198D02*
X8804706Y-15245246D01*
X8804706Y-15245246D02*
X8814229Y-15254769D01*
X8814229Y-15254769D02*
X8833277Y-15264293D01*
X8833277Y-15264293D02*
X8871372Y-15264293D01*
X8871372Y-15264293D02*
X8890420Y-15254769D01*
X8890420Y-15254769D02*
X8899944Y-15245246D01*
X8899944Y-15245246D02*
X8909468Y-15226198D01*
X9099944Y-15340484D02*
X8985658Y-15340484D01*
X9042801Y-15340484D02*
X9042801Y-15140484D01*
X9042801Y-15140484D02*
X9023753Y-15169055D01*
X9023753Y-15169055D02*
X9004706Y-15188103D01*
X9004706Y-15188103D02*
X8985658Y-15197627D01*
X9176134Y-15140484D02*
X9176134Y-15178579D01*
X9252325Y-15140484D02*
X9252325Y-15178579D01*
X9547563Y-15416674D02*
X9538039Y-15407150D01*
X9538039Y-15407150D02*
X9518991Y-15378579D01*
X9518991Y-15378579D02*
X9509468Y-15359531D01*
X9509468Y-15359531D02*
X9499944Y-15330960D01*
X9499944Y-15330960D02*
X9490420Y-15283341D01*
X9490420Y-15283341D02*
X9490420Y-15245246D01*
X9490420Y-15245246D02*
X9499944Y-15197627D01*
X9499944Y-15197627D02*
X9509468Y-15169055D01*
X9509468Y-15169055D02*
X9518991Y-15150008D01*
X9518991Y-15150008D02*
X9538039Y-15121436D01*
X9538039Y-15121436D02*
X9547563Y-15111912D01*
X9709468Y-15140484D02*
X9671372Y-15140484D01*
X9671372Y-15140484D02*
X9652325Y-15150008D01*
X9652325Y-15150008D02*
X9642801Y-15159531D01*
X9642801Y-15159531D02*
X9623753Y-15188103D01*
X9623753Y-15188103D02*
X9614230Y-15226198D01*
X9614230Y-15226198D02*
X9614230Y-15302388D01*
X9614230Y-15302388D02*
X9623753Y-15321436D01*
X9623753Y-15321436D02*
X9633277Y-15330960D01*
X9633277Y-15330960D02*
X9652325Y-15340484D01*
X9652325Y-15340484D02*
X9690420Y-15340484D01*
X9690420Y-15340484D02*
X9709468Y-15330960D01*
X9709468Y-15330960D02*
X9718991Y-15321436D01*
X9718991Y-15321436D02*
X9728515Y-15302388D01*
X9728515Y-15302388D02*
X9728515Y-15254769D01*
X9728515Y-15254769D02*
X9718991Y-15235722D01*
X9718991Y-15235722D02*
X9709468Y-15226198D01*
X9709468Y-15226198D02*
X9690420Y-15216674D01*
X9690420Y-15216674D02*
X9652325Y-15216674D01*
X9652325Y-15216674D02*
X9633277Y-15226198D01*
X9633277Y-15226198D02*
X9623753Y-15235722D01*
X9623753Y-15235722D02*
X9614230Y-15254769D01*
X9966611Y-15340484D02*
X9966611Y-15140484D01*
X10052325Y-15340484D02*
X10052325Y-15235722D01*
X10052325Y-15235722D02*
X10042801Y-15216674D01*
X10042801Y-15216674D02*
X10023753Y-15207150D01*
X10023753Y-15207150D02*
X9995182Y-15207150D01*
X9995182Y-15207150D02*
X9976134Y-15216674D01*
X9976134Y-15216674D02*
X9966611Y-15226198D01*
X10176134Y-15340484D02*
X10157087Y-15330960D01*
X10157087Y-15330960D02*
X10147563Y-15321436D01*
X10147563Y-15321436D02*
X10138039Y-15302388D01*
X10138039Y-15302388D02*
X10138039Y-15245246D01*
X10138039Y-15245246D02*
X10147563Y-15226198D01*
X10147563Y-15226198D02*
X10157087Y-15216674D01*
X10157087Y-15216674D02*
X10176134Y-15207150D01*
X10176134Y-15207150D02*
X10204706Y-15207150D01*
X10204706Y-15207150D02*
X10223753Y-15216674D01*
X10223753Y-15216674D02*
X10233277Y-15226198D01*
X10233277Y-15226198D02*
X10242801Y-15245246D01*
X10242801Y-15245246D02*
X10242801Y-15302388D01*
X10242801Y-15302388D02*
X10233277Y-15321436D01*
X10233277Y-15321436D02*
X10223753Y-15330960D01*
X10223753Y-15330960D02*
X10204706Y-15340484D01*
X10204706Y-15340484D02*
X10176134Y-15340484D01*
X10357087Y-15340484D02*
X10338039Y-15330960D01*
X10338039Y-15330960D02*
X10328515Y-15311912D01*
X10328515Y-15311912D02*
X10328515Y-15140484D01*
X10509468Y-15330960D02*
X10490420Y-15340484D01*
X10490420Y-15340484D02*
X10452325Y-15340484D01*
X10452325Y-15340484D02*
X10433277Y-15330960D01*
X10433277Y-15330960D02*
X10423753Y-15311912D01*
X10423753Y-15311912D02*
X10423753Y-15235722D01*
X10423753Y-15235722D02*
X10433277Y-15216674D01*
X10433277Y-15216674D02*
X10452325Y-15207150D01*
X10452325Y-15207150D02*
X10490420Y-15207150D01*
X10490420Y-15207150D02*
X10509468Y-15216674D01*
X10509468Y-15216674D02*
X10518992Y-15235722D01*
X10518992Y-15235722D02*
X10518992Y-15254769D01*
X10518992Y-15254769D02*
X10423753Y-15273817D01*
X10595182Y-15330960D02*
X10614230Y-15340484D01*
X10614230Y-15340484D02*
X10652325Y-15340484D01*
X10652325Y-15340484D02*
X10671373Y-15330960D01*
X10671373Y-15330960D02*
X10680896Y-15311912D01*
X10680896Y-15311912D02*
X10680896Y-15302388D01*
X10680896Y-15302388D02*
X10671373Y-15283341D01*
X10671373Y-15283341D02*
X10652325Y-15273817D01*
X10652325Y-15273817D02*
X10623753Y-15273817D01*
X10623753Y-15273817D02*
X10604706Y-15264293D01*
X10604706Y-15264293D02*
X10595182Y-15245246D01*
X10595182Y-15245246D02*
X10595182Y-15235722D01*
X10595182Y-15235722D02*
X10604706Y-15216674D01*
X10604706Y-15216674D02*
X10623753Y-15207150D01*
X10623753Y-15207150D02*
X10652325Y-15207150D01*
X10652325Y-15207150D02*
X10671373Y-15216674D01*
X10747563Y-15416674D02*
X10757087Y-15407150D01*
X10757087Y-15407150D02*
X10776134Y-15378579D01*
X10776134Y-15378579D02*
X10785658Y-15359531D01*
X10785658Y-15359531D02*
X10795182Y-15330960D01*
X10795182Y-15330960D02*
X10804706Y-15283341D01*
X10804706Y-15283341D02*
X10804706Y-15245246D01*
X10804706Y-15245246D02*
X10795182Y-15197627D01*
X10795182Y-15197627D02*
X10785658Y-15169055D01*
X10785658Y-15169055D02*
X10776134Y-15150008D01*
X10776134Y-15150008D02*
X10757087Y-15121436D01*
X10757087Y-15121436D02*
X10747563Y-15111912D01*
X5772500Y-15419000D02*
X5972500Y-15619000D01*
X5972500Y-15419000D02*
X5772500Y-15619000D01*
X5943211Y-15589711D02*
X5943211Y-15448289D01*
X5801789Y-15448289D01*
X5801789Y-15589711D01*
X5943211Y-15589711D01*
X6214229Y-15410484D02*
X6338039Y-15410484D01*
X6338039Y-15410484D02*
X6271372Y-15486674D01*
X6271372Y-15486674D02*
X6299943Y-15486674D01*
X6299943Y-15486674D02*
X6318991Y-15496198D01*
X6318991Y-15496198D02*
X6328515Y-15505722D01*
X6328515Y-15505722D02*
X6338039Y-15524769D01*
X6338039Y-15524769D02*
X6338039Y-15572388D01*
X6338039Y-15572388D02*
X6328515Y-15591436D01*
X6328515Y-15591436D02*
X6318991Y-15600960D01*
X6318991Y-15600960D02*
X6299943Y-15610484D01*
X6299943Y-15610484D02*
X6242801Y-15610484D01*
X6242801Y-15610484D02*
X6223753Y-15600960D01*
X6223753Y-15600960D02*
X6214229Y-15591436D01*
X6423753Y-15591436D02*
X6433277Y-15600960D01*
X6433277Y-15600960D02*
X6423753Y-15610484D01*
X6423753Y-15610484D02*
X6414229Y-15600960D01*
X6414229Y-15600960D02*
X6423753Y-15591436D01*
X6423753Y-15591436D02*
X6423753Y-15610484D01*
X6509467Y-15429531D02*
X6518991Y-15420008D01*
X6518991Y-15420008D02*
X6538039Y-15410484D01*
X6538039Y-15410484D02*
X6585658Y-15410484D01*
X6585658Y-15410484D02*
X6604705Y-15420008D01*
X6604705Y-15420008D02*
X6614229Y-15429531D01*
X6614229Y-15429531D02*
X6623753Y-15448579D01*
X6623753Y-15448579D02*
X6623753Y-15467627D01*
X6623753Y-15467627D02*
X6614229Y-15496198D01*
X6614229Y-15496198D02*
X6499943Y-15610484D01*
X6499943Y-15610484D02*
X6623753Y-15610484D01*
X6747562Y-15410484D02*
X6766610Y-15410484D01*
X6766610Y-15410484D02*
X6785658Y-15420008D01*
X6785658Y-15420008D02*
X6795182Y-15429531D01*
X6795182Y-15429531D02*
X6804705Y-15448579D01*
X6804705Y-15448579D02*
X6814229Y-15486674D01*
X6814229Y-15486674D02*
X6814229Y-15534293D01*
X6814229Y-15534293D02*
X6804705Y-15572388D01*
X6804705Y-15572388D02*
X6795182Y-15591436D01*
X6795182Y-15591436D02*
X6785658Y-15600960D01*
X6785658Y-15600960D02*
X6766610Y-15610484D01*
X6766610Y-15610484D02*
X6747562Y-15610484D01*
X6747562Y-15610484D02*
X6728515Y-15600960D01*
X6728515Y-15600960D02*
X6718991Y-15591436D01*
X6718991Y-15591436D02*
X6709467Y-15572388D01*
X6709467Y-15572388D02*
X6699943Y-15534293D01*
X6699943Y-15534293D02*
X6699943Y-15486674D01*
X6699943Y-15486674D02*
X6709467Y-15448579D01*
X6709467Y-15448579D02*
X6718991Y-15429531D01*
X6718991Y-15429531D02*
X6728515Y-15420008D01*
X6728515Y-15420008D02*
X6747562Y-15410484D01*
X6938039Y-15410484D02*
X6957086Y-15410484D01*
X6957086Y-15410484D02*
X6976134Y-15420008D01*
X6976134Y-15420008D02*
X6985658Y-15429531D01*
X6985658Y-15429531D02*
X6995182Y-15448579D01*
X6995182Y-15448579D02*
X7004705Y-15486674D01*
X7004705Y-15486674D02*
X7004705Y-15534293D01*
X7004705Y-15534293D02*
X6995182Y-15572388D01*
X6995182Y-15572388D02*
X6985658Y-15591436D01*
X6985658Y-15591436D02*
X6976134Y-15600960D01*
X6976134Y-15600960D02*
X6957086Y-15610484D01*
X6957086Y-15610484D02*
X6938039Y-15610484D01*
X6938039Y-15610484D02*
X6918991Y-15600960D01*
X6918991Y-15600960D02*
X6909467Y-15591436D01*
X6909467Y-15591436D02*
X6899943Y-15572388D01*
X6899943Y-15572388D02*
X6890420Y-15534293D01*
X6890420Y-15534293D02*
X6890420Y-15486674D01*
X6890420Y-15486674D02*
X6899943Y-15448579D01*
X6899943Y-15448579D02*
X6909467Y-15429531D01*
X6909467Y-15429531D02*
X6918991Y-15420008D01*
X6918991Y-15420008D02*
X6938039Y-15410484D01*
X7090420Y-15610484D02*
X7090420Y-15477150D01*
X7090420Y-15496198D02*
X7099943Y-15486674D01*
X7099943Y-15486674D02*
X7118991Y-15477150D01*
X7118991Y-15477150D02*
X7147563Y-15477150D01*
X7147563Y-15477150D02*
X7166610Y-15486674D01*
X7166610Y-15486674D02*
X7176134Y-15505722D01*
X7176134Y-15505722D02*
X7176134Y-15610484D01*
X7176134Y-15505722D02*
X7185658Y-15486674D01*
X7185658Y-15486674D02*
X7204705Y-15477150D01*
X7204705Y-15477150D02*
X7233277Y-15477150D01*
X7233277Y-15477150D02*
X7252324Y-15486674D01*
X7252324Y-15486674D02*
X7261848Y-15505722D01*
X7261848Y-15505722D02*
X7261848Y-15610484D01*
X7357086Y-15610484D02*
X7357086Y-15477150D01*
X7357086Y-15496198D02*
X7366610Y-15486674D01*
X7366610Y-15486674D02*
X7385658Y-15477150D01*
X7385658Y-15477150D02*
X7414229Y-15477150D01*
X7414229Y-15477150D02*
X7433277Y-15486674D01*
X7433277Y-15486674D02*
X7442801Y-15505722D01*
X7442801Y-15505722D02*
X7442801Y-15610484D01*
X7442801Y-15505722D02*
X7452324Y-15486674D01*
X7452324Y-15486674D02*
X7471372Y-15477150D01*
X7471372Y-15477150D02*
X7499943Y-15477150D01*
X7499943Y-15477150D02*
X7518991Y-15486674D01*
X7518991Y-15486674D02*
X7528515Y-15505722D01*
X7528515Y-15505722D02*
X7528515Y-15610484D01*
X7918991Y-15400960D02*
X7747563Y-15658103D01*
X8176134Y-15410484D02*
X8195182Y-15410484D01*
X8195182Y-15410484D02*
X8214229Y-15420008D01*
X8214229Y-15420008D02*
X8223753Y-15429531D01*
X8223753Y-15429531D02*
X8233277Y-15448579D01*
X8233277Y-15448579D02*
X8242801Y-15486674D01*
X8242801Y-15486674D02*
X8242801Y-15534293D01*
X8242801Y-15534293D02*
X8233277Y-15572388D01*
X8233277Y-15572388D02*
X8223753Y-15591436D01*
X8223753Y-15591436D02*
X8214229Y-15600960D01*
X8214229Y-15600960D02*
X8195182Y-15610484D01*
X8195182Y-15610484D02*
X8176134Y-15610484D01*
X8176134Y-15610484D02*
X8157086Y-15600960D01*
X8157086Y-15600960D02*
X8147563Y-15591436D01*
X8147563Y-15591436D02*
X8138039Y-15572388D01*
X8138039Y-15572388D02*
X8128515Y-15534293D01*
X8128515Y-15534293D02*
X8128515Y-15486674D01*
X8128515Y-15486674D02*
X8138039Y-15448579D01*
X8138039Y-15448579D02*
X8147563Y-15429531D01*
X8147563Y-15429531D02*
X8157086Y-15420008D01*
X8157086Y-15420008D02*
X8176134Y-15410484D01*
X8328515Y-15591436D02*
X8338039Y-15600960D01*
X8338039Y-15600960D02*
X8328515Y-15610484D01*
X8328515Y-15610484D02*
X8318991Y-15600960D01*
X8318991Y-15600960D02*
X8328515Y-15591436D01*
X8328515Y-15591436D02*
X8328515Y-15610484D01*
X8528515Y-15610484D02*
X8414229Y-15610484D01*
X8471372Y-15610484D02*
X8471372Y-15410484D01*
X8471372Y-15410484D02*
X8452325Y-15439055D01*
X8452325Y-15439055D02*
X8433277Y-15458103D01*
X8433277Y-15458103D02*
X8414229Y-15467627D01*
X8604706Y-15429531D02*
X8614229Y-15420008D01*
X8614229Y-15420008D02*
X8633277Y-15410484D01*
X8633277Y-15410484D02*
X8680896Y-15410484D01*
X8680896Y-15410484D02*
X8699944Y-15420008D01*
X8699944Y-15420008D02*
X8709468Y-15429531D01*
X8709468Y-15429531D02*
X8718991Y-15448579D01*
X8718991Y-15448579D02*
X8718991Y-15467627D01*
X8718991Y-15467627D02*
X8709468Y-15496198D01*
X8709468Y-15496198D02*
X8595182Y-15610484D01*
X8595182Y-15610484D02*
X8718991Y-15610484D01*
X8890420Y-15410484D02*
X8852325Y-15410484D01*
X8852325Y-15410484D02*
X8833277Y-15420008D01*
X8833277Y-15420008D02*
X8823753Y-15429531D01*
X8823753Y-15429531D02*
X8804706Y-15458103D01*
X8804706Y-15458103D02*
X8795182Y-15496198D01*
X8795182Y-15496198D02*
X8795182Y-15572388D01*
X8795182Y-15572388D02*
X8804706Y-15591436D01*
X8804706Y-15591436D02*
X8814229Y-15600960D01*
X8814229Y-15600960D02*
X8833277Y-15610484D01*
X8833277Y-15610484D02*
X8871372Y-15610484D01*
X8871372Y-15610484D02*
X8890420Y-15600960D01*
X8890420Y-15600960D02*
X8899944Y-15591436D01*
X8899944Y-15591436D02*
X8909468Y-15572388D01*
X8909468Y-15572388D02*
X8909468Y-15524769D01*
X8909468Y-15524769D02*
X8899944Y-15505722D01*
X8899944Y-15505722D02*
X8890420Y-15496198D01*
X8890420Y-15496198D02*
X8871372Y-15486674D01*
X8871372Y-15486674D02*
X8833277Y-15486674D01*
X8833277Y-15486674D02*
X8814229Y-15496198D01*
X8814229Y-15496198D02*
X8804706Y-15505722D01*
X8804706Y-15505722D02*
X8795182Y-15524769D01*
X9033277Y-15410484D02*
X9052325Y-15410484D01*
X9052325Y-15410484D02*
X9071372Y-15420008D01*
X9071372Y-15420008D02*
X9080896Y-15429531D01*
X9080896Y-15429531D02*
X9090420Y-15448579D01*
X9090420Y-15448579D02*
X9099944Y-15486674D01*
X9099944Y-15486674D02*
X9099944Y-15534293D01*
X9099944Y-15534293D02*
X9090420Y-15572388D01*
X9090420Y-15572388D02*
X9080896Y-15591436D01*
X9080896Y-15591436D02*
X9071372Y-15600960D01*
X9071372Y-15600960D02*
X9052325Y-15610484D01*
X9052325Y-15610484D02*
X9033277Y-15610484D01*
X9033277Y-15610484D02*
X9014229Y-15600960D01*
X9014229Y-15600960D02*
X9004706Y-15591436D01*
X9004706Y-15591436D02*
X8995182Y-15572388D01*
X8995182Y-15572388D02*
X8985658Y-15534293D01*
X8985658Y-15534293D02*
X8985658Y-15486674D01*
X8985658Y-15486674D02*
X8995182Y-15448579D01*
X8995182Y-15448579D02*
X9004706Y-15429531D01*
X9004706Y-15429531D02*
X9014229Y-15420008D01*
X9014229Y-15420008D02*
X9033277Y-15410484D01*
X9176134Y-15410484D02*
X9176134Y-15448579D01*
X9252325Y-15410484D02*
X9252325Y-15448579D01*
X9547563Y-15686674D02*
X9538039Y-15677150D01*
X9538039Y-15677150D02*
X9518991Y-15648579D01*
X9518991Y-15648579D02*
X9509468Y-15629531D01*
X9509468Y-15629531D02*
X9499944Y-15600960D01*
X9499944Y-15600960D02*
X9490420Y-15553341D01*
X9490420Y-15553341D02*
X9490420Y-15515246D01*
X9490420Y-15515246D02*
X9499944Y-15467627D01*
X9499944Y-15467627D02*
X9509468Y-15439055D01*
X9509468Y-15439055D02*
X9518991Y-15420008D01*
X9518991Y-15420008D02*
X9538039Y-15391436D01*
X9538039Y-15391436D02*
X9547563Y-15381912D01*
X9709468Y-15477150D02*
X9709468Y-15610484D01*
X9661849Y-15400960D02*
X9614230Y-15543817D01*
X9614230Y-15543817D02*
X9738039Y-15543817D01*
X9966611Y-15610484D02*
X9966611Y-15410484D01*
X10052325Y-15610484D02*
X10052325Y-15505722D01*
X10052325Y-15505722D02*
X10042801Y-15486674D01*
X10042801Y-15486674D02*
X10023753Y-15477150D01*
X10023753Y-15477150D02*
X9995182Y-15477150D01*
X9995182Y-15477150D02*
X9976134Y-15486674D01*
X9976134Y-15486674D02*
X9966611Y-15496198D01*
X10176134Y-15610484D02*
X10157087Y-15600960D01*
X10157087Y-15600960D02*
X10147563Y-15591436D01*
X10147563Y-15591436D02*
X10138039Y-15572388D01*
X10138039Y-15572388D02*
X10138039Y-15515246D01*
X10138039Y-15515246D02*
X10147563Y-15496198D01*
X10147563Y-15496198D02*
X10157087Y-15486674D01*
X10157087Y-15486674D02*
X10176134Y-15477150D01*
X10176134Y-15477150D02*
X10204706Y-15477150D01*
X10204706Y-15477150D02*
X10223753Y-15486674D01*
X10223753Y-15486674D02*
X10233277Y-15496198D01*
X10233277Y-15496198D02*
X10242801Y-15515246D01*
X10242801Y-15515246D02*
X10242801Y-15572388D01*
X10242801Y-15572388D02*
X10233277Y-15591436D01*
X10233277Y-15591436D02*
X10223753Y-15600960D01*
X10223753Y-15600960D02*
X10204706Y-15610484D01*
X10204706Y-15610484D02*
X10176134Y-15610484D01*
X10357087Y-15610484D02*
X10338039Y-15600960D01*
X10338039Y-15600960D02*
X10328515Y-15581912D01*
X10328515Y-15581912D02*
X10328515Y-15410484D01*
X10509468Y-15600960D02*
X10490420Y-15610484D01*
X10490420Y-15610484D02*
X10452325Y-15610484D01*
X10452325Y-15610484D02*
X10433277Y-15600960D01*
X10433277Y-15600960D02*
X10423753Y-15581912D01*
X10423753Y-15581912D02*
X10423753Y-15505722D01*
X10423753Y-15505722D02*
X10433277Y-15486674D01*
X10433277Y-15486674D02*
X10452325Y-15477150D01*
X10452325Y-15477150D02*
X10490420Y-15477150D01*
X10490420Y-15477150D02*
X10509468Y-15486674D01*
X10509468Y-15486674D02*
X10518992Y-15505722D01*
X10518992Y-15505722D02*
X10518992Y-15524769D01*
X10518992Y-15524769D02*
X10423753Y-15543817D01*
X10595182Y-15600960D02*
X10614230Y-15610484D01*
X10614230Y-15610484D02*
X10652325Y-15610484D01*
X10652325Y-15610484D02*
X10671373Y-15600960D01*
X10671373Y-15600960D02*
X10680896Y-15581912D01*
X10680896Y-15581912D02*
X10680896Y-15572388D01*
X10680896Y-15572388D02*
X10671373Y-15553341D01*
X10671373Y-15553341D02*
X10652325Y-15543817D01*
X10652325Y-15543817D02*
X10623753Y-15543817D01*
X10623753Y-15543817D02*
X10604706Y-15534293D01*
X10604706Y-15534293D02*
X10595182Y-15515246D01*
X10595182Y-15515246D02*
X10595182Y-15505722D01*
X10595182Y-15505722D02*
X10604706Y-15486674D01*
X10604706Y-15486674D02*
X10623753Y-15477150D01*
X10623753Y-15477150D02*
X10652325Y-15477150D01*
X10652325Y-15477150D02*
X10671373Y-15486674D01*
X10747563Y-15686674D02*
X10757087Y-15677150D01*
X10757087Y-15677150D02*
X10776134Y-15648579D01*
X10776134Y-15648579D02*
X10785658Y-15629531D01*
X10785658Y-15629531D02*
X10795182Y-15600960D01*
X10795182Y-15600960D02*
X10804706Y-15553341D01*
X10804706Y-15553341D02*
X10804706Y-15515246D01*
X10804706Y-15515246D02*
X10795182Y-15467627D01*
X10795182Y-15467627D02*
X10785658Y-15439055D01*
X10785658Y-15439055D02*
X10776134Y-15420008D01*
X10776134Y-15420008D02*
X10757087Y-15391436D01*
X10757087Y-15391436D02*
X10747563Y-15381912D01*
X11109468Y-15686674D02*
X11099944Y-15677150D01*
X11099944Y-15677150D02*
X11080896Y-15648579D01*
X11080896Y-15648579D02*
X11071373Y-15629531D01*
X11071373Y-15629531D02*
X11061849Y-15600960D01*
X11061849Y-15600960D02*
X11052325Y-15553341D01*
X11052325Y-15553341D02*
X11052325Y-15515246D01*
X11052325Y-15515246D02*
X11061849Y-15467627D01*
X11061849Y-15467627D02*
X11071373Y-15439055D01*
X11071373Y-15439055D02*
X11080896Y-15420008D01*
X11080896Y-15420008D02*
X11099944Y-15391436D01*
X11099944Y-15391436D02*
X11109468Y-15381912D01*
X11185658Y-15477150D02*
X11185658Y-15610484D01*
X11185658Y-15496198D02*
X11195182Y-15486674D01*
X11195182Y-15486674D02*
X11214230Y-15477150D01*
X11214230Y-15477150D02*
X11242801Y-15477150D01*
X11242801Y-15477150D02*
X11261849Y-15486674D01*
X11261849Y-15486674D02*
X11271372Y-15505722D01*
X11271372Y-15505722D02*
X11271372Y-15610484D01*
X11395182Y-15610484D02*
X11376134Y-15600960D01*
X11376134Y-15600960D02*
X11366611Y-15591436D01*
X11366611Y-15591436D02*
X11357087Y-15572388D01*
X11357087Y-15572388D02*
X11357087Y-15515246D01*
X11357087Y-15515246D02*
X11366611Y-15496198D01*
X11366611Y-15496198D02*
X11376134Y-15486674D01*
X11376134Y-15486674D02*
X11395182Y-15477150D01*
X11395182Y-15477150D02*
X11423753Y-15477150D01*
X11423753Y-15477150D02*
X11442801Y-15486674D01*
X11442801Y-15486674D02*
X11452325Y-15496198D01*
X11452325Y-15496198D02*
X11461849Y-15515246D01*
X11461849Y-15515246D02*
X11461849Y-15572388D01*
X11461849Y-15572388D02*
X11452325Y-15591436D01*
X11452325Y-15591436D02*
X11442801Y-15600960D01*
X11442801Y-15600960D02*
X11423753Y-15610484D01*
X11423753Y-15610484D02*
X11395182Y-15610484D01*
X11518992Y-15477150D02*
X11595182Y-15477150D01*
X11547563Y-15410484D02*
X11547563Y-15581912D01*
X11547563Y-15581912D02*
X11557087Y-15600960D01*
X11557087Y-15600960D02*
X11576134Y-15610484D01*
X11576134Y-15610484D02*
X11595182Y-15610484D01*
X11814230Y-15477150D02*
X11814230Y-15677150D01*
X11814230Y-15486674D02*
X11833277Y-15477150D01*
X11833277Y-15477150D02*
X11871373Y-15477150D01*
X11871373Y-15477150D02*
X11890420Y-15486674D01*
X11890420Y-15486674D02*
X11899944Y-15496198D01*
X11899944Y-15496198D02*
X11909468Y-15515246D01*
X11909468Y-15515246D02*
X11909468Y-15572388D01*
X11909468Y-15572388D02*
X11899944Y-15591436D01*
X11899944Y-15591436D02*
X11890420Y-15600960D01*
X11890420Y-15600960D02*
X11871373Y-15610484D01*
X11871373Y-15610484D02*
X11833277Y-15610484D01*
X11833277Y-15610484D02*
X11814230Y-15600960D01*
X12023753Y-15610484D02*
X12004706Y-15600960D01*
X12004706Y-15600960D02*
X11995182Y-15581912D01*
X11995182Y-15581912D02*
X11995182Y-15410484D01*
X12185658Y-15610484D02*
X12185658Y-15505722D01*
X12185658Y-15505722D02*
X12176134Y-15486674D01*
X12176134Y-15486674D02*
X12157087Y-15477150D01*
X12157087Y-15477150D02*
X12118992Y-15477150D01*
X12118992Y-15477150D02*
X12099944Y-15486674D01*
X12185658Y-15600960D02*
X12166611Y-15610484D01*
X12166611Y-15610484D02*
X12118992Y-15610484D01*
X12118992Y-15610484D02*
X12099944Y-15600960D01*
X12099944Y-15600960D02*
X12090420Y-15581912D01*
X12090420Y-15581912D02*
X12090420Y-15562865D01*
X12090420Y-15562865D02*
X12099944Y-15543817D01*
X12099944Y-15543817D02*
X12118992Y-15534293D01*
X12118992Y-15534293D02*
X12166611Y-15534293D01*
X12166611Y-15534293D02*
X12185658Y-15524769D01*
X12252325Y-15477150D02*
X12328515Y-15477150D01*
X12280896Y-15410484D02*
X12280896Y-15581912D01*
X12280896Y-15581912D02*
X12290420Y-15600960D01*
X12290420Y-15600960D02*
X12309468Y-15610484D01*
X12309468Y-15610484D02*
X12328515Y-15610484D01*
X12471373Y-15600960D02*
X12452325Y-15610484D01*
X12452325Y-15610484D02*
X12414230Y-15610484D01*
X12414230Y-15610484D02*
X12395182Y-15600960D01*
X12395182Y-15600960D02*
X12385658Y-15581912D01*
X12385658Y-15581912D02*
X12385658Y-15505722D01*
X12385658Y-15505722D02*
X12395182Y-15486674D01*
X12395182Y-15486674D02*
X12414230Y-15477150D01*
X12414230Y-15477150D02*
X12452325Y-15477150D01*
X12452325Y-15477150D02*
X12471373Y-15486674D01*
X12471373Y-15486674D02*
X12480896Y-15505722D01*
X12480896Y-15505722D02*
X12480896Y-15524769D01*
X12480896Y-15524769D02*
X12385658Y-15543817D01*
X12652325Y-15610484D02*
X12652325Y-15410484D01*
X12652325Y-15600960D02*
X12633277Y-15610484D01*
X12633277Y-15610484D02*
X12595182Y-15610484D01*
X12595182Y-15610484D02*
X12576134Y-15600960D01*
X12576134Y-15600960D02*
X12566611Y-15591436D01*
X12566611Y-15591436D02*
X12557087Y-15572388D01*
X12557087Y-15572388D02*
X12557087Y-15515246D01*
X12557087Y-15515246D02*
X12566611Y-15496198D01*
X12566611Y-15496198D02*
X12576134Y-15486674D01*
X12576134Y-15486674D02*
X12595182Y-15477150D01*
X12595182Y-15477150D02*
X12633277Y-15477150D01*
X12633277Y-15477150D02*
X12652325Y-15486674D01*
X12728515Y-15686674D02*
X12738039Y-15677150D01*
X12738039Y-15677150D02*
X12757087Y-15648579D01*
X12757087Y-15648579D02*
X12766611Y-15629531D01*
X12766611Y-15629531D02*
X12776134Y-15600960D01*
X12776134Y-15600960D02*
X12785658Y-15553341D01*
X12785658Y-15553341D02*
X12785658Y-15515246D01*
X12785658Y-15515246D02*
X12776134Y-15467627D01*
X12776134Y-15467627D02*
X12766611Y-15439055D01*
X12766611Y-15439055D02*
X12757087Y-15420008D01*
X12757087Y-15420008D02*
X12738039Y-15391436D01*
X12738039Y-15391436D02*
X12728515Y-15381912D01*
M02*
