%TF.GenerationSoftware,KiCad,Pcbnew,9.0.7*%
%TF.CreationDate,2026-04-13T02:26:39+05:30*%
%TF.ProjectId,FinalBoostPCB,46696e61-6c42-46f6-9f73-745043422e6b,rev?*%
%TF.SameCoordinates,Original*%
%TF.FileFunction,Copper,L2,Bot*%
%TF.FilePolarity,Positive*%
%FSLAX46Y46*%
G04 Gerber Fmt 4.6, Leading zero omitted, Abs format (unit mm)*
G04 Created by KiCad (PCBNEW 9.0.7) date 2026-04-13 02:26:39*
%MOMM*%
%LPD*%
G01*
G04 APERTURE LIST*
G04 Aperture macros list*
%AMRoundRect*
0 Rectangle with rounded corners*
0 $1 Rounding radius*
0 $2 $3 $4 $5 $6 $7 $8 $9 X,Y pos of 4 corners*
0 Add a 4 corners polygon primitive as box body*
4,1,4,$2,$3,$4,$5,$6,$7,$8,$9,$2,$3,0*
0 Add four circle primitives for the rounded corners*
1,1,$1+$1,$2,$3*
1,1,$1+$1,$4,$5*
1,1,$1+$1,$6,$7*
1,1,$1+$1,$8,$9*
0 Add four rect primitives between the rounded corners*
20,1,$1+$1,$2,$3,$4,$5,0*
20,1,$1+$1,$4,$5,$6,$7,0*
20,1,$1+$1,$6,$7,$8,$9,0*
20,1,$1+$1,$8,$9,$2,$3,0*%
G04 Aperture macros list end*
%TA.AperFunction,ComponentPad*%
%ADD10C,2.500000*%
%TD*%
%TA.AperFunction,ComponentPad*%
%ADD11RoundRect,0.250000X1.000000X1.000000X-1.000000X1.000000X-1.000000X-1.000000X1.000000X-1.000000X0*%
%TD*%
%TA.AperFunction,ComponentPad*%
%ADD12RoundRect,0.250000X1.000000X-1.000000X1.000000X1.000000X-1.000000X1.000000X-1.000000X-1.000000X0*%
%TD*%
%TA.AperFunction,ComponentPad*%
%ADD13C,2.000000*%
%TD*%
%TA.AperFunction,ComponentPad*%
%ADD14RoundRect,0.250000X0.750000X0.750000X-0.750000X0.750000X-0.750000X-0.750000X0.750000X-0.750000X0*%
%TD*%
%TA.AperFunction,ComponentPad*%
%ADD15C,1.800000*%
%TD*%
%TA.AperFunction,ComponentPad*%
%ADD16RoundRect,0.575000X-0.575000X0.575000X-0.575000X-0.575000X0.575000X-0.575000X0.575000X0.575000X0*%
%TD*%
%TA.AperFunction,ComponentPad*%
%ADD17C,2.300000*%
%TD*%
%TA.AperFunction,ComponentPad*%
%ADD18R,1.700000X1.700000*%
%TD*%
%TA.AperFunction,ComponentPad*%
%ADD19C,1.850000*%
%TD*%
%TA.AperFunction,ComponentPad*%
%ADD20RoundRect,0.250000X-0.675000X0.675000X-0.675000X-0.675000X0.675000X-0.675000X0.675000X0.675000X0*%
%TD*%
%TA.AperFunction,ComponentPad*%
%ADD21C,3.500000*%
%TD*%
%TA.AperFunction,ComponentPad*%
%ADD22O,4.500000X2.500000*%
%TD*%
%TA.AperFunction,ComponentPad*%
%ADD23R,4.500000X2.500000*%
%TD*%
%TA.AperFunction,ComponentPad*%
%ADD24RoundRect,0.575000X0.575000X0.575000X-0.575000X0.575000X-0.575000X-0.575000X0.575000X-0.575000X0*%
%TD*%
%TA.AperFunction,ComponentPad*%
%ADD25R,2.000000X1.500000*%
%TD*%
%TA.AperFunction,ComponentPad*%
%ADD26O,2.000000X1.500000*%
%TD*%
%TA.AperFunction,ViaPad*%
%ADD27C,0.600000*%
%TD*%
%TA.AperFunction,Conductor*%
%ADD28C,0.508000*%
%TD*%
G04 APERTURE END LIST*
D10*
%TO.P,J1,2,Pin_2*%
%TO.N,E2*%
X135865000Y-47232500D03*
D11*
%TO.P,J1,1,Pin_1*%
%TO.N,VINM+*%
X140945000Y-47232500D03*
%TD*%
D12*
%TO.P,J2,1,Pin_1*%
%TO.N,VOUTM+*%
X65150000Y-115050000D03*
D10*
%TO.P,J2,2,Pin_2*%
%TO.N,E2*%
X65150000Y-109970000D03*
%TD*%
D13*
%TO.P,COUT1,2*%
%TO.N,E2*%
X87867677Y-92934911D03*
D14*
%TO.P,COUT1,1*%
%TO.N,Net-(SUG80050E-GE3-1-D)*%
X92867677Y-92934911D03*
%TD*%
D15*
%TO.P,RVOUT1,1*%
%TO.N,Net-(SUG80050E-GE3-1-D)*%
X77800000Y-97700000D03*
%TO.P,RVOUT1,2*%
%TO.N,E2*%
X82200000Y-90200000D03*
%TD*%
D16*
%TO.P,FOUT1,1*%
%TO.N,Net-(SUG80050E-GE3-1-D)*%
X71600000Y-83700000D03*
X71600000Y-88900000D03*
D17*
%TO.P,FOUT1,2*%
%TO.N,VOUTM+*%
X71600000Y-99000000D03*
X71600000Y-104200000D03*
%TD*%
D18*
%TO.P,J14,1,Pin_1*%
%TO.N,GPIO7*%
X144250000Y-97000000D03*
%TD*%
D19*
%TO.P,PS19,6,+Vout*%
%TO.N,15VPWR1*%
X132412500Y-111800000D03*
%TO.P,PS19,5,0V*%
%TO.N,unconnected-(PS19-0V-Pad5)*%
X134952500Y-111800000D03*
%TO.P,PS19,4,-Vout*%
%TO.N,-7VPWR1*%
X137492500Y-111800000D03*
%TO.P,PS19,2,-Vin*%
%TO.N,GND12VCC*%
X142572500Y-111800000D03*
D20*
%TO.P,PS19,1,+Vin*%
%TO.N,12VCC*%
X145112500Y-111800000D03*
%TD*%
D18*
%TO.P,J13,1,Pin_1*%
%TO.N,GPIO6*%
X148012500Y-99100000D03*
%TD*%
D19*
%TO.P,PS18,6,+Vout*%
%TO.N,15VPWR2*%
X132450000Y-80800000D03*
%TO.P,PS18,5,0V*%
%TO.N,unconnected-(PS18-0V-Pad5)*%
X134990000Y-80800000D03*
%TO.P,PS18,4,-Vout*%
%TO.N,-7VPWR2*%
X137530000Y-80800000D03*
%TO.P,PS18,2,-Vin*%
%TO.N,GND12VCC*%
X142610000Y-80800000D03*
D20*
%TO.P,PS18,1,+Vin*%
%TO.N,12VCC*%
X145150000Y-80800000D03*
%TD*%
D13*
%TO.P,CIN2,2*%
%TO.N,E2*%
X117350000Y-60496338D03*
D14*
%TO.P,CIN2,1*%
%TO.N,ILM+*%
X122350000Y-60496338D03*
%TD*%
D21*
%TO.P,L2,2,2*%
%TO.N,E1*%
X169050000Y-103500000D03*
%TO.P,L2,1,1*%
%TO.N,ILM-*%
X169050000Y-79500000D03*
%TD*%
D15*
%TO.P,RVIN1,2*%
%TO.N,E2*%
X119850000Y-44750000D03*
%TO.P,RVIN1,1*%
%TO.N,ILM+*%
X127350000Y-49150000D03*
%TD*%
D22*
%TO.P,SUG80050E-GE3-1,3,S*%
%TO.N,E1*%
X104050000Y-106100000D03*
%TO.P,SUG80050E-GE3-1,2,D*%
%TO.N,Net-(SUG80050E-GE3-1-D)*%
X104050000Y-100650000D03*
D23*
%TO.P,SUG80050E-GE3-1,1,G*%
%TO.N,G1*%
X104050000Y-95200000D03*
%TD*%
D22*
%TO.P,SUG80050E-GE3-2,3,S*%
%TO.N,E2*%
X103850000Y-77200000D03*
%TO.P,SUG80050E-GE3-2,2,D*%
%TO.N,E1*%
X103850000Y-82650000D03*
D23*
%TO.P,SUG80050E-GE3-2,1,G*%
%TO.N,G2*%
X103850000Y-88100000D03*
%TD*%
D17*
%TO.P,FIN1,2*%
%TO.N,ILM+*%
X131250000Y-59200000D03*
X136450000Y-59200000D03*
D24*
%TO.P,FIN1,1*%
%TO.N,VINM+*%
X146550000Y-59200000D03*
X151750000Y-59200000D03*
%TD*%
D18*
%TO.P,J11,1,Pin_1*%
%TO.N,12VCC*%
X222741000Y-75464901D03*
%TD*%
%TO.P,J7,1,Pin_1*%
%TO.N,GND*%
X222603500Y-57248629D03*
%TD*%
%TO.P,J12,1,Pin_1*%
%TO.N,GND12VCC*%
X222741000Y-80064901D03*
%TD*%
%TO.P,J6,1,Pin_1*%
%TO.N,3V3CC*%
X222603500Y-52648629D03*
%TD*%
%TO.P,J9,1,Pin_1*%
%TO.N,ADCINB3*%
X222641000Y-70564901D03*
%TD*%
D25*
%TO.P,U8,1,-VIN*%
%TO.N,GND*%
X198098544Y-83703629D03*
D26*
%TO.P,U8,2,+VIN*%
%TO.N,5VCC*%
X198098544Y-81163629D03*
%TO.P,U8,3,-VOUT*%
%TO.N,GND5VISO3*%
X198098544Y-78623629D03*
%TO.P,U8,4,+VOUT*%
%TO.N,5VISO3*%
X198098544Y-76083629D03*
%TD*%
D18*
%TO.P,J8,1,Pin_1*%
%TO.N,ADCINB2*%
X222603500Y-61848629D03*
%TD*%
D25*
%TO.P,U7,1,-VIN*%
%TO.N,GND*%
X198223544Y-56448629D03*
D26*
%TO.P,U7,2,+VIN*%
%TO.N,5VCC*%
X198223544Y-53908629D03*
%TO.P,U7,3,-VOUT*%
%TO.N,GND5VISO1*%
X198223544Y-51368629D03*
%TO.P,U7,4,+VOUT*%
%TO.N,5VISO1*%
X198223544Y-48828629D03*
%TD*%
D18*
%TO.P,J10,1,Pin_1*%
%TO.N,ADCINB4*%
X222603500Y-66148629D03*
%TD*%
D25*
%TO.P,U6,1,-VIN*%
%TO.N,GND*%
X197303500Y-111248629D03*
D26*
%TO.P,U6,2,+VIN*%
%TO.N,5VCC*%
X197303500Y-108708629D03*
%TO.P,U6,3,-VOUT*%
%TO.N,GND5VISO2*%
X197303500Y-106168629D03*
%TO.P,U6,4,+VOUT*%
%TO.N,5VISO2*%
X197303500Y-103628629D03*
%TD*%
D18*
%TO.P,J5,1,Pin_1*%
%TO.N,5VCC*%
X222603500Y-48048629D03*
%TD*%
D27*
%TO.N,12VCC*%
X157200000Y-87700000D03*
%TO.N,GND12VCC*%
X157200000Y-88600003D03*
%TO.N,5VCC*%
X133200000Y-88900000D03*
%TO.N,12VCC*%
X152150000Y-108950000D03*
%TO.N,GND12VCC*%
X152450000Y-112150000D03*
%TO.N,GND*%
X139550000Y-92650000D03*
%TO.N,Net-(U4-VINP)*%
X132250000Y-44750000D03*
X132250000Y-49050000D03*
%TO.N,5VCC*%
X221041000Y-46514901D03*
%TO.N,GND12VCC*%
X217921433Y-84568901D03*
%TO.N,12VCC*%
X217189874Y-83669961D03*
%TO.N,Net-(CSG32-Pad1)*%
X217803500Y-97848629D03*
X231703500Y-64248629D03*
%TO.N,GND*%
X210803500Y-118948629D03*
X203503500Y-69648629D03*
X210903500Y-90848629D03*
X209203500Y-63248629D03*
%TO.N,Net-(U2A-+)*%
X213603500Y-68359835D03*
%TO.N,GND*%
X203003500Y-96948629D03*
%TO.N,Net-(CSG22-Pad1)*%
X233278000Y-67164901D03*
%TO.N,GND*%
X225103500Y-57248629D03*
X210803500Y-121348629D03*
X202203500Y-124548629D03*
%TO.N,Net-(CSG12-Pad1)*%
X221403500Y-99648629D03*
%TO.N,GND*%
X208503500Y-90848629D03*
X211603500Y-63348629D03*
%TO.N,Net-(CSG12-Pad1)*%
X233522821Y-77346722D03*
%TO.N,Net-(CSG22-Pad1)*%
X217703500Y-90248629D03*
%TO.N,Net-(U2A-+)*%
X212040500Y-72648629D03*
%TD*%
D28*
%TO.N,Net-(U4-VINP)*%
X132250000Y-44750000D02*
X132250000Y-49050000D01*
%TO.N,12VCC*%
X213833728Y-107650000D02*
X214341000Y-107142728D01*
X214341000Y-107142728D02*
X214341000Y-86518834D01*
X205455902Y-107650000D02*
X213833728Y-107650000D01*
X199114902Y-113991000D02*
X205455902Y-107650000D01*
X157291000Y-113991000D02*
X199114902Y-113991000D01*
X152250000Y-108950000D02*
X157291000Y-113991000D01*
X152150000Y-108950000D02*
X152250000Y-108950000D01*
X214341000Y-86518834D02*
X217189874Y-83669961D01*
%TO.N,GND12VCC*%
X199450000Y-114800000D02*
X155100000Y-114800000D01*
X205791000Y-108459000D02*
X199450000Y-114800000D01*
X214168826Y-108459000D02*
X205791000Y-108459000D01*
X215150000Y-86853933D02*
X215150000Y-107477826D01*
X155100000Y-114800000D02*
X152450000Y-112150000D01*
X217435032Y-84568901D02*
X215150000Y-86853933D01*
X217921433Y-84568901D02*
X217435032Y-84568901D01*
X215150000Y-107477826D02*
X214168826Y-108459000D01*
%TO.N,5VCC*%
X133200000Y-88850000D02*
X133200000Y-88900000D01*
X135205000Y-86845000D02*
X133200000Y-88850000D01*
X156910902Y-86845000D02*
X135205000Y-86845000D01*
X156914902Y-86841000D02*
X156910902Y-86845000D01*
X194148629Y-86841000D02*
X156914902Y-86841000D01*
%TO.N,GND*%
X198704871Y-92650000D02*
X203003500Y-96948629D01*
X139550000Y-92650000D02*
X198704871Y-92650000D01*
%TO.N,GND12VCC*%
X210385098Y-80064901D02*
X201849999Y-88600000D01*
X201849999Y-88600000D02*
X194683728Y-88600000D01*
X222741000Y-80064901D02*
X210385098Y-80064901D01*
%TO.N,12VCC*%
X210050000Y-79255901D02*
X201655901Y-87650000D01*
X201655901Y-87650000D02*
X194483727Y-87650000D01*
X218950000Y-79255901D02*
X210050000Y-79255901D01*
X222741000Y-75464901D02*
X218950000Y-79255901D01*
%TO.N,5VCC*%
X201320803Y-86841000D02*
X193200000Y-86841000D01*
X209714902Y-78446901D02*
X201320803Y-86841000D01*
X220391000Y-46514901D02*
X220041000Y-46864901D01*
X220041000Y-46864901D02*
X220041000Y-77020803D01*
X221041000Y-46514901D02*
X220391000Y-46514901D01*
X220041000Y-77020803D02*
X218614902Y-78446901D01*
X218614902Y-78446901D02*
X209714902Y-78446901D01*
%TO.N,GND12VCC*%
X159417997Y-88600003D02*
X157200000Y-88600003D01*
%TO.N,12VCC*%
X157250000Y-87650000D02*
X157200000Y-87700000D01*
%TO.N,GND12VCC*%
X159418000Y-88600000D02*
X159417997Y-88600003D01*
%TO.N,12VCC*%
X194483727Y-87650000D02*
X157250000Y-87650000D01*
%TO.N,GND12VCC*%
X194683728Y-88600000D02*
X159418000Y-88600000D01*
%TO.N,Net-(CSG12-Pad1)*%
X221403500Y-89402401D02*
X221403500Y-99648629D01*
X233522821Y-77346722D02*
X233459179Y-77346722D01*
X233459179Y-77346722D02*
X221403500Y-89402401D01*
%TO.N,Net-(CSG22-Pad1)*%
X219785500Y-89670401D02*
X219207272Y-90248629D01*
X219207272Y-90248629D02*
X217703500Y-90248629D01*
X219785500Y-88732205D02*
X219785500Y-89670401D01*
X233278000Y-75239705D02*
X219785500Y-88732205D01*
X233278000Y-67164901D02*
X233278000Y-75239705D01*
%TO.N,Net-(CSG32-Pad1)*%
X220594500Y-89067303D02*
X220594500Y-90061401D01*
X220594500Y-90061401D02*
X218303500Y-92352401D01*
X234132000Y-75529803D02*
X220594500Y-89067303D01*
X218303500Y-92352401D02*
X218303500Y-97348629D01*
X218303500Y-97348629D02*
X217803500Y-97848629D01*
X231703500Y-64248629D02*
X234132000Y-66677129D01*
X234132000Y-66677129D02*
X234132000Y-75529803D01*
%TO.N,Net-(U2A-+)*%
X213603500Y-71085629D02*
X212040500Y-72648629D01*
X213603500Y-68359835D02*
X213603500Y-71085629D01*
%TD*%
%TA.AperFunction,Conductor*%
%TO.N,GND*%
G36*
X235702074Y-43538041D02*
G01*
X235783054Y-43591718D01*
X235837330Y-43672298D01*
X235856635Y-43767277D01*
X236254307Y-129067896D01*
X236235798Y-129163272D01*
X236182199Y-129244304D01*
X236101670Y-129298656D01*
X236006471Y-129318054D01*
X236004851Y-129318057D01*
X182203726Y-129218976D01*
X182108473Y-129199846D01*
X182027791Y-129145721D01*
X181973964Y-129064840D01*
X181955185Y-128970270D01*
X181950663Y-125103712D01*
X231249500Y-125103712D01*
X231249500Y-125346287D01*
X231281162Y-125586790D01*
X231281163Y-125586795D01*
X231343940Y-125821082D01*
X231343948Y-125821105D01*
X231436770Y-126045201D01*
X231436778Y-126045217D01*
X231558058Y-126255279D01*
X231558064Y-126255289D01*
X231705729Y-126447731D01*
X231705738Y-126447741D01*
X231877258Y-126619261D01*
X231877268Y-126619270D01*
X231998491Y-126712287D01*
X232069711Y-126766936D01*
X232069720Y-126766941D01*
X232279782Y-126888221D01*
X232279798Y-126888229D01*
X232419858Y-126946242D01*
X232503900Y-126981054D01*
X232503911Y-126981057D01*
X232503917Y-126981059D01*
X232687021Y-127030121D01*
X232738211Y-127043838D01*
X232978712Y-127075500D01*
X233221288Y-127075500D01*
X233461789Y-127043838D01*
X233623275Y-127000567D01*
X233696082Y-126981059D01*
X233696084Y-126981058D01*
X233696100Y-126981054D01*
X233847766Y-126918231D01*
X233920201Y-126888229D01*
X233920206Y-126888226D01*
X233920212Y-126888224D01*
X234130289Y-126766936D01*
X234322738Y-126619265D01*
X234494265Y-126447738D01*
X234641936Y-126255289D01*
X234763224Y-126045212D01*
X234856054Y-125821100D01*
X234918838Y-125586789D01*
X234950500Y-125346288D01*
X234950500Y-125103712D01*
X234918838Y-124863211D01*
X234856054Y-124628900D01*
X234821242Y-124544858D01*
X234763229Y-124404798D01*
X234763221Y-124404782D01*
X234641941Y-124194720D01*
X234641935Y-124194710D01*
X234494270Y-124002268D01*
X234494261Y-124002258D01*
X234322741Y-123830738D01*
X234322731Y-123830729D01*
X234130289Y-123683064D01*
X234130279Y-123683058D01*
X233920217Y-123561778D01*
X233920201Y-123561770D01*
X233696105Y-123468948D01*
X233696103Y-123468947D01*
X233696100Y-123468946D01*
X233696096Y-123468945D01*
X233696082Y-123468940D01*
X233461795Y-123406163D01*
X233461790Y-123406162D01*
X233221288Y-123374500D01*
X232978712Y-123374500D01*
X232738209Y-123406162D01*
X232738204Y-123406163D01*
X232503917Y-123468940D01*
X232503894Y-123468948D01*
X232279798Y-123561770D01*
X232279782Y-123561778D01*
X232069720Y-123683058D01*
X232069710Y-123683064D01*
X231877268Y-123830729D01*
X231877258Y-123830738D01*
X231705738Y-124002258D01*
X231705729Y-124002268D01*
X231558064Y-124194710D01*
X231558058Y-124194720D01*
X231436778Y-124404782D01*
X231436770Y-124404798D01*
X231343948Y-124628894D01*
X231343940Y-124628917D01*
X231281163Y-124863204D01*
X231281162Y-124863209D01*
X231249500Y-125103712D01*
X181950663Y-125103712D01*
X181948405Y-123173239D01*
X181939553Y-115603791D01*
X181958396Y-115508481D01*
X182012278Y-115427636D01*
X182092996Y-115373566D01*
X182188262Y-115354500D01*
X199523002Y-115354500D01*
X199664029Y-115316712D01*
X199790471Y-115243711D01*
X199893711Y-115140471D01*
X199893712Y-115140468D01*
X205947751Y-109086430D01*
X206028533Y-109032454D01*
X206123821Y-109013500D01*
X214241828Y-109013500D01*
X214382855Y-108975712D01*
X214509297Y-108902711D01*
X214612537Y-108799471D01*
X214612537Y-108799469D01*
X214633037Y-108778970D01*
X214633038Y-108778967D01*
X215593711Y-107818297D01*
X215666712Y-107691855D01*
X215704501Y-107550827D01*
X215704501Y-107404824D01*
X215704501Y-107389564D01*
X215704500Y-107389546D01*
X215704500Y-90169571D01*
X217103000Y-90169571D01*
X217103000Y-90327686D01*
X217143922Y-90480412D01*
X217143923Y-90480413D01*
X217222980Y-90617345D01*
X217334784Y-90729149D01*
X217471716Y-90808206D01*
X217624443Y-90849129D01*
X217782560Y-90849129D01*
X217922568Y-90811614D01*
X217987014Y-90803129D01*
X218467451Y-90803129D01*
X218562739Y-90822083D01*
X218643521Y-90876059D01*
X218697497Y-90956841D01*
X218716451Y-91052129D01*
X218697497Y-91147417D01*
X218643521Y-91228199D01*
X218643517Y-91228201D01*
X217963030Y-91908687D01*
X217963031Y-91908688D01*
X217963029Y-91908690D01*
X217963028Y-91908689D01*
X217859790Y-92011927D01*
X217859786Y-92011933D01*
X217786788Y-92138370D01*
X217749000Y-92279399D01*
X217749000Y-97015808D01*
X217730046Y-97111096D01*
X217676070Y-97191878D01*
X217676068Y-97191879D01*
X217611880Y-97256066D01*
X217560312Y-97295636D01*
X217434785Y-97368108D01*
X217322978Y-97479915D01*
X217243922Y-97616845D01*
X217203000Y-97769571D01*
X217203000Y-97927686D01*
X217243922Y-98080412D01*
X217322978Y-98217342D01*
X217322980Y-98217345D01*
X217434784Y-98329149D01*
X217571716Y-98408206D01*
X217724443Y-98449129D01*
X217882557Y-98449129D01*
X218035284Y-98408206D01*
X218172216Y-98329149D01*
X218284020Y-98217345D01*
X218356494Y-98091814D01*
X218396061Y-98040247D01*
X218643968Y-97792341D01*
X218643971Y-97792340D01*
X218747211Y-97689100D01*
X218820212Y-97562658D01*
X218858001Y-97421631D01*
X218858001Y-97275627D01*
X218858001Y-97260367D01*
X218858000Y-97260349D01*
X218858000Y-92685222D01*
X218876954Y-92589934D01*
X218930930Y-92509152D01*
X220423930Y-91016152D01*
X220504712Y-90962176D01*
X220600000Y-90943222D01*
X220695288Y-90962176D01*
X220776070Y-91016152D01*
X220830046Y-91096934D01*
X220849000Y-91192222D01*
X220849000Y-99365115D01*
X220840515Y-99429561D01*
X220803000Y-99569568D01*
X220803000Y-99727686D01*
X220843922Y-99880412D01*
X220843923Y-99880413D01*
X220922980Y-100017345D01*
X221034784Y-100129149D01*
X221171716Y-100208206D01*
X221324443Y-100249129D01*
X221482557Y-100249129D01*
X221635284Y-100208206D01*
X221772216Y-100129149D01*
X221884020Y-100017345D01*
X221963077Y-99880413D01*
X222004000Y-99727686D01*
X222004000Y-99569572D01*
X222004000Y-99569568D01*
X221966485Y-99429561D01*
X221958000Y-99365115D01*
X221958000Y-89735221D01*
X221976954Y-89639933D01*
X222030927Y-89559153D01*
X233610685Y-77979395D01*
X233691464Y-77925422D01*
X233722303Y-77914954D01*
X233754605Y-77906299D01*
X233891537Y-77827242D01*
X234003341Y-77715438D01*
X234082398Y-77578506D01*
X234123321Y-77425779D01*
X234123321Y-77267665D01*
X234082398Y-77114938D01*
X234003341Y-76978006D01*
X233911725Y-76886390D01*
X233857752Y-76805612D01*
X233838798Y-76710324D01*
X233857752Y-76615036D01*
X233911725Y-76534257D01*
X234472468Y-75973515D01*
X234472471Y-75973514D01*
X234575711Y-75870274D01*
X234648712Y-75743832D01*
X234686500Y-75602804D01*
X234686500Y-66770209D01*
X234686501Y-66770196D01*
X234686501Y-66604128D01*
X234675510Y-66563111D01*
X234648712Y-66463100D01*
X234575711Y-66336658D01*
X234472471Y-66233418D01*
X234472468Y-66233416D01*
X232296063Y-64057011D01*
X232256492Y-64005439D01*
X232184023Y-63879917D01*
X232184021Y-63879915D01*
X232184020Y-63879913D01*
X232072216Y-63768109D01*
X232072213Y-63768107D01*
X231935283Y-63689051D01*
X231782557Y-63648129D01*
X231624443Y-63648129D01*
X231471716Y-63689051D01*
X231334786Y-63768107D01*
X231222978Y-63879915D01*
X231143922Y-64016845D01*
X231103000Y-64169571D01*
X231103000Y-64327686D01*
X231143922Y-64480412D01*
X231143923Y-64480413D01*
X231222980Y-64617345D01*
X231334784Y-64729149D01*
X231334786Y-64729150D01*
X231334788Y-64729152D01*
X231460310Y-64801621D01*
X231511882Y-64841192D01*
X232962443Y-66291753D01*
X233016419Y-66372535D01*
X233035373Y-66467823D01*
X233016419Y-66563111D01*
X232962443Y-66643893D01*
X232910872Y-66683464D01*
X232909286Y-66684379D01*
X232797478Y-66796187D01*
X232718422Y-66933117D01*
X232677500Y-67085843D01*
X232677500Y-67243960D01*
X232715015Y-67383967D01*
X232723500Y-67448414D01*
X232723500Y-74906883D01*
X232704546Y-75002171D01*
X232650570Y-75082953D01*
X219445031Y-88288492D01*
X219445029Y-88288494D01*
X219445028Y-88288493D01*
X219341790Y-88391731D01*
X219341788Y-88391734D01*
X219282188Y-88494966D01*
X219271890Y-88512803D01*
X219268788Y-88518176D01*
X219260103Y-88550591D01*
X219256986Y-88562220D01*
X219256984Y-88562228D01*
X219241046Y-88621710D01*
X219231000Y-88659204D01*
X219231000Y-88659206D01*
X219231000Y-89337580D01*
X219212046Y-89432868D01*
X219158070Y-89513650D01*
X219050521Y-89621199D01*
X218969739Y-89675175D01*
X218874451Y-89694129D01*
X217987014Y-89694129D01*
X217922568Y-89685644D01*
X217782561Y-89648129D01*
X217782557Y-89648129D01*
X217624443Y-89648129D01*
X217471716Y-89689051D01*
X217334786Y-89768107D01*
X217222978Y-89879915D01*
X217143922Y-90016845D01*
X217103000Y-90169571D01*
X215704500Y-90169571D01*
X215704500Y-87186754D01*
X215723454Y-87091466D01*
X215777430Y-87010684D01*
X216655326Y-86132788D01*
X217564327Y-85223786D01*
X217645106Y-85169813D01*
X217740394Y-85150859D01*
X217804841Y-85159344D01*
X217842373Y-85169401D01*
X217842376Y-85169401D01*
X218000490Y-85169401D01*
X218153217Y-85128478D01*
X218290149Y-85049421D01*
X218401953Y-84937617D01*
X218481010Y-84800685D01*
X218521933Y-84647958D01*
X218521933Y-84489844D01*
X218481010Y-84337117D01*
X218401953Y-84200185D01*
X218290149Y-84088381D01*
X218290146Y-84088379D01*
X218153216Y-84009323D01*
X217984726Y-83964177D01*
X217985328Y-83961927D01*
X217914873Y-83938010D01*
X217841828Y-83873951D01*
X217798858Y-83786815D01*
X217790374Y-83722371D01*
X217790374Y-83590903D01*
X217749451Y-83438177D01*
X217670395Y-83301247D01*
X217670394Y-83301245D01*
X217558590Y-83189441D01*
X217558587Y-83189439D01*
X217421657Y-83110383D01*
X217268931Y-83069461D01*
X217110817Y-83069461D01*
X216958090Y-83110383D01*
X216821160Y-83189439D01*
X216709353Y-83301246D01*
X216636884Y-83426768D01*
X216597313Y-83478338D01*
X214000531Y-86075121D01*
X214000529Y-86075123D01*
X214000528Y-86075122D01*
X213897290Y-86178360D01*
X213897286Y-86178366D01*
X213824288Y-86304803D01*
X213786500Y-86445832D01*
X213786500Y-106809907D01*
X213767546Y-106905195D01*
X213713570Y-106985977D01*
X213676977Y-107022570D01*
X213596195Y-107076546D01*
X213500907Y-107095500D01*
X205528904Y-107095500D01*
X205382900Y-107095500D01*
X205380250Y-107096209D01*
X205367710Y-107099569D01*
X205367711Y-107099570D01*
X205241870Y-107133288D01*
X205115434Y-107206286D01*
X205115428Y-107206290D01*
X205012190Y-107309528D01*
X205012191Y-107309529D01*
X205012189Y-107309531D01*
X198958151Y-113363570D01*
X198877369Y-113417546D01*
X198782081Y-113436500D01*
X182185726Y-113436500D01*
X182090438Y-113417546D01*
X182009656Y-113363570D01*
X181955680Y-113282788D01*
X181936726Y-113187794D01*
X181934750Y-111498630D01*
X196003501Y-111498630D01*
X196003501Y-112043424D01*
X196006409Y-112068501D01*
X196006410Y-112068505D01*
X196051712Y-112171105D01*
X196131023Y-112250416D01*
X196233626Y-112295719D01*
X196258704Y-112298628D01*
X197053498Y-112298628D01*
X197053500Y-112298627D01*
X197053500Y-111498630D01*
X197053499Y-111498629D01*
X196003502Y-111498629D01*
X196003501Y-111498630D01*
X181934750Y-111498630D01*
X181925425Y-103525165D01*
X196003000Y-103525165D01*
X196003000Y-103732092D01*
X196043370Y-103935050D01*
X196122556Y-104126222D01*
X196122562Y-104126232D01*
X196237518Y-104298278D01*
X196237520Y-104298280D01*
X196237523Y-104298284D01*
X196383845Y-104444606D01*
X196383848Y-104444608D01*
X196383850Y-104444610D01*
X196555896Y-104559566D01*
X196555902Y-104559570D01*
X196555904Y-104559570D01*
X196555906Y-104559572D01*
X196615513Y-104584262D01*
X196747080Y-104638759D01*
X196825783Y-104654413D01*
X196915540Y-104691593D01*
X196984239Y-104760292D01*
X197021419Y-104850052D01*
X197021419Y-104947207D01*
X196984239Y-105036966D01*
X196915540Y-105105665D01*
X196825783Y-105142844D01*
X196747080Y-105158499D01*
X196747078Y-105158499D01*
X196747077Y-105158500D01*
X196555906Y-105237685D01*
X196555896Y-105237691D01*
X196383850Y-105352647D01*
X196237518Y-105498979D01*
X196122562Y-105671025D01*
X196122556Y-105671035D01*
X196043370Y-105862207D01*
X196003000Y-106065165D01*
X196003000Y-106272092D01*
X196043370Y-106475050D01*
X196122556Y-106666222D01*
X196122562Y-106666232D01*
X196237518Y-106838278D01*
X196237520Y-106838280D01*
X196237523Y-106838284D01*
X196383845Y-106984606D01*
X196383848Y-106984608D01*
X196383850Y-106984610D01*
X196521444Y-107076546D01*
X196555902Y-107099570D01*
X196555904Y-107099570D01*
X196555906Y-107099572D01*
X196615513Y-107124262D01*
X196747080Y-107178759D01*
X196825783Y-107194413D01*
X196915540Y-107231593D01*
X196984239Y-107300292D01*
X197021419Y-107390052D01*
X197021419Y-107487207D01*
X196984239Y-107576966D01*
X196915540Y-107645665D01*
X196825783Y-107682844D01*
X196747080Y-107698499D01*
X196747078Y-107698499D01*
X196747077Y-107698500D01*
X196555906Y-107777685D01*
X196555896Y-107777691D01*
X196383850Y-107892647D01*
X196237518Y-108038979D01*
X196122562Y-108211025D01*
X196122556Y-108211035D01*
X196043370Y-108402207D01*
X196003000Y-108605165D01*
X196003000Y-108812092D01*
X196043370Y-109015050D01*
X196122556Y-109206222D01*
X196122562Y-109206232D01*
X196237518Y-109378278D01*
X196237520Y-109378280D01*
X196237523Y-109378284D01*
X196383845Y-109524606D01*
X196383848Y-109524608D01*
X196383850Y-109524610D01*
X196555896Y-109639566D01*
X196555902Y-109639570D01*
X196555904Y-109639570D01*
X196555906Y-109639572D01*
X196619192Y-109665785D01*
X196747080Y-109718759D01*
X196747083Y-109718759D01*
X196749071Y-109719583D01*
X196829852Y-109773559D01*
X196883829Y-109854340D01*
X196902783Y-109949628D01*
X196883829Y-110044917D01*
X196829853Y-110125698D01*
X196749072Y-110179675D01*
X196653784Y-110198629D01*
X196258714Y-110198629D01*
X196258704Y-110198630D01*
X196233627Y-110201538D01*
X196233623Y-110201539D01*
X196131023Y-110246841D01*
X196051712Y-110326152D01*
X196006409Y-110428755D01*
X196003500Y-110453833D01*
X196003500Y-110998628D01*
X196003501Y-110998629D01*
X197058525Y-110998629D01*
X197023430Y-111033724D01*
X196977352Y-111113534D01*
X196953500Y-111202551D01*
X196953500Y-111294707D01*
X196977352Y-111383724D01*
X197023430Y-111463534D01*
X197088595Y-111528699D01*
X197168405Y-111574777D01*
X197257422Y-111598629D01*
X197349578Y-111598629D01*
X197438595Y-111574777D01*
X197518405Y-111528699D01*
X197548474Y-111498630D01*
X197553500Y-111498630D01*
X197553500Y-112298627D01*
X197553501Y-112298628D01*
X198348286Y-112298628D01*
X198348295Y-112298627D01*
X198373372Y-112295719D01*
X198373376Y-112295718D01*
X198475976Y-112250416D01*
X198555287Y-112171105D01*
X198600590Y-112068502D01*
X198603500Y-112043424D01*
X198603500Y-111498630D01*
X198603499Y-111498629D01*
X197553501Y-111498629D01*
X197553500Y-111498630D01*
X197548474Y-111498630D01*
X197583570Y-111463534D01*
X197629648Y-111383724D01*
X197653500Y-111294707D01*
X197653500Y-111202551D01*
X197629648Y-111113534D01*
X197583570Y-111033724D01*
X197548475Y-110998629D01*
X198603498Y-110998629D01*
X198603499Y-110998628D01*
X198603499Y-110453843D01*
X198603498Y-110453833D01*
X198600590Y-110428756D01*
X198600589Y-110428752D01*
X198555287Y-110326152D01*
X198475976Y-110246841D01*
X198373373Y-110201538D01*
X198348296Y-110198629D01*
X197953218Y-110198629D01*
X197857930Y-110179675D01*
X197777148Y-110125699D01*
X197723172Y-110044917D01*
X197704218Y-109949629D01*
X197723172Y-109854341D01*
X197777148Y-109773559D01*
X197857930Y-109719583D01*
X197859918Y-109718759D01*
X197859920Y-109718759D01*
X198051098Y-109639570D01*
X198223155Y-109524606D01*
X198369477Y-109378284D01*
X198484441Y-109206227D01*
X198563630Y-109015049D01*
X198604000Y-108812094D01*
X198604000Y-108605164D01*
X198563630Y-108402209D01*
X198484441Y-108211031D01*
X198484437Y-108211025D01*
X198369481Y-108038979D01*
X198369479Y-108038977D01*
X198369477Y-108038974D01*
X198223155Y-107892652D01*
X198223151Y-107892649D01*
X198223149Y-107892647D01*
X198051103Y-107777691D01*
X198051093Y-107777685D01*
X197859922Y-107698499D01*
X197825110Y-107691575D01*
X197781216Y-107682844D01*
X197691459Y-107645665D01*
X197622760Y-107576966D01*
X197585581Y-107487207D01*
X197585580Y-107390052D01*
X197622760Y-107300292D01*
X197691459Y-107231593D01*
X197781218Y-107194414D01*
X197781218Y-107194413D01*
X197859920Y-107178759D01*
X198051098Y-107099570D01*
X198223155Y-106984606D01*
X198369477Y-106838284D01*
X198484441Y-106666227D01*
X198563630Y-106475049D01*
X198604000Y-106272094D01*
X198604000Y-106065164D01*
X198563630Y-105862209D01*
X198484441Y-105671031D01*
X198484437Y-105671025D01*
X198369481Y-105498979D01*
X198369479Y-105498977D01*
X198369477Y-105498974D01*
X198223155Y-105352652D01*
X198223151Y-105352649D01*
X198223149Y-105352647D01*
X198051103Y-105237691D01*
X198051093Y-105237685D01*
X197859922Y-105158499D01*
X197825110Y-105151575D01*
X197781216Y-105142844D01*
X197691459Y-105105665D01*
X197622760Y-105036966D01*
X197585581Y-104947207D01*
X197585580Y-104850052D01*
X197622760Y-104760292D01*
X197691459Y-104691593D01*
X197781218Y-104654414D01*
X197781218Y-104654413D01*
X197859920Y-104638759D01*
X198051098Y-104559570D01*
X198223155Y-104444606D01*
X198369477Y-104298284D01*
X198484441Y-104126227D01*
X198563630Y-103935049D01*
X198604000Y-103732094D01*
X198604000Y-103525164D01*
X198563630Y-103322209D01*
X198484441Y-103131031D01*
X198484437Y-103131025D01*
X198369481Y-102958979D01*
X198369479Y-102958977D01*
X198369477Y-102958974D01*
X198223155Y-102812652D01*
X198223151Y-102812649D01*
X198223149Y-102812647D01*
X198051103Y-102697691D01*
X198051093Y-102697685D01*
X197859921Y-102618499D01*
X197792268Y-102605042D01*
X197656965Y-102578129D01*
X196950035Y-102578129D01*
X196848557Y-102598314D01*
X196747078Y-102618499D01*
X196555906Y-102697685D01*
X196555896Y-102697691D01*
X196383850Y-102812647D01*
X196237518Y-102958979D01*
X196122562Y-103131025D01*
X196122556Y-103131035D01*
X196043370Y-103322207D01*
X196003000Y-103525165D01*
X181925425Y-103525165D01*
X181908909Y-89403790D01*
X181927752Y-89308481D01*
X181981634Y-89227636D01*
X182062352Y-89173566D01*
X182157618Y-89154500D01*
X201923004Y-89154500D01*
X202007617Y-89131827D01*
X202064028Y-89116712D01*
X202065433Y-89115901D01*
X202190470Y-89043711D01*
X202293710Y-88940471D01*
X202293711Y-88940468D01*
X210541849Y-80692331D01*
X210622631Y-80638355D01*
X210717919Y-80619401D01*
X221341501Y-80619401D01*
X221436789Y-80638355D01*
X221517571Y-80692331D01*
X221571547Y-80773113D01*
X221590501Y-80868401D01*
X221590501Y-80959770D01*
X221593415Y-80984894D01*
X221638792Y-81087663D01*
X221638793Y-81087664D01*
X221638794Y-81087666D01*
X221718235Y-81167107D01*
X221821009Y-81212486D01*
X221846135Y-81215401D01*
X223635864Y-81215400D01*
X223660991Y-81212486D01*
X223763765Y-81167107D01*
X223843206Y-81087666D01*
X223888585Y-80984892D01*
X223891500Y-80959766D01*
X223891499Y-79170037D01*
X223888585Y-79144910D01*
X223862278Y-79085331D01*
X223843207Y-79042138D01*
X223843206Y-79042137D01*
X223843206Y-79042136D01*
X223763765Y-78962695D01*
X223660991Y-78917316D01*
X223660990Y-78917315D01*
X223660989Y-78917315D01*
X223635866Y-78914401D01*
X221846144Y-78914401D01*
X221846130Y-78914402D01*
X221821006Y-78917316D01*
X221718237Y-78962693D01*
X221638794Y-79042136D01*
X221593414Y-79144912D01*
X221590500Y-79170034D01*
X221590500Y-79261401D01*
X221571546Y-79356689D01*
X221517570Y-79437471D01*
X221436788Y-79491447D01*
X221341500Y-79510401D01*
X220080821Y-79510401D01*
X219985533Y-79491447D01*
X219904751Y-79437471D01*
X219850775Y-79356689D01*
X219831821Y-79261401D01*
X219850775Y-79166113D01*
X219904751Y-79085331D01*
X222301751Y-76688330D01*
X222382533Y-76634354D01*
X222477821Y-76615400D01*
X223635856Y-76615400D01*
X223635864Y-76615400D01*
X223660991Y-76612486D01*
X223763765Y-76567107D01*
X223843206Y-76487666D01*
X223888585Y-76384892D01*
X223891500Y-76359766D01*
X223891499Y-74570037D01*
X223888585Y-74544910D01*
X223843206Y-74442136D01*
X223763765Y-74362695D01*
X223660991Y-74317316D01*
X223660990Y-74317315D01*
X223660989Y-74317315D01*
X223635866Y-74314401D01*
X221846144Y-74314401D01*
X221846130Y-74314402D01*
X221821006Y-74317316D01*
X221718237Y-74362693D01*
X221638794Y-74442136D01*
X221593414Y-74544912D01*
X221590500Y-74570034D01*
X221590500Y-75728079D01*
X221571546Y-75823367D01*
X221517570Y-75904149D01*
X221020570Y-76401149D01*
X220939788Y-76455125D01*
X220844500Y-76474079D01*
X220749212Y-76455125D01*
X220668430Y-76401149D01*
X220614454Y-76320367D01*
X220595500Y-76225079D01*
X220595500Y-69670034D01*
X221490500Y-69670034D01*
X221490500Y-71459756D01*
X221490501Y-71459770D01*
X221493415Y-71484894D01*
X221538792Y-71587663D01*
X221538793Y-71587664D01*
X221538794Y-71587666D01*
X221618235Y-71667107D01*
X221721009Y-71712486D01*
X221746135Y-71715401D01*
X223535864Y-71715400D01*
X223560991Y-71712486D01*
X223663765Y-71667107D01*
X223743206Y-71587666D01*
X223788585Y-71484892D01*
X223791500Y-71459766D01*
X223791499Y-69670037D01*
X223788585Y-69644910D01*
X223743206Y-69542136D01*
X223663765Y-69462695D01*
X223560991Y-69417316D01*
X223560990Y-69417315D01*
X223560989Y-69417315D01*
X223535866Y-69414401D01*
X221746144Y-69414401D01*
X221746130Y-69414402D01*
X221721006Y-69417316D01*
X221618237Y-69462693D01*
X221538794Y-69542136D01*
X221493414Y-69644912D01*
X221490500Y-69670034D01*
X220595500Y-69670034D01*
X220595500Y-65253762D01*
X221453000Y-65253762D01*
X221453000Y-67043484D01*
X221453001Y-67043498D01*
X221455915Y-67068622D01*
X221501292Y-67171391D01*
X221501293Y-67171392D01*
X221501294Y-67171394D01*
X221580735Y-67250835D01*
X221683509Y-67296214D01*
X221708635Y-67299129D01*
X223498364Y-67299128D01*
X223523491Y-67296214D01*
X223626265Y-67250835D01*
X223705706Y-67171394D01*
X223751085Y-67068620D01*
X223754000Y-67043494D01*
X223753999Y-65253765D01*
X223751085Y-65228638D01*
X223705706Y-65125864D01*
X223626265Y-65046423D01*
X223523491Y-65001044D01*
X223523490Y-65001043D01*
X223523489Y-65001043D01*
X223498366Y-64998129D01*
X221708644Y-64998129D01*
X221708630Y-64998130D01*
X221683506Y-65001044D01*
X221580737Y-65046421D01*
X221501294Y-65125864D01*
X221455914Y-65228640D01*
X221453000Y-65253762D01*
X220595500Y-65253762D01*
X220595500Y-60953762D01*
X221453000Y-60953762D01*
X221453000Y-62743484D01*
X221453001Y-62743498D01*
X221455915Y-62768622D01*
X221501292Y-62871391D01*
X221501293Y-62871392D01*
X221501294Y-62871394D01*
X221580735Y-62950835D01*
X221683509Y-62996214D01*
X221708635Y-62999129D01*
X223498364Y-62999128D01*
X223523491Y-62996214D01*
X223626265Y-62950835D01*
X223705706Y-62871394D01*
X223751085Y-62768620D01*
X223754000Y-62743494D01*
X223753999Y-60953765D01*
X223751085Y-60928638D01*
X223705706Y-60825864D01*
X223626265Y-60746423D01*
X223523491Y-60701044D01*
X223523490Y-60701043D01*
X223523489Y-60701043D01*
X223498366Y-60698129D01*
X221708644Y-60698129D01*
X221708630Y-60698130D01*
X221683506Y-60701044D01*
X221580737Y-60746421D01*
X221501294Y-60825864D01*
X221455914Y-60928640D01*
X221453000Y-60953762D01*
X220595500Y-60953762D01*
X220595500Y-56353833D01*
X221453500Y-56353833D01*
X221453500Y-56998628D01*
X221453501Y-56998629D01*
X222170488Y-56998629D01*
X222137575Y-57055636D01*
X222103500Y-57182803D01*
X222103500Y-57314455D01*
X222137575Y-57441622D01*
X222170488Y-57498629D01*
X221453502Y-57498629D01*
X221453501Y-57498630D01*
X221453501Y-58143424D01*
X221456409Y-58168501D01*
X221456410Y-58168505D01*
X221501712Y-58271105D01*
X221581023Y-58350416D01*
X221683626Y-58395719D01*
X221708704Y-58398628D01*
X222353498Y-58398628D01*
X222353500Y-58398627D01*
X222353500Y-57681641D01*
X222410507Y-57714554D01*
X222537674Y-57748629D01*
X222669326Y-57748629D01*
X222796493Y-57714554D01*
X222853500Y-57681641D01*
X222853500Y-58398627D01*
X222853501Y-58398628D01*
X223498286Y-58398628D01*
X223498295Y-58398627D01*
X223523372Y-58395719D01*
X223523376Y-58395718D01*
X223625976Y-58350416D01*
X223705287Y-58271105D01*
X223750590Y-58168502D01*
X223753500Y-58143424D01*
X223753500Y-57498630D01*
X223753499Y-57498629D01*
X223036512Y-57498629D01*
X223069425Y-57441622D01*
X223103500Y-57314455D01*
X223103500Y-57182803D01*
X223069425Y-57055636D01*
X223036512Y-56998629D01*
X223753498Y-56998629D01*
X223753499Y-56998628D01*
X223753499Y-56353843D01*
X223753498Y-56353833D01*
X223750590Y-56328756D01*
X223750589Y-56328752D01*
X223705287Y-56226152D01*
X223625976Y-56146841D01*
X223523373Y-56101538D01*
X223498296Y-56098629D01*
X222853501Y-56098629D01*
X222853500Y-56098630D01*
X222853500Y-56815617D01*
X222796493Y-56782704D01*
X222669326Y-56748629D01*
X222537674Y-56748629D01*
X222410507Y-56782704D01*
X222353500Y-56815617D01*
X222353500Y-56098630D01*
X222353499Y-56098629D01*
X221708715Y-56098629D01*
X221708703Y-56098630D01*
X221683627Y-56101538D01*
X221683623Y-56101539D01*
X221581023Y-56146841D01*
X221501712Y-56226152D01*
X221456409Y-56328755D01*
X221453500Y-56353833D01*
X220595500Y-56353833D01*
X220595500Y-51753762D01*
X221453000Y-51753762D01*
X221453000Y-53543484D01*
X221453001Y-53543498D01*
X221455915Y-53568622D01*
X221501292Y-53671391D01*
X221501293Y-53671392D01*
X221501294Y-53671394D01*
X221580735Y-53750835D01*
X221683509Y-53796214D01*
X221708635Y-53799129D01*
X223498364Y-53799128D01*
X223523491Y-53796214D01*
X223626265Y-53750835D01*
X223705706Y-53671394D01*
X223751085Y-53568620D01*
X223754000Y-53543494D01*
X223753999Y-51753765D01*
X223751085Y-51728638D01*
X223705706Y-51625864D01*
X223626265Y-51546423D01*
X223523491Y-51501044D01*
X223523490Y-51501043D01*
X223523489Y-51501043D01*
X223498366Y-51498129D01*
X221708644Y-51498129D01*
X221708630Y-51498130D01*
X221683506Y-51501044D01*
X221580737Y-51546421D01*
X221501294Y-51625864D01*
X221455914Y-51728640D01*
X221453000Y-51753762D01*
X220595500Y-51753762D01*
X220595500Y-47341716D01*
X220614454Y-47246428D01*
X220668430Y-47165646D01*
X220749212Y-47111670D01*
X220844500Y-47092716D01*
X220908948Y-47101201D01*
X220961942Y-47115401D01*
X220961943Y-47115401D01*
X221120058Y-47115401D01*
X221133981Y-47111670D01*
X221139549Y-47110177D01*
X221236496Y-47103822D01*
X221328495Y-47135049D01*
X221401542Y-47199106D01*
X221444514Y-47286241D01*
X221453000Y-47350692D01*
X221453000Y-48943484D01*
X221453001Y-48943498D01*
X221455915Y-48968622D01*
X221501292Y-49071391D01*
X221501293Y-49071392D01*
X221501294Y-49071394D01*
X221580735Y-49150835D01*
X221683509Y-49196214D01*
X221708635Y-49199129D01*
X223498364Y-49199128D01*
X223523491Y-49196214D01*
X223626265Y-49150835D01*
X223705706Y-49071394D01*
X223751085Y-48968620D01*
X223754000Y-48943494D01*
X223753999Y-47153765D01*
X223751085Y-47128638D01*
X223745240Y-47115401D01*
X223705707Y-47025866D01*
X223705706Y-47025865D01*
X223705706Y-47025864D01*
X223626265Y-46946423D01*
X223523491Y-46901044D01*
X223523490Y-46901043D01*
X223523489Y-46901043D01*
X223498367Y-46898129D01*
X221884501Y-46898129D01*
X221789213Y-46879175D01*
X221708431Y-46825199D01*
X221654455Y-46744417D01*
X221636497Y-46671377D01*
X221632548Y-46627364D01*
X221641500Y-46593958D01*
X221641500Y-46435844D01*
X221600577Y-46283117D01*
X221583600Y-46253712D01*
X231249500Y-46253712D01*
X231249500Y-46496287D01*
X231281162Y-46736790D01*
X231281163Y-46736795D01*
X231343940Y-46971082D01*
X231343948Y-46971105D01*
X231436770Y-47195201D01*
X231436778Y-47195217D01*
X231558058Y-47405279D01*
X231558064Y-47405289D01*
X231705729Y-47597731D01*
X231705738Y-47597741D01*
X231877258Y-47769261D01*
X231877268Y-47769270D01*
X231941425Y-47818499D01*
X232069711Y-47916936D01*
X232069720Y-47916941D01*
X232279782Y-48038221D01*
X232279798Y-48038229D01*
X232419858Y-48096242D01*
X232503900Y-48131054D01*
X232503911Y-48131057D01*
X232503917Y-48131059D01*
X232687021Y-48180121D01*
X232738211Y-48193838D01*
X232978712Y-48225500D01*
X233221288Y-48225500D01*
X233461789Y-48193838D01*
X233623275Y-48150567D01*
X233696082Y-48131059D01*
X233696084Y-48131058D01*
X233696100Y-48131054D01*
X233847766Y-48068231D01*
X233920201Y-48038229D01*
X233920206Y-48038226D01*
X233920212Y-48038224D01*
X234130289Y-47916936D01*
X234322738Y-47769265D01*
X234494265Y-47597738D01*
X234641936Y-47405289D01*
X234763224Y-47195212D01*
X234780395Y-47153759D01*
X234801079Y-47103822D01*
X234856054Y-46971100D01*
X234918838Y-46736789D01*
X234950500Y-46496288D01*
X234950500Y-46253712D01*
X234918838Y-46013211D01*
X234856054Y-45778900D01*
X234821242Y-45694858D01*
X234763229Y-45554798D01*
X234763221Y-45554782D01*
X234641941Y-45344720D01*
X234641935Y-45344710D01*
X234494270Y-45152268D01*
X234494261Y-45152258D01*
X234322741Y-44980738D01*
X234322731Y-44980729D01*
X234130289Y-44833064D01*
X234130279Y-44833058D01*
X233920217Y-44711778D01*
X233920201Y-44711770D01*
X233696105Y-44618948D01*
X233696103Y-44618947D01*
X233696100Y-44618946D01*
X233696096Y-44618945D01*
X233696082Y-44618940D01*
X233461795Y-44556163D01*
X233461790Y-44556162D01*
X233221288Y-44524500D01*
X232978712Y-44524500D01*
X232738209Y-44556162D01*
X232738204Y-44556163D01*
X232503917Y-44618940D01*
X232503894Y-44618948D01*
X232279798Y-44711770D01*
X232279782Y-44711778D01*
X232069720Y-44833058D01*
X232069710Y-44833064D01*
X231877268Y-44980729D01*
X231877258Y-44980738D01*
X231705738Y-45152258D01*
X231705729Y-45152268D01*
X231558064Y-45344710D01*
X231558058Y-45344720D01*
X231436778Y-45554782D01*
X231436770Y-45554798D01*
X231343948Y-45778894D01*
X231343940Y-45778917D01*
X231281163Y-46013204D01*
X231281162Y-46013209D01*
X231249500Y-46253712D01*
X221583600Y-46253712D01*
X221521520Y-46146185D01*
X221409716Y-46034381D01*
X221409713Y-46034379D01*
X221272783Y-45955323D01*
X221120057Y-45914401D01*
X220961943Y-45914401D01*
X220961939Y-45914401D01*
X220821932Y-45951916D01*
X220757486Y-45960401D01*
X220479279Y-45960401D01*
X220479263Y-45960400D01*
X220464002Y-45960400D01*
X220317998Y-45960400D01*
X220176974Y-45998187D01*
X220176971Y-45998189D01*
X220050529Y-46071189D01*
X220050526Y-46071191D01*
X219947288Y-46174429D01*
X219947289Y-46174430D01*
X219947287Y-46174432D01*
X219700531Y-46421188D01*
X219700529Y-46421190D01*
X219700528Y-46421189D01*
X219597290Y-46524427D01*
X219557147Y-46593958D01*
X219524288Y-46650872D01*
X219503373Y-46728930D01*
X219486500Y-46791900D01*
X219486500Y-46791903D01*
X219486500Y-76687982D01*
X219467546Y-76783270D01*
X219413570Y-76864052D01*
X218458151Y-77819471D01*
X218377369Y-77873447D01*
X218282081Y-77892401D01*
X209803181Y-77892401D01*
X209803165Y-77892400D01*
X209787904Y-77892400D01*
X209641901Y-77892400D01*
X209500874Y-77930188D01*
X209500867Y-77930191D01*
X209374434Y-78003187D01*
X209374428Y-78003191D01*
X209271190Y-78106429D01*
X209271191Y-78106430D01*
X209271189Y-78106432D01*
X205203039Y-82174583D01*
X201164052Y-86213570D01*
X201083270Y-86267546D01*
X200987982Y-86286500D01*
X182153972Y-86286500D01*
X182058684Y-86267546D01*
X181977902Y-86213570D01*
X181923926Y-86132788D01*
X181904972Y-86037791D01*
X181903957Y-85169813D01*
X181902535Y-83953630D01*
X196798545Y-83953630D01*
X196798545Y-84498424D01*
X196801453Y-84523501D01*
X196801454Y-84523505D01*
X196846756Y-84626105D01*
X196926067Y-84705416D01*
X197028670Y-84750719D01*
X197053748Y-84753628D01*
X197848542Y-84753628D01*
X197848544Y-84753627D01*
X197848544Y-83953630D01*
X197848543Y-83953629D01*
X196798546Y-83953629D01*
X196798545Y-83953630D01*
X181902535Y-83953630D01*
X181893857Y-76534254D01*
X181893209Y-75980165D01*
X196798044Y-75980165D01*
X196798044Y-76187092D01*
X196838414Y-76390050D01*
X196917600Y-76581222D01*
X196917606Y-76581232D01*
X197032562Y-76753278D01*
X197032564Y-76753280D01*
X197032567Y-76753284D01*
X197178889Y-76899606D01*
X197178892Y-76899608D01*
X197178894Y-76899610D01*
X197350940Y-77014566D01*
X197350946Y-77014570D01*
X197350948Y-77014570D01*
X197350950Y-77014572D01*
X197410557Y-77039262D01*
X197542124Y-77093759D01*
X197620827Y-77109413D01*
X197710584Y-77146593D01*
X197779283Y-77215292D01*
X197816463Y-77305052D01*
X197816463Y-77402207D01*
X197779283Y-77491966D01*
X197710584Y-77560665D01*
X197620827Y-77597844D01*
X197542124Y-77613499D01*
X197542122Y-77613499D01*
X197542121Y-77613500D01*
X197350950Y-77692685D01*
X197350940Y-77692691D01*
X197178894Y-77807647D01*
X197032562Y-77953979D01*
X196917606Y-78126025D01*
X196917600Y-78126035D01*
X196838414Y-78317207D01*
X196798044Y-78520165D01*
X196798044Y-78727092D01*
X196838414Y-78930050D01*
X196917600Y-79121222D01*
X196917606Y-79121232D01*
X197032562Y-79293278D01*
X197032564Y-79293280D01*
X197032567Y-79293284D01*
X197178889Y-79439606D01*
X197178892Y-79439608D01*
X197178894Y-79439610D01*
X197256475Y-79491447D01*
X197350946Y-79554570D01*
X197350948Y-79554570D01*
X197350950Y-79554572D01*
X197410557Y-79579262D01*
X197542124Y-79633759D01*
X197620827Y-79649413D01*
X197710584Y-79686593D01*
X197779283Y-79755292D01*
X197816463Y-79845052D01*
X197816463Y-79942207D01*
X197779283Y-80031966D01*
X197710584Y-80100665D01*
X197620827Y-80137844D01*
X197542124Y-80153499D01*
X197542122Y-80153499D01*
X197542121Y-80153500D01*
X197350950Y-80232685D01*
X197350940Y-80232691D01*
X197178894Y-80347647D01*
X197032562Y-80493979D01*
X196917606Y-80666025D01*
X196917600Y-80666035D01*
X196838414Y-80857207D01*
X196798044Y-81060165D01*
X196798044Y-81267092D01*
X196838414Y-81470050D01*
X196917600Y-81661222D01*
X196917606Y-81661232D01*
X197032562Y-81833278D01*
X197032564Y-81833280D01*
X197032567Y-81833284D01*
X197178889Y-81979606D01*
X197178892Y-81979608D01*
X197178894Y-81979610D01*
X197350940Y-82094566D01*
X197350946Y-82094570D01*
X197350948Y-82094570D01*
X197350950Y-82094572D01*
X197414236Y-82120785D01*
X197542124Y-82173759D01*
X197542127Y-82173759D01*
X197544115Y-82174583D01*
X197624896Y-82228559D01*
X197678873Y-82309340D01*
X197697827Y-82404628D01*
X197678873Y-82499917D01*
X197624897Y-82580698D01*
X197544116Y-82634675D01*
X197448828Y-82653629D01*
X197053758Y-82653629D01*
X197053748Y-82653630D01*
X197028671Y-82656538D01*
X197028667Y-82656539D01*
X196926067Y-82701841D01*
X196846756Y-82781152D01*
X196801453Y-82883755D01*
X196798544Y-82908833D01*
X196798544Y-83453628D01*
X196798545Y-83453629D01*
X197853569Y-83453629D01*
X197818474Y-83488724D01*
X197772396Y-83568534D01*
X197748544Y-83657551D01*
X197748544Y-83749707D01*
X197772396Y-83838724D01*
X197818474Y-83918534D01*
X197883639Y-83983699D01*
X197963449Y-84029777D01*
X198052466Y-84053629D01*
X198144622Y-84053629D01*
X198233639Y-84029777D01*
X198313449Y-83983699D01*
X198343518Y-83953630D01*
X198348544Y-83953630D01*
X198348544Y-84753627D01*
X198348545Y-84753628D01*
X199143330Y-84753628D01*
X199143339Y-84753627D01*
X199168416Y-84750719D01*
X199168420Y-84750718D01*
X199271020Y-84705416D01*
X199350331Y-84626105D01*
X199395634Y-84523502D01*
X199398544Y-84498424D01*
X199398544Y-83953630D01*
X199398543Y-83953629D01*
X198348545Y-83953629D01*
X198348544Y-83953630D01*
X198343518Y-83953630D01*
X198378614Y-83918534D01*
X198424692Y-83838724D01*
X198448544Y-83749707D01*
X198448544Y-83657551D01*
X198424692Y-83568534D01*
X198378614Y-83488724D01*
X198343519Y-83453629D01*
X199398542Y-83453629D01*
X199398543Y-83453628D01*
X199398543Y-82908843D01*
X199398542Y-82908833D01*
X199395634Y-82883756D01*
X199395633Y-82883752D01*
X199350331Y-82781152D01*
X199271020Y-82701841D01*
X199168417Y-82656538D01*
X199143340Y-82653629D01*
X198748262Y-82653629D01*
X198652974Y-82634675D01*
X198572192Y-82580699D01*
X198518216Y-82499917D01*
X198499262Y-82404629D01*
X198518216Y-82309341D01*
X198572192Y-82228559D01*
X198652974Y-82174583D01*
X198654962Y-82173759D01*
X198654964Y-82173759D01*
X198846142Y-82094570D01*
X199018199Y-81979606D01*
X199164521Y-81833284D01*
X199279485Y-81661227D01*
X199358674Y-81470049D01*
X199399044Y-81267094D01*
X199399044Y-81060164D01*
X199358674Y-80857209D01*
X199279485Y-80666031D01*
X199248328Y-80619401D01*
X199164525Y-80493979D01*
X199164523Y-80493977D01*
X199164521Y-80493974D01*
X199018199Y-80347652D01*
X199018195Y-80347649D01*
X199018193Y-80347647D01*
X198846147Y-80232691D01*
X198846137Y-80232685D01*
X198654966Y-80153499D01*
X198620154Y-80146575D01*
X198576260Y-80137844D01*
X198486503Y-80100665D01*
X198417804Y-80031966D01*
X198380625Y-79942207D01*
X198380624Y-79845052D01*
X198417804Y-79755292D01*
X198486503Y-79686593D01*
X198576262Y-79649414D01*
X198576262Y-79649413D01*
X198654964Y-79633759D01*
X198846142Y-79554570D01*
X199018199Y-79439606D01*
X199164521Y-79293284D01*
X199279485Y-79121227D01*
X199358674Y-78930049D01*
X199399044Y-78727094D01*
X199399044Y-78520164D01*
X199358674Y-78317209D01*
X199279485Y-78126031D01*
X199279481Y-78126025D01*
X199164525Y-77953979D01*
X199164523Y-77953977D01*
X199164521Y-77953974D01*
X199018199Y-77807652D01*
X199018195Y-77807649D01*
X199018193Y-77807647D01*
X198846147Y-77692691D01*
X198846137Y-77692685D01*
X198654966Y-77613499D01*
X198620154Y-77606575D01*
X198576260Y-77597844D01*
X198486503Y-77560665D01*
X198417804Y-77491966D01*
X198380625Y-77402207D01*
X198380624Y-77305052D01*
X198417804Y-77215292D01*
X198486503Y-77146593D01*
X198576262Y-77109414D01*
X198576262Y-77109413D01*
X198654964Y-77093759D01*
X198846142Y-77014570D01*
X199018199Y-76899606D01*
X199164521Y-76753284D01*
X199279485Y-76581227D01*
X199358674Y-76390049D01*
X199399044Y-76187094D01*
X199399044Y-75980164D01*
X199358674Y-75777209D01*
X199279485Y-75586031D01*
X199279481Y-75586025D01*
X199164525Y-75413979D01*
X199164523Y-75413977D01*
X199164521Y-75413974D01*
X199018199Y-75267652D01*
X199018195Y-75267649D01*
X199018193Y-75267647D01*
X198846147Y-75152691D01*
X198846137Y-75152685D01*
X198654965Y-75073499D01*
X198587312Y-75060042D01*
X198452009Y-75033129D01*
X197745079Y-75033129D01*
X197643601Y-75053314D01*
X197542122Y-75073499D01*
X197350950Y-75152685D01*
X197350940Y-75152691D01*
X197178894Y-75267647D01*
X197032562Y-75413979D01*
X196917606Y-75586025D01*
X196917600Y-75586035D01*
X196838414Y-75777207D01*
X196827671Y-75831219D01*
X196800420Y-75968222D01*
X196798044Y-75980165D01*
X181893209Y-75980165D01*
X181893195Y-75968222D01*
X181889874Y-73129150D01*
X181889220Y-72569571D01*
X211440000Y-72569571D01*
X211440000Y-72727686D01*
X211480922Y-72880412D01*
X211559978Y-73017342D01*
X211559980Y-73017345D01*
X211671784Y-73129149D01*
X211808716Y-73208206D01*
X211961443Y-73249129D01*
X212119557Y-73249129D01*
X212272284Y-73208206D01*
X212409216Y-73129149D01*
X212521020Y-73017345D01*
X212593494Y-72891814D01*
X212633061Y-72840247D01*
X213943968Y-71529341D01*
X213943971Y-71529340D01*
X214047211Y-71426100D01*
X214120212Y-71299658D01*
X214127008Y-71274295D01*
X214158001Y-71158631D01*
X214158001Y-71012627D01*
X214158001Y-70997367D01*
X214158000Y-70997349D01*
X214158000Y-68643348D01*
X214166485Y-68578901D01*
X214204000Y-68438894D01*
X214204000Y-68280777D01*
X214163077Y-68128051D01*
X214084021Y-67991121D01*
X214084020Y-67991119D01*
X213972216Y-67879315D01*
X213972213Y-67879313D01*
X213835283Y-67800257D01*
X213682557Y-67759335D01*
X213524443Y-67759335D01*
X213371716Y-67800257D01*
X213234786Y-67879313D01*
X213122978Y-67991121D01*
X213043922Y-68128051D01*
X213003000Y-68280777D01*
X213003000Y-68438894D01*
X213040515Y-68578901D01*
X213049000Y-68643348D01*
X213049000Y-70752807D01*
X213030046Y-70848095D01*
X212976070Y-70928877D01*
X211848880Y-72056066D01*
X211797310Y-72095636D01*
X211671787Y-72168106D01*
X211559978Y-72279915D01*
X211480922Y-72416845D01*
X211440000Y-72569571D01*
X181889220Y-72569571D01*
X181870657Y-56698630D01*
X196923545Y-56698630D01*
X196923545Y-57243424D01*
X196926453Y-57268501D01*
X196926454Y-57268505D01*
X196971756Y-57371105D01*
X197051067Y-57450416D01*
X197153670Y-57495719D01*
X197178748Y-57498628D01*
X197973542Y-57498628D01*
X197973544Y-57498627D01*
X197973544Y-56698630D01*
X197973543Y-56698629D01*
X196923546Y-56698629D01*
X196923545Y-56698630D01*
X181870657Y-56698630D01*
X181861331Y-48725164D01*
X196923044Y-48725164D01*
X196923044Y-48932094D01*
X196930310Y-48968622D01*
X196963414Y-49135050D01*
X197042600Y-49326222D01*
X197042606Y-49326232D01*
X197157562Y-49498278D01*
X197157564Y-49498280D01*
X197157567Y-49498284D01*
X197303889Y-49644606D01*
X197303892Y-49644608D01*
X197303894Y-49644610D01*
X197475940Y-49759566D01*
X197475946Y-49759570D01*
X197475948Y-49759570D01*
X197475950Y-49759572D01*
X197535557Y-49784262D01*
X197667124Y-49838759D01*
X197745827Y-49854413D01*
X197835584Y-49891593D01*
X197904283Y-49960292D01*
X197941463Y-50050052D01*
X197941463Y-50147207D01*
X197904283Y-50236966D01*
X197835584Y-50305665D01*
X197745827Y-50342844D01*
X197667124Y-50358499D01*
X197667122Y-50358499D01*
X197667121Y-50358500D01*
X197475950Y-50437685D01*
X197475940Y-50437691D01*
X197303894Y-50552647D01*
X197157562Y-50698979D01*
X197042606Y-50871025D01*
X197042600Y-50871035D01*
X196963414Y-51062207D01*
X196963414Y-51062209D01*
X196923044Y-51265164D01*
X196923044Y-51472094D01*
X196937829Y-51546423D01*
X196963414Y-51675050D01*
X197042600Y-51866222D01*
X197042606Y-51866232D01*
X197157562Y-52038278D01*
X197157564Y-52038280D01*
X197157567Y-52038284D01*
X197303889Y-52184606D01*
X197303892Y-52184608D01*
X197303894Y-52184610D01*
X197475940Y-52299566D01*
X197475946Y-52299570D01*
X197475948Y-52299570D01*
X197475950Y-52299572D01*
X197535557Y-52324262D01*
X197667124Y-52378759D01*
X197745827Y-52394413D01*
X197835584Y-52431593D01*
X197904283Y-52500292D01*
X197941463Y-52590052D01*
X197941463Y-52687207D01*
X197904283Y-52776966D01*
X197835584Y-52845665D01*
X197745827Y-52882844D01*
X197667124Y-52898499D01*
X197667122Y-52898499D01*
X197667121Y-52898500D01*
X197475950Y-52977685D01*
X197475940Y-52977691D01*
X197303894Y-53092647D01*
X197157562Y-53238979D01*
X197042606Y-53411025D01*
X197042600Y-53411035D01*
X196963414Y-53602207D01*
X196949652Y-53671394D01*
X196924245Y-53799129D01*
X196923044Y-53805165D01*
X196923044Y-54012092D01*
X196963414Y-54215050D01*
X197042600Y-54406222D01*
X197042606Y-54406232D01*
X197157562Y-54578278D01*
X197157564Y-54578280D01*
X197157567Y-54578284D01*
X197303889Y-54724606D01*
X197303892Y-54724608D01*
X197303894Y-54724610D01*
X197475940Y-54839566D01*
X197475946Y-54839570D01*
X197475948Y-54839570D01*
X197475950Y-54839572D01*
X197539236Y-54865785D01*
X197667124Y-54918759D01*
X197667127Y-54918759D01*
X197669115Y-54919583D01*
X197749896Y-54973559D01*
X197803873Y-55054340D01*
X197822827Y-55149628D01*
X197803873Y-55244917D01*
X197749897Y-55325698D01*
X197669116Y-55379675D01*
X197573828Y-55398629D01*
X197178758Y-55398629D01*
X197178748Y-55398630D01*
X197153671Y-55401538D01*
X197153667Y-55401539D01*
X197051067Y-55446841D01*
X196971756Y-55526152D01*
X196926453Y-55628755D01*
X196923544Y-55653833D01*
X196923544Y-56198628D01*
X196923545Y-56198629D01*
X197978569Y-56198629D01*
X197943474Y-56233724D01*
X197897396Y-56313534D01*
X197873544Y-56402551D01*
X197873544Y-56494707D01*
X197897396Y-56583724D01*
X197943474Y-56663534D01*
X198008639Y-56728699D01*
X198088449Y-56774777D01*
X198177466Y-56798629D01*
X198269622Y-56798629D01*
X198358639Y-56774777D01*
X198438449Y-56728699D01*
X198468518Y-56698630D01*
X198473544Y-56698630D01*
X198473544Y-57498627D01*
X198473545Y-57498628D01*
X199268330Y-57498628D01*
X199268339Y-57498627D01*
X199293416Y-57495719D01*
X199293420Y-57495718D01*
X199396020Y-57450416D01*
X199475331Y-57371105D01*
X199520634Y-57268502D01*
X199523544Y-57243424D01*
X199523544Y-56698630D01*
X199523543Y-56698629D01*
X198473545Y-56698629D01*
X198473544Y-56698630D01*
X198468518Y-56698630D01*
X198503614Y-56663534D01*
X198549692Y-56583724D01*
X198573544Y-56494707D01*
X198573544Y-56402551D01*
X198549692Y-56313534D01*
X198503614Y-56233724D01*
X198468519Y-56198629D01*
X199523542Y-56198629D01*
X199523543Y-56198628D01*
X199523543Y-55653843D01*
X199523542Y-55653833D01*
X199520634Y-55628756D01*
X199520633Y-55628752D01*
X199475331Y-55526152D01*
X199396020Y-55446841D01*
X199293417Y-55401538D01*
X199268340Y-55398629D01*
X198873262Y-55398629D01*
X198777974Y-55379675D01*
X198697192Y-55325699D01*
X198643216Y-55244917D01*
X198624262Y-55149629D01*
X198643216Y-55054341D01*
X198697192Y-54973559D01*
X198777974Y-54919583D01*
X198779962Y-54918759D01*
X198779964Y-54918759D01*
X198971142Y-54839570D01*
X199143199Y-54724606D01*
X199289521Y-54578284D01*
X199404485Y-54406227D01*
X199483674Y-54215049D01*
X199524044Y-54012094D01*
X199524044Y-53805164D01*
X199483674Y-53602209D01*
X199404485Y-53411031D01*
X199404481Y-53411025D01*
X199289525Y-53238979D01*
X199289523Y-53238977D01*
X199289521Y-53238974D01*
X199143199Y-53092652D01*
X199143195Y-53092649D01*
X199143193Y-53092647D01*
X198971147Y-52977691D01*
X198971137Y-52977685D01*
X198779966Y-52898499D01*
X198745154Y-52891575D01*
X198701260Y-52882844D01*
X198611503Y-52845665D01*
X198542804Y-52776966D01*
X198505625Y-52687207D01*
X198505624Y-52590052D01*
X198542804Y-52500292D01*
X198611503Y-52431593D01*
X198701262Y-52394414D01*
X198701262Y-52394413D01*
X198779964Y-52378759D01*
X198971142Y-52299570D01*
X199143199Y-52184606D01*
X199289521Y-52038284D01*
X199404485Y-51866227D01*
X199483674Y-51675049D01*
X199524044Y-51472094D01*
X199524044Y-51265164D01*
X199483674Y-51062209D01*
X199404485Y-50871031D01*
X199404481Y-50871025D01*
X199289525Y-50698979D01*
X199289523Y-50698977D01*
X199289521Y-50698974D01*
X199143199Y-50552652D01*
X199143195Y-50552649D01*
X199143193Y-50552647D01*
X198971147Y-50437691D01*
X198971137Y-50437685D01*
X198779966Y-50358499D01*
X198745154Y-50351575D01*
X198701260Y-50342844D01*
X198611503Y-50305665D01*
X198542804Y-50236966D01*
X198505625Y-50147207D01*
X198505624Y-50050052D01*
X198542804Y-49960292D01*
X198611503Y-49891593D01*
X198701262Y-49854414D01*
X198701262Y-49854413D01*
X198779964Y-49838759D01*
X198971142Y-49759570D01*
X199143199Y-49644606D01*
X199289521Y-49498284D01*
X199404485Y-49326227D01*
X199483674Y-49135049D01*
X199524044Y-48932094D01*
X199524044Y-48725164D01*
X199483674Y-48522209D01*
X199404485Y-48331031D01*
X199333972Y-48225500D01*
X199289525Y-48158979D01*
X199289523Y-48158977D01*
X199289521Y-48158974D01*
X199143199Y-48012652D01*
X199143195Y-48012649D01*
X199143193Y-48012647D01*
X198971147Y-47897691D01*
X198971137Y-47897685D01*
X198779965Y-47818499D01*
X198712312Y-47805042D01*
X198577009Y-47778129D01*
X197870079Y-47778129D01*
X197768601Y-47798314D01*
X197667122Y-47818499D01*
X197475950Y-47897685D01*
X197475940Y-47897691D01*
X197303894Y-48012647D01*
X197157562Y-48158979D01*
X197042606Y-48331025D01*
X197042600Y-48331035D01*
X196963414Y-48522207D01*
X196963414Y-48522209D01*
X196923044Y-48725164D01*
X181861331Y-48725164D01*
X181855766Y-43966885D01*
X181874609Y-43871578D01*
X181928491Y-43790733D01*
X182009209Y-43736663D01*
X182103843Y-43717599D01*
X235606717Y-43519440D01*
X235702074Y-43538041D01*
G37*
%TD.AperFunction*%
%TD*%
M02*
