M48
; DRILL file {KiCad 9.0.7} date 2026-04-13T02:26:48+0530
; FORMAT={-:-/ absolute / metric / decimal}
; #@! TF.CreationDate,2026-04-13T02:26:48+05:30
; #@! TF.GenerationSoftware,Kicad,Pcbnew,9.0.7
; #@! TF.FileFunction,MixedPlating,1,2
FMAT,2
METRIC
; #@! TA.AperFunction,Plated,PTH,ViaDrill
T1C0.300
; #@! TA.AperFunction,Plated,PTH,ComponentDrill
T2C0.700
; #@! TA.AperFunction,Plated,PTH,ComponentDrill
T3C0.800
; #@! TA.AperFunction,Plated,PTH,ComponentDrill
T4C0.850
; #@! TA.AperFunction,Plated,PTH,ComponentDrill
T5C1.000
; #@! TA.AperFunction,Plated,PTH,ComponentDrill
T6C1.300
; #@! TA.AperFunction,Plated,PTH,ComponentDrill
T7C1.500
; #@! TA.AperFunction,NonPlated,NPTH,ComponentDrill
T8C3.200
%
G90
G05
T1
X132.25Y-44.75
X132.25Y-49.05
X133.2Y-88.9
X139.55Y-92.65
X152.15Y-108.95
X152.45Y-112.15
X157.2Y-87.7
X157.2Y-88.6
X202.203Y-124.549
X203.004Y-96.949
X203.504Y-69.649
X208.504Y-90.849
X209.203Y-63.249
X210.803Y-118.949
X210.803Y-121.349
X210.903Y-90.849
X211.603Y-63.349
X212.04Y-72.649
X213.603Y-68.36
X217.19Y-83.67
X217.703Y-90.249
X217.803Y-97.849
X217.921Y-84.569
X221.041Y-46.515
X221.403Y-99.649
X225.103Y-57.249
X231.703Y-64.249
X233.278Y-67.165
X233.523Y-77.347
T2
X197.303Y-103.629
X197.303Y-106.169
X197.303Y-108.709
X197.303Y-111.249
X198.099Y-76.084
X198.099Y-78.624
X198.099Y-81.164
X198.099Y-83.704
X198.224Y-48.829
X198.224Y-51.369
X198.224Y-53.909
X198.224Y-56.449
T3
X77.8Y-97.7
X82.2Y-90.2
X119.85Y-44.75
X127.35Y-49.15
T4
X132.412Y-111.8
X132.45Y-80.8
X134.952Y-111.8
X134.99Y-80.8
X137.493Y-111.8
X137.53Y-80.8
X142.572Y-111.8
X142.61Y-80.8
X145.112Y-111.8
X145.15Y-80.8
T5
X87.868Y-92.935
X92.868Y-92.935
X117.35Y-60.496
X122.35Y-60.496
X144.25Y-97.0
X148.012Y-99.1
X222.603Y-48.049
X222.603Y-52.649
X222.603Y-57.249
X222.603Y-61.849
X222.603Y-66.149
X222.641Y-70.565
X222.741Y-75.465
X222.741Y-80.065
T6
X65.15Y-109.97
X65.15Y-115.05
X71.6Y-83.7
X71.6Y-88.9
X71.6Y-99.0
X71.6Y-104.2
X131.25Y-59.2
X135.865Y-47.232
X136.45Y-59.2
X140.945Y-47.232
X146.55Y-59.2
X151.75Y-59.2
X169.05Y-79.5
X169.05Y-103.5
T7
X103.85Y-77.2
X103.85Y-82.65
X103.85Y-88.1
X104.05Y-95.2
X104.05Y-100.65
X104.05Y-106.1
T8
X64.75Y-46.375
X64.75Y-125.225
X233.1Y-46.375
X233.1Y-125.225
M30
