%TF.GenerationSoftware,KiCad,Pcbnew,9.0.7*%
%TF.CreationDate,2026-04-13T02:26:39+05:30*%
%TF.ProjectId,FinalBoostPCB,46696e61-6c42-46f6-9f73-745043422e6b,rev?*%
%TF.SameCoordinates,Original*%
%TF.FileFunction,Soldermask,Bot*%
%TF.FilePolarity,Negative*%
%FSLAX46Y46*%
G04 Gerber Fmt 4.6, Leading zero omitted, Abs format (unit mm)*
G04 Created by KiCad (PCBNEW 9.0.7) date 2026-04-13 02:26:39*
%MOMM*%
%LPD*%
G01*
G04 APERTURE LIST*
G04 Aperture macros list*
%AMRoundRect*
0 Rectangle with rounded corners*
0 $1 Rounding radius*
0 $2 $3 $4 $5 $6 $7 $8 $9 X,Y pos of 4 corners*
0 Add a 4 corners polygon primitive as box body*
4,1,4,$2,$3,$4,$5,$6,$7,$8,$9,$2,$3,0*
0 Add four circle primitives for the rounded corners*
1,1,$1+$1,$2,$3*
1,1,$1+$1,$4,$5*
1,1,$1+$1,$6,$7*
1,1,$1+$1,$8,$9*
0 Add four rect primitives between the rounded corners*
20,1,$1+$1,$2,$3,$4,$5,0*
20,1,$1+$1,$4,$5,$6,$7,0*
20,1,$1+$1,$6,$7,$8,$9,0*
20,1,$1+$1,$8,$9,$2,$3,0*%
G04 Aperture macros list end*
%ADD10C,2.500000*%
%ADD11RoundRect,0.250000X1.000000X1.000000X-1.000000X1.000000X-1.000000X-1.000000X1.000000X-1.000000X0*%
%ADD12RoundRect,0.250000X1.000000X-1.000000X1.000000X1.000000X-1.000000X1.000000X-1.000000X-1.000000X0*%
%ADD13C,3.200000*%
%ADD14C,2.000000*%
%ADD15RoundRect,0.250000X0.750000X0.750000X-0.750000X0.750000X-0.750000X-0.750000X0.750000X-0.750000X0*%
%ADD16C,1.800000*%
%ADD17RoundRect,0.575000X-0.575000X0.575000X-0.575000X-0.575000X0.575000X-0.575000X0.575000X0.575000X0*%
%ADD18C,2.300000*%
%ADD19R,1.700000X1.700000*%
%ADD20C,1.850000*%
%ADD21RoundRect,0.250000X-0.675000X0.675000X-0.675000X-0.675000X0.675000X-0.675000X0.675000X0.675000X0*%
%ADD22C,3.500000*%
%ADD23O,4.500000X2.500000*%
%ADD24R,4.500000X2.500000*%
%ADD25RoundRect,0.575000X0.575000X0.575000X-0.575000X0.575000X-0.575000X-0.575000X0.575000X-0.575000X0*%
%ADD26R,2.000000X1.500000*%
%ADD27O,2.000000X1.500000*%
G04 APERTURE END LIST*
D10*
%TO.C,J1*%
X135865000Y-47232500D03*
D11*
X140945000Y-47232500D03*
%TD*%
D12*
%TO.C,J2*%
X65150000Y-115050000D03*
D10*
X65150000Y-109970000D03*
%TD*%
D13*
%TO.C,M4*%
X233100000Y-46375000D03*
%TD*%
%TO.C,M3*%
X64750000Y-46375000D03*
%TD*%
%TO.C,M2*%
X233100000Y-125225000D03*
%TD*%
%TO.C,M1*%
X64750000Y-125225000D03*
%TD*%
D14*
%TO.C,COUT1*%
X87867677Y-92934911D03*
D15*
X92867677Y-92934911D03*
%TD*%
D16*
%TO.C,RVOUT1*%
X77800000Y-97700000D03*
X82200000Y-90200000D03*
%TD*%
D17*
%TO.C,FOUT1*%
X71600000Y-83700000D03*
X71600000Y-88900000D03*
D18*
X71600000Y-99000000D03*
X71600000Y-104200000D03*
%TD*%
D19*
%TO.C,J14*%
X144250000Y-97000000D03*
%TD*%
D20*
%TO.C,PS19*%
X132412500Y-111800000D03*
X134952500Y-111800000D03*
X137492500Y-111800000D03*
X142572500Y-111800000D03*
D21*
X145112500Y-111800000D03*
%TD*%
D19*
%TO.C,J13*%
X148012500Y-99100000D03*
%TD*%
D20*
%TO.C,PS18*%
X132450000Y-80800000D03*
X134990000Y-80800000D03*
X137530000Y-80800000D03*
X142610000Y-80800000D03*
D21*
X145150000Y-80800000D03*
%TD*%
D14*
%TO.C,CIN2*%
X117350000Y-60496338D03*
D15*
X122350000Y-60496338D03*
%TD*%
D22*
%TO.C,L2*%
X169050000Y-103500000D03*
X169050000Y-79500000D03*
%TD*%
D16*
%TO.C,RVIN1*%
X119850000Y-44750000D03*
X127350000Y-49150000D03*
%TD*%
D23*
%TO.C,SUG80050E-GE3-1*%
X104050000Y-106100000D03*
X104050000Y-100650000D03*
D24*
X104050000Y-95200000D03*
%TD*%
D23*
%TO.C,SUG80050E-GE3-2*%
X103850000Y-77200000D03*
X103850000Y-82650000D03*
D24*
X103850000Y-88100000D03*
%TD*%
D18*
%TO.C,FIN1*%
X131250000Y-59200000D03*
X136450000Y-59200000D03*
D25*
X146550000Y-59200000D03*
X151750000Y-59200000D03*
%TD*%
D19*
%TO.C,J11*%
X222741000Y-75464901D03*
%TD*%
%TO.C,J7*%
X222603500Y-57248629D03*
%TD*%
%TO.C,J12*%
X222741000Y-80064901D03*
%TD*%
%TO.C,J6*%
X222603500Y-52648629D03*
%TD*%
%TO.C,J9*%
X222641000Y-70564901D03*
%TD*%
D26*
%TO.C,U8*%
X198098544Y-83703629D03*
D27*
X198098544Y-81163629D03*
X198098544Y-78623629D03*
X198098544Y-76083629D03*
%TD*%
D19*
%TO.C,J8*%
X222603500Y-61848629D03*
%TD*%
D26*
%TO.C,U7*%
X198223544Y-56448629D03*
D27*
X198223544Y-53908629D03*
X198223544Y-51368629D03*
X198223544Y-48828629D03*
%TD*%
D19*
%TO.C,J10*%
X222603500Y-66148629D03*
%TD*%
D26*
%TO.C,U6*%
X197303500Y-111248629D03*
D27*
X197303500Y-108708629D03*
X197303500Y-106168629D03*
X197303500Y-103628629D03*
%TD*%
D19*
%TO.C,J5*%
X222603500Y-48048629D03*
%TD*%
M02*
